# MagicaVoxel @ Ephtracy

# group
o 

# material
mtllib Corner Cafe-3.mtl
usemtl palette

# normals
vn -1 0 0
vn 1 0 0
vn 0 0 1
vn 0 0 -1
vn 0 -1 0
vn 0 1 0

# texcoords
vt 0.583984 0.5
vt 0.767578 0.5
vt 0.802734 0.5
vt 0.955078 0.5

# verts
v 0 0 1
v 0 0 0.2
v 0 0 0
v 0 0 -0.5
v 0 0 -1
v 0 0.1 0.9
v 0 0.1 0.2
v 0 0.1 0
v 0 0.1 -0.5
v 0 0.1 -0.9
v 0 0.2 0.3
v 0 0.2 -0.1
v 0 0.3 0.5
v 0 0.3 0.3
v 0 0.3 0
v 0 0.3 -0.1
v 0 0.3 -0.2
v 0 0.3 -0.6
v 0 0.3 -0.7
v 0 0.4 0.6
v 0 0.4 0.5
v 0 0.4 0.4
v 0 0.4 0.3
v 0 0.4 0
v 0 0.4 -0.1
v 0 0.4 -0.5
v 0 0.4 -0.6
v 0 0.4 -0.7
v 0 0.5 0
v 0 0.5 -0.1
v 0 0.5 -0.6
v 0 0.5 -0.7
v 0 0.6 0.5
v 0 0.6 0.4
v 0 0.6 -0.5
v 0 0.6 -0.7
v 0 0.7 0.6
v 0 0.7 -0.2
v 0 0.8 1
v 0 0.8 0.9
v 0 0.8 0.4
v 0 0.8 0.3
v 0 0.8 0
v 0 0.8 -0.1
v 0 0.8 -0.5
v 0 0.8 -0.7
v 0 0.9 0.6
v 0 0.9 0.4
v 0 0.9 0.3
v 0 0.9 0.2
v 0 0.9 0
v 0 0.9 -0.1
v 0 0.9 -0.5
v 0 0.9 -0.6
v 0 1 0.6
v 0 1 0.4
v 0 1 0.2
v 0 1 0
v 0 1 -0.6
v 0 1 -0.7
v 0 1.2 0.9
v 0 1.2 -0.9
v 0 1.3 1
v 0 1.3 -1
v 0.1 0 1
v 0.1 0 0.2
v 0.1 0 0
v 0.1 0 -0.5
v 0.1 0 -1
v 0.1 0.1 0.9
v 0.1 0.1 0.2
v 0.1 0.1 0
v 0.1 0.1 -0.5
v 0.1 0.1 -0.9
v 0.1 0.2 0.3
v 0.1 0.2 -0.1
v 0.1 0.3 0.5
v 0.1 0.3 0.3
v 0.1 0.3 0
v 0.1 0.3 -0.1
v 0.1 0.3 -0.2
v 0.1 0.3 -0.6
v 0.1 0.3 -0.7
v 0.1 0.4 0.6
v 0.1 0.4 0.5
v 0.1 0.4 0.4
v 0.1 0.4 0.3
v 0.1 0.4 0
v 0.1 0.4 -0.1
v 0.1 0.4 -0.5
v 0.1 0.4 -0.6
v 0.1 0.4 -0.7
v 0.1 0.5 0
v 0.1 0.5 -0.1
v 0.1 0.5 -0.6
v 0.1 0.5 -0.7
v 0.1 0.6 0.5
v 0.1 0.6 0.4
v 0.1 0.6 -0.5
v 0.1 0.6 -0.7
v 0.1 0.7 0.6
v 0.1 0.7 -0.2
v 0.1 0.8 1
v 0.1 0.8 0.9
v 0.1 0.8 0.4
v 0.1 0.8 0.3
v 0.1 0.8 0
v 0.1 0.8 -0.1
v 0.1 0.8 -0.5
v 0.1 0.8 -0.7
v 0.1 0.9 0.6
v 0.1 0.9 0.4
v 0.1 0.9 0.3
v 0.1 0.9 0.2
v 0.1 0.9 0
v 0.1 0.9 -0.1
v 0.1 0.9 -0.5
v 0.1 0.9 -0.6
v 0.1 1 0.6
v 0.1 1 0.4
v 0.1 1 0.2
v 0.1 1 0
v 0.1 1 -0.6
v 0.1 1 -0.7
v 0.1 1.2 0.9
v 0.1 1.2 -0.9
v 0.1 1.3 1
v 0.1 1.3 -1
v 0 0 1
v 0 0.8 1
v 0 1.3 1
v 0.1 0 1
v 0.1 0.8 1
v 0.1 1.3 1
v 0 0 -1
v 0 1.3 -1
v 0.1 0 -1
v 0.1 1.3 -1
v 0 0 1
v 0.1 0 1
v 0 0 0.2
v 0.1 0 0.2
v 0 0 0
v 0.1 0 0
v 0 0 -0.5
v 0.1 0 -0.5
v 0 0 -1
v 0.1 0 -1
v 0 1.3 1
v 0.1 1.3 1
v 0 1.3 -1
v 0.1 1.3 -1

# faces
f 6/1/1 2/1/1 1/1/1
f 7/4/1 3/4/1 2/4/1
f 7/1/1 2/1/1 6/1/1
f 8/1/1 4/1/1 3/1/1
f 8/4/1 3/4/1 7/4/1
f 9/4/1 5/4/1 4/4/1
f 9/1/1 4/1/1 8/1/1
f 10/4/1 5/4/1 9/4/1
f 11/3/1 8/3/1 7/3/1
f 11/3/1 7/3/1 6/3/1
f 11/3/1 10/3/1 9/3/1
f 11/3/1 9/3/1 8/3/1
f 12/3/1 10/3/1 11/3/1
f 13/3/1 11/3/1 6/3/1
f 14/2/1 12/2/1 11/2/1
f 14/3/1 11/3/1 13/3/1
f 15/2/1 12/2/1 14/2/1
f 16/3/1 10/3/1 12/3/1
f 16/2/1 12/2/1 15/2/1
f 17/3/1 10/3/1 16/3/1
f 18/3/1 10/3/1 17/3/1
f 19/3/1 10/3/1 18/3/1
f 20/3/1 13/3/1 6/3/1
f 21/2/1 14/2/1 13/2/1
f 21/3/1 13/3/1 20/3/1
f 22/2/1 14/2/1 21/2/1
f 23/3/1 15/3/1 14/3/1
f 23/2/1 14/2/1 22/2/1
f 24/2/1 16/2/1 15/2/1
f 24/3/1 15/3/1 23/3/1
f 24/2/1 17/2/1 16/2/1
f 25/2/1 17/2/1 24/2/1
f 26/3/1 18/3/1 17/3/1
f 27/2/1 19/2/1 18/2/1
f 27/3/1 18/3/1 26/3/1
f 28/3/1 10/3/1 19/3/1
f 28/2/1 19/2/1 27/2/1
f 29/2/1 23/2/1 22/2/1
f 29/2/1 24/2/1 23/2/1
f 29/3/1 25/3/1 24/3/1
f 30/2/1 17/2/1 25/2/1
f 30/3/1 25/3/1 29/3/1
f 31/2/1 27/2/1 26/2/1
f 31/3/1 28/3/1 27/3/1
f 32/3/1 10/3/1 28/3/1
f 32/3/1 28/3/1 31/3/1
f 33/3/1 22/3/1 21/3/1
f 33/2/1 21/2/1 20/2/1
f 34/2/1 29/2/1 22/2/1
f 34/3/1 22/3/1 33/3/1
f 34/2/1 30/2/1 29/2/1
f 35/2/1 31/2/1 26/2/1
f 35/2/1 32/2/1 31/2/1
f 35/3/1 26/3/1 17/3/1
f 36/3/1 10/3/1 32/3/1
f 36/2/1 32/2/1 35/2/1
f 37/3/1 20/3/1 6/3/1
f 37/2/1 34/2/1 33/2/1
f 37/2/1 33/2/1 20/2/1
f 38/3/1 35/3/1 17/3/1
f 38/2/1 34/2/1 37/2/1
f 38/2/1 17/2/1 30/2/1
f 38/3/1 36/3/1 35/3/1
f 38/2/1 30/2/1 34/2/1
f 39/1/1 6/1/1 1/1/1
f 40/3/1 37/3/1 6/3/1
f 40/1/1 6/1/1 39/1/1
f 40/3/1 38/3/1 37/3/1
f 41/3/1 38/3/1 40/3/1
f 42/3/1 38/3/1 41/3/1
f 43/3/1 38/3/1 42/3/1
f 44/3/1 38/3/1 43/3/1
f 45/3/1 36/3/1 38/3/1
f 45/3/1 38/3/1 44/3/1
f 46/3/1 10/3/1 36/3/1
f 46/3/1 36/3/1 45/3/1
f 47/3/1 41/3/1 40/3/1
f 48/2/1 42/2/1 41/2/1
f 48/3/1 41/3/1 47/3/1
f 49/3/1 43/3/1 42/3/1
f 49/2/1 42/2/1 48/2/1
f 50/3/1 43/3/1 49/3/1
f 51/2/1 44/2/1 43/2/1
f 51/3/1 43/3/1 50/3/1
f 52/3/1 45/3/1 44/3/1
f 52/2/1 44/2/1 51/2/1
f 53/2/1 46/2/1 45/2/1
f 53/3/1 45/3/1 52/3/1
f 54/2/1 46/2/1 53/2/1
f 55/3/1 47/3/1 40/3/1
f 55/2/1 48/2/1 47/2/1
f 56/3/1 50/3/1 49/3/1
f 56/2/1 48/2/1 55/2/1
f 56/3/1 49/3/1 48/3/1
f 57/2/1 51/2/1 50/2/1
f 57/3/1 50/3/1 56/3/1
f 58/3/1 54/3/1 53/3/1
f 58/2/1 51/2/1 57/2/1
f 58/3/1 52/3/1 51/3/1
f 58/3/1 53/3/1 52/3/1
f 59/2/1 46/2/1 54/2/1
f 59/3/1 54/3/1 58/3/1
f 60/3/1 10/3/1 46/3/1
f 60/2/1 46/2/1 59/2/1
f 61/3/1 55/3/1 40/3/1
f 61/3/1 56/3/1 55/3/1
f 61/3/1 60/3/1 59/3/1
f 61/3/1 57/3/1 56/3/1
f 61/3/1 58/3/1 57/3/1
f 61/3/1 59/3/1 58/3/1
f 61/4/1 40/4/1 39/4/1
f 62/4/1 5/4/1 10/4/1
f 62/3/1 60/3/1 61/3/1
f 62/3/1 10/3/1 60/3/1
f 63/4/1 61/4/1 39/4/1
f 63/4/1 62/4/1 61/4/1
f 64/4/1 5/4/1 62/4/1
f 64/4/1 62/4/1 63/4/1
f 65/1/2 66/1/2 70/1/2
f 66/4/2 67/4/2 71/4/2
f 70/1/2 66/1/2 71/1/2
f 67/1/2 68/1/2 72/1/2
f 71/4/2 67/4/2 72/4/2
f 68/4/2 69/4/2 73/4/2
f 72/1/2 68/1/2 73/1/2
f 73/4/2 69/4/2 74/4/2
f 71/3/2 72/3/2 75/3/2
f 70/3/2 71/3/2 75/3/2
f 73/3/2 74/3/2 75/3/2
f 72/3/2 73/3/2 75/3/2
f 75/3/2 74/3/2 76/3/2
f 70/3/2 75/3/2 77/3/2
f 75/2/2 76/2/2 78/2/2
f 77/3/2 75/3/2 78/3/2
f 78/2/2 76/2/2 79/2/2
f 76/3/2 74/3/2 80/3/2
f 79/2/2 76/2/2 80/2/2
f 80/3/2 74/3/2 81/3/2
f 81/3/2 74/3/2 82/3/2
f 82/3/2 74/3/2 83/3/2
f 70/3/2 77/3/2 84/3/2
f 77/2/2 78/2/2 85/2/2
f 84/3/2 77/3/2 85/3/2
f 85/2/2 78/2/2 86/2/2
f 78/3/2 79/3/2 87/3/2
f 86/2/2 78/2/2 87/2/2
f 79/2/2 80/2/2 88/2/2
f 87/3/2 79/3/2 88/3/2
f 80/2/2 81/2/2 88/2/2
f 88/2/2 81/2/2 89/2/2
f 81/3/2 82/3/2 90/3/2
f 82/2/2 83/2/2 91/2/2
f 90/3/2 82/3/2 91/3/2
f 83/3/2 74/3/2 92/3/2
f 91/2/2 83/2/2 92/2/2
f 86/2/2 87/2/2 93/2/2
f 87/2/2 88/2/2 93/2/2
f 88/3/2 89/3/2 93/3/2
f 89/2/2 81/2/2 94/2/2
f 93/3/2 89/3/2 94/3/2
f 90/2/2 91/2/2 95/2/2
f 91/3/2 92/3/2 95/3/2
f 92/3/2 74/3/2 96/3/2
f 95/3/2 92/3/2 96/3/2
f 85/3/2 86/3/2 97/3/2
f 84/2/2 85/2/2 97/2/2
f 86/2/2 93/2/2 98/2/2
f 97/3/2 86/3/2 98/3/2
f 93/2/2 94/2/2 98/2/2
f 90/2/2 95/2/2 99/2/2
f 95/2/2 96/2/2 99/2/2
f 81/3/2 90/3/2 99/3/2
f 96/3/2 74/3/2 100/3/2
f 99/2/2 96/2/2 100/2/2
f 70/3/2 84/3/2 101/3/2
f 97/2/2 98/2/2 101/2/2
f 84/2/2 97/2/2 101/2/2
f 81/3/2 99/3/2 102/3/2
f 101/2/2 98/2/2 102/2/2
f 94/2/2 81/2/2 102/2/2
f 99/3/2 100/3/2 102/3/2
f 98/2/2 94/2/2 102/2/2
f 65/1/2 70/1/2 103/1/2
f 70/3/2 101/3/2 104/3/2
f 103/1/2 70/1/2 104/1/2
f 101/3/2 102/3/2 104/3/2
f 104/3/2 102/3/2 105/3/2
f 105/3/2 102/3/2 106/3/2
f 106/3/2 102/3/2 107/3/2
f 107/3/2 102/3/2 108/3/2
f 102/3/2 100/3/2 109/3/2
f 108/3/2 102/3/2 109/3/2
f 100/3/2 74/3/2 110/3/2
f 109/3/2 100/3/2 110/3/2
f 104/3/2 105/3/2 111/3/2
f 105/2/2 106/2/2 112/2/2
f 111/3/2 105/3/2 112/3/2
f 106/3/2 107/3/2 113/3/2
f 112/2/2 106/2/2 113/2/2
f 113/3/2 107/3/2 114/3/2
f 107/2/2 108/2/2 115/2/2
f 114/3/2 107/3/2 115/3/2
f 108/3/2 109/3/2 116/3/2
f 115/2/2 108/2/2 116/2/2
f 109/2/2 110/2/2 117/2/2
f 116/3/2 109/3/2 117/3/2
f 117/2/2 110/2/2 118/2/2
f 104/3/2 111/3/2 119/3/2
f 111/2/2 112/2/2 119/2/2
f 113/3/2 114/3/2 120/3/2
f 119/2/2 112/2/2 120/2/2
f 112/3/2 113/3/2 120/3/2
f 114/2/2 115/2/2 121/2/2
f 120/3/2 114/3/2 121/3/2
f 117/3/2 118/3/2 122/3/2
f 121/2/2 115/2/2 122/2/2
f 115/3/2 116/3/2 122/3/2
f 116/3/2 117/3/2 122/3/2
f 118/2/2 110/2/2 123/2/2
f 122/3/2 118/3/2 123/3/2
f 110/3/2 74/3/2 124/3/2
f 123/2/2 110/2/2 124/2/2
f 104/3/2 119/3/2 125/3/2
f 119/3/2 120/3/2 125/3/2
f 123/3/2 124/3/2 125/3/2
f 120/3/2 121/3/2 125/3/2
f 121/3/2 122/3/2 125/3/2
f 122/3/2 123/3/2 125/3/2
f 103/4/2 104/4/2 125/4/2
f 74/4/2 69/4/2 126/4/2
f 125/3/2 124/3/2 126/3/2
f 124/3/2 74/3/2 126/3/2
f 103/4/2 125/4/2 127/4/2
f 125/4/2 126/4/2 127/4/2
f 126/4/2 69/4/2 128/4/2
f 127/4/2 126/4/2 128/4/2
f 132/1/3 130/1/3 129/1/3
f 133/4/3 131/4/3 130/4/3
f 133/1/3 130/1/3 132/1/3
f 134/4/3 131/4/3 133/4/3
f 135/4/4 136/4/4 137/4/4
f 137/4/4 136/4/4 138/4/4
f 141/1/5 140/1/5 139/1/5
f 142/1/5 140/1/5 141/1/5
f 143/4/5 142/4/5 141/4/5
f 144/4/5 142/4/5 143/4/5
f 145/1/5 144/1/5 143/1/5
f 146/1/5 144/1/5 145/1/5
f 147/4/5 146/4/5 145/4/5
f 148/4/5 146/4/5 147/4/5
f 149/4/6 150/4/6 151/4/6
f 151/4/6 150/4/6 152/4/6
