# MagicaVoxel @ Ephtracy

# group
o 

# material
mtllib Corner Cafe-10.mtl
usemtl palette

# normals
vn -1 0 0
vn 1 0 0
vn 0 0 1
vn 0 0 -1
vn 0 -1 0
vn 0 1 0

# texcoords
vt 0.466797 0.5
vt 0.494141 0.5
vt 0.498047 0.5
vt 0.529297 0.5
vt 0.552734 0.5
vt 0.556641 0.5
vt 0.560547 0.5
vt 0.583984 0.5
vt 0.615234 0.5
vt 0.654297 0.5
vt 0.685547 0.5
vt 0.689453 0.5

# verts
v -0.3 0 1
v -0.3 0 -1
v -0.3 0.1 1
v -0.3 0.1 -1
v -0.3 0.2 1
v -0.3 0.2 -1
v -0.3 0.3 0.9
v -0.3 0.3 -0.9
v -0.3 0.6 1
v -0.3 0.6 0.9
v -0.3 0.6 -0.9
v -0.3 0.6 -1
v -0.1 0.3 0.8
v -0.1 0.3 0.7
v -0.1 0.3 0.4
v -0.1 0.3 -0.1
v -0.1 0.3 -0.2
v -0.1 0.3 -0.3
v -0.1 0.4 0.8
v -0.1 0.4 0.4
v -0.1 0.4 -0.1
v -0.1 0.4 -0.2
v -0.1 0.4 -0.3
v -0.1 0.5 0.8
v -0.1 0.5 0.4
v 0.2 0.3 0.9
v 0.2 0.3 -0.9
v 0.2 0.5 0.9
v 0.2 0.5 -0.9
v -0.2 0.3 0.9
v -0.2 0.3 0.7
v -0.2 0.3 0.3
v -0.2 0.3 0
v -0.2 0.3 -0.3
v -0.2 0.3 -0.5
v -0.2 0.3 -0.8
v -0.2 0.3 -0.9
v -0.2 0.4 0.3
v -0.2 0.4 0.2
v -0.2 0.4 0
v -0.2 0.4 -0.5
v -0.2 0.4 -0.8
v -0.2 0.5 0.9
v -0.2 0.5 -0.5
v -0.2 0.5 -0.8
v -0.2 0.5 -0.9
v 0 0.3 0.3
v 0 0.3 0.2
v 0 0.3 0
v 0 0.4 0.3
v 0 0.4 0.2
v 0 0.4 0
v 0.1 0.3 0.8
v 0.1 0.3 0.4
v 0.1 0.3 -0.1
v 0.1 0.3 -0.2
v 0.1 0.3 -0.3
v 0.1 0.3 -0.5
v 0.1 0.3 -0.8
v 0.1 0.4 0.8
v 0.1 0.4 0.4
v 0.1 0.4 -0.1
v 0.1 0.4 -0.2
v 0.1 0.4 -0.3
v 0.1 0.4 -0.5
v 0.1 0.4 -0.6
v 0.1 0.4 -0.7
v 0.1 0.4 -0.8
v 0.1 0.5 0.8
v 0.1 0.5 0.4
v 0.1 0.5 -0.5
v 0.1 0.5 -0.6
v 0.1 0.5 -0.7
v 0.1 0.5 -0.8
v 0.3 0 1
v 0.3 0 -1
v 0.3 0.1 1
v 0.3 0.1 -1
v 0.3 0.2 1
v 0.3 0.2 -1
v 0.3 0.6 1
v 0.3 0.6 -1
v -0.3 0 1
v -0.3 0.1 1
v -0.3 0.2 1
v -0.3 0.6 1
v 0.3 0 1
v 0.3 0.1 1
v 0.3 0.2 1
v 0.3 0.6 1
v -0.1 0.3 0.8
v -0.1 0.4 0.8
v -0.1 0.5 0.8
v 0.1 0.3 0.8
v 0.1 0.4 0.8
v 0.1 0.5 0.8
v -0.2 0.3 0.3
v -0.2 0.4 0.3
v -0.1 0.3 0.3
v -0.1 0.4 0.3
v 0 0.3 0.3
v 0 0.4 0.3
v -0.1 0.3 -0.1
v -0.1 0.4 -0.1
v 0 0.3 -0.1
v 0 0.4 -0.1
v 0.1 0.3 -0.1
v 0.1 0.4 -0.1
v -0.2 0.3 -0.5
v -0.2 0.4 -0.5
v -0.2 0.5 -0.5
v -0.1 0.4 -0.5
v -0.1 0.5 -0.5
v 0 0.4 -0.5
v 0 0.5 -0.5
v 0.1 0.3 -0.5
v 0.1 0.4 -0.5
v 0.1 0.5 -0.5
v -0.2 0.3 -0.9
v -0.2 0.5 -0.9
v 0.2 0.3 -0.9
v 0.2 0.5 -0.9
v -0.2 0.3 0.9
v -0.2 0.5 0.9
v 0.2 0.3 0.9
v 0.2 0.5 0.9
v -0.1 0.3 0.4
v -0.1 0.4 0.4
v -0.1 0.5 0.4
v 0.1 0.3 0.4
v 0.1 0.4 0.4
v 0.1 0.5 0.4
v -0.2 0.3 0
v -0.2 0.4 0
v -0.1 0.3 0
v -0.1 0.4 0
v 0 0.3 0
v 0 0.4 0
v -0.1 0.3 -0.3
v -0.1 0.4 -0.3
v 0 0.3 -0.3
v 0 0.4 -0.3
v 0.1 0.3 -0.3
v 0.1 0.4 -0.3
v -0.2 0.3 -0.8
v -0.2 0.4 -0.8
v -0.2 0.5 -0.8
v -0.1 0.4 -0.8
v -0.1 0.5 -0.8
v 0 0.4 -0.8
v 0 0.5 -0.8
v 0.1 0.3 -0.8
v 0.1 0.4 -0.8
v 0.1 0.5 -0.8
v -0.3 0 -1
v -0.3 0.1 -1
v -0.3 0.2 -1
v -0.3 0.6 -1
v 0.3 0 -1
v 0.3 0.1 -1
v 0.3 0.2 -1
v 0.3 0.6 -1
v -0.3 0 1
v 0.3 0 1
v -0.3 0 -1
v 0.3 0 -1
v -0.2 0.5 0.9
v 0.2 0.5 0.9
v -0.1 0.5 0.8
v 0.1 0.5 0.8
v -0.1 0.5 0.4
v 0.1 0.5 0.4
v -0.2 0.5 -0.5
v -0.1 0.5 -0.5
v 0 0.5 -0.5
v 0.1 0.5 -0.5
v 0.1 0.5 -0.6
v 0.1 0.5 -0.7
v -0.2 0.5 -0.8
v -0.1 0.5 -0.8
v 0 0.5 -0.8
v 0.1 0.5 -0.8
v -0.2 0.5 -0.9
v 0.2 0.5 -0.9
v -0.2 0.3 0.9
v 0.2 0.3 0.9
v -0.1 0.3 0.8
v 0.1 0.3 0.8
v -0.2 0.3 0.7
v -0.1 0.3 0.7
v -0.1 0.3 0.4
v 0.1 0.3 0.4
v -0.2 0.3 0.3
v -0.1 0.3 0.3
v 0 0.3 0.3
v 0 0.3 0.2
v -0.2 0.3 0
v -0.1 0.3 0
v 0 0.3 0
v -0.1 0.3 -0.1
v 0 0.3 -0.1
v 0.1 0.3 -0.1
v -0.1 0.3 -0.2
v 0.1 0.3 -0.2
v -0.2 0.3 -0.3
v -0.1 0.3 -0.3
v 0 0.3 -0.3
v 0.1 0.3 -0.3
v -0.1 0.3 -0.4
v 0 0.3 -0.4
v -0.2 0.3 -0.5
v 0.1 0.3 -0.5
v -0.2 0.3 -0.8
v 0.1 0.3 -0.8
v -0.2 0.3 -0.9
v 0.2 0.3 -0.9
v -0.2 0.4 0.3
v -0.1 0.4 0.3
v 0 0.4 0.3
v -0.2 0.4 0.2
v -0.1 0.4 0.2
v 0 0.4 0.2
v -0.2 0.4 0
v -0.1 0.4 0
v 0 0.4 0
v -0.1 0.4 -0.1
v 0 0.4 -0.1
v 0.1 0.4 -0.1
v -0.1 0.4 -0.2
v 0 0.4 -0.2
v 0.1 0.4 -0.2
v -0.1 0.4 -0.3
v 0 0.4 -0.3
v 0.1 0.4 -0.3
v -0.3 0.6 1
v 0.3 0.6 1
v -0.3 0.6 0.9
v 0.2 0.6 0.9
v -0.3 0.6 -0.9
v 0.2 0.6 -0.9
v -0.3 0.6 -1
v 0.3 0.6 -1

# faces
f 3/8/1 2/8/1 1/8/1
f 4/8/1 2/8/1 3/8/1
f 5/10/1 4/10/1 3/10/1
f 6/10/1 4/10/1 5/10/1
f 7/11/1 6/11/1 5/11/1
f 8/11/1 6/11/1 7/11/1
f 9/11/1 7/11/1 5/11/1
f 10/12/1 8/12/1 7/12/1
f 10/11/1 7/11/1 9/11/1
f 11/11/1 6/11/1 8/11/1
f 11/12/1 8/12/1 10/12/1
f 12/11/1 6/11/1 11/11/1
f 19/3/1 14/3/1 13/3/1
f 19/3/1 15/3/1 14/3/1
f 20/3/1 15/3/1 19/3/1
f 21/4/1 17/4/1 16/4/1
f 22/2/1 18/2/1 17/2/1
f 22/4/1 17/4/1 21/4/1
f 23/2/1 18/2/1 22/2/1
f 24/2/1 20/2/1 19/2/1
f 25/2/1 20/2/1 24/2/1
f 28/11/1 27/11/1 26/11/1
f 29/11/1 27/11/1 28/11/1
f 30/12/2 31/12/2 38/12/2
f 31/12/2 32/12/2 38/12/2
f 34/12/2 35/12/2 40/12/2
f 33/12/2 34/12/2 40/12/2
f 40/12/2 35/12/2 41/12/2
f 36/12/2 37/12/2 42/12/2
f 40/12/2 41/12/2 43/12/2
f 38/12/2 39/12/2 43/12/2
f 30/12/2 38/12/2 43/12/2
f 39/12/2 40/12/2 43/12/2
f 43/12/2 41/12/2 44/12/2
f 42/12/2 37/12/2 45/12/2
f 45/12/2 37/12/2 46/12/2
f 47/7/2 48/7/2 50/7/2
f 48/1/2 49/1/2 51/1/2
f 50/7/2 48/7/2 51/7/2
f 51/1/2 49/1/2 52/1/2
f 53/3/2 54/3/2 60/3/2
f 60/3/2 54/3/2 61/3/2
f 55/2/2 56/2/2 62/2/2
f 56/4/2 57/4/2 63/4/2
f 62/2/2 56/2/2 63/2/2
f 63/4/2 57/4/2 64/4/2
f 58/7/2 59/7/2 65/7/2
f 65/7/2 59/7/2 66/7/2
f 66/7/2 59/7/2 67/7/2
f 67/7/2 59/7/2 68/7/2
f 60/2/2 61/2/2 69/2/2
f 69/2/2 61/2/2 70/2/2
f 65/6/2 66/6/2 71/6/2
f 66/7/2 67/7/2 72/7/2
f 71/6/2 66/6/2 72/6/2
f 67/5/2 68/5/2 73/5/2
f 72/7/2 67/7/2 73/7/2
f 73/5/2 68/5/2 74/5/2
f 75/8/2 76/8/2 77/8/2
f 77/8/2 76/8/2 78/8/2
f 77/10/2 78/10/2 79/10/2
f 79/10/2 78/10/2 80/10/2
f 79/11/2 80/11/2 81/11/2
f 81/11/2 80/11/2 82/11/2
f 87/8/3 84/8/3 83/8/3
f 88/10/3 85/10/3 84/10/3
f 88/8/3 84/8/3 87/8/3
f 89/11/3 86/11/3 85/11/3
f 89/10/3 85/10/3 88/10/3
f 90/11/3 86/11/3 89/11/3
f 94/3/3 92/3/3 91/3/3
f 95/2/3 93/2/3 92/2/3
f 95/3/3 92/3/3 94/3/3
f 96/2/3 93/2/3 95/2/3
f 99/1/3 98/1/3 97/1/3
f 100/1/3 98/1/3 99/1/3
f 101/7/3 100/7/3 99/7/3
f 102/7/3 100/7/3 101/7/3
f 105/4/3 104/4/3 103/4/3
f 106/4/3 104/4/3 105/4/3
f 107/2/3 106/2/3 105/2/3
f 108/2/3 106/2/3 107/2/3
f 112/7/3 110/7/3 109/7/3
f 112/6/3 111/6/3 110/6/3
f 113/6/3 111/6/3 112/6/3
f 114/7/3 112/7/3 109/7/3
f 114/7/3 113/7/3 112/7/3
f 115/7/3 113/7/3 114/7/3
f 116/7/3 114/7/3 109/7/3
f 117/6/3 115/6/3 114/6/3
f 117/7/3 114/7/3 116/7/3
f 118/6/3 115/6/3 117/6/3
f 121/11/3 120/11/3 119/11/3
f 122/11/3 120/11/3 121/11/3
f 123/11/4 124/11/4 125/11/4
f 125/11/4 124/11/4 126/11/4
f 127/3/4 128/3/4 130/3/4
f 128/2/4 129/2/4 131/2/4
f 130/3/4 128/3/4 131/3/4
f 131/2/4 129/2/4 132/2/4
f 133/7/4 134/7/4 135/7/4
f 135/7/4 134/7/4 136/7/4
f 135/1/4 136/1/4 137/1/4
f 137/1/4 136/1/4 138/1/4
f 139/2/4 140/2/4 141/2/4
f 141/2/4 140/2/4 142/2/4
f 141/4/4 142/4/4 143/4/4
f 143/4/4 142/4/4 144/4/4
f 145/7/4 146/7/4 148/7/4
f 146/6/4 147/6/4 148/6/4
f 148/6/4 147/6/4 149/6/4
f 145/7/4 148/7/4 150/7/4
f 148/7/4 149/7/4 150/7/4
f 150/7/4 149/7/4 151/7/4
f 145/7/4 150/7/4 152/7/4
f 150/5/4 151/5/4 153/5/4
f 152/7/4 150/7/4 153/7/4
f 153/5/4 151/5/4 154/5/4
f 155/8/4 156/8/4 159/8/4
f 156/10/4 157/10/4 160/10/4
f 159/8/4 156/8/4 160/8/4
f 157/11/4 158/11/4 161/11/4
f 160/10/4 157/10/4 161/10/4
f 161/11/4 158/11/4 162/11/4
f 165/8/5 164/8/5 163/8/5
f 166/8/5 164/8/5 165/8/5
f 169/12/5 168/12/5 167/12/5
f 170/12/5 168/12/5 169/12/5
f 171/12/5 169/12/5 167/12/5
f 172/12/5 168/12/5 170/12/5
f 173/12/5 171/12/5 167/12/5
f 173/12/5 172/12/5 171/12/5
f 174/12/5 172/12/5 173/12/5
f 175/12/5 172/12/5 174/12/5
f 176/12/5 168/12/5 172/12/5
f 176/12/5 172/12/5 175/12/5
f 177/12/5 168/12/5 176/12/5
f 178/12/5 168/12/5 177/12/5
f 182/12/5 168/12/5 178/12/5
f 183/12/5 181/12/5 180/12/5
f 183/12/5 182/12/5 181/12/5
f 183/12/5 180/12/5 179/12/5
f 184/12/5 168/12/5 182/12/5
f 184/12/5 182/12/5 183/12/5
f 185/11/6 186/11/6 187/11/6
f 187/11/6 186/11/6 188/11/6
f 185/11/6 187/11/6 189/11/6
f 189/11/6 187/11/6 190/11/6
f 189/9/6 190/9/6 191/9/6
f 188/11/6 186/11/6 192/11/6
f 189/9/6 191/9/6 193/9/6
f 191/9/6 192/9/6 193/9/6
f 193/9/6 192/9/6 194/9/6
f 194/9/6 192/9/6 195/9/6
f 195/9/6 192/9/6 196/9/6
f 196/9/6 192/9/6 199/9/6
f 197/9/6 198/9/6 200/9/6
f 198/9/6 199/9/6 200/9/6
f 199/9/6 192/9/6 201/9/6
f 200/9/6 199/9/6 201/9/6
f 192/11/6 186/11/6 202/11/6
f 201/9/6 192/9/6 202/9/6
f 197/9/6 200/9/6 203/9/6
f 202/11/6 186/11/6 204/11/6
f 197/9/6 203/9/6 205/9/6
f 205/9/6 203/9/6 206/9/6
f 204/11/6 186/11/6 208/11/6
f 206/9/6 207/9/6 209/9/6
f 205/11/6 206/11/6 209/11/6
f 207/11/6 208/11/6 210/11/6
f 209/9/6 207/9/6 210/9/6
f 205/11/6 209/11/6 211/11/6
f 209/11/6 210/11/6 211/11/6
f 210/11/6 208/11/6 212/11/6
f 211/11/6 210/11/6 212/11/6
f 208/11/6 186/11/6 212/11/6
f 212/11/6 186/11/6 214/11/6
f 213/11/6 214/11/6 215/11/6
f 214/11/6 186/11/6 216/11/6
f 215/11/6 214/11/6 216/11/6
f 217/1/6 218/1/6 220/1/6
f 218/7/6 219/7/6 221/7/6
f 220/1/6 218/1/6 221/1/6
f 221/7/6 219/7/6 222/7/6
f 220/7/6 221/7/6 223/7/6
f 221/1/6 222/1/6 224/1/6
f 223/7/6 221/7/6 224/7/6
f 224/1/6 222/1/6 225/1/6
f 226/4/6 227/4/6 229/4/6
f 227/2/6 228/2/6 230/2/6
f 229/4/6 227/4/6 230/4/6
f 230/2/6 228/2/6 231/2/6
f 229/2/6 230/2/6 232/2/6
f 230/4/6 231/4/6 233/4/6
f 232/2/6 230/2/6 233/2/6
f 233/4/6 231/4/6 234/4/6
f 235/11/6 236/11/6 237/11/6
f 237/11/6 236/11/6 238/11/6
f 237/12/6 238/12/6 239/12/6
f 238/11/6 236/11/6 240/11/6
f 239/12/6 238/12/6 240/12/6
f 239/11/6 240/11/6 241/11/6
f 240/11/6 236/11/6 242/11/6
f 241/11/6 240/11/6 242/11/6
