# MagicaVoxel @ Ephtracy

# group
o 

# material
mtllib Corner Cafe-1.mtl
usemtl palette

# normals
vn -1 0 0
vn 1 0 0
vn 0 0 1
vn 0 0 -1
vn 0 -1 0
vn 0 1 0

# texcoords
vt 0.583984 0.5
vt 0.923828 0.5
vt 0.955078 0.5
vt 0.986328 0.5

# verts
v 0 0 1
v 0 0 -0.1
v 0 0 -0.9
v 0 0 -1
v 0 0.1 1
v 0 0.1 0.9
v 0 0.1 -0.1
v 0 0.1 -0.9
v 0 0.2 0.5
v 0 0.2 0.4
v 0 0.2 0.3
v 0 0.2 0
v 0 0.2 -0.1
v 0 0.2 -0.2
v 0 0.2 -0.3
v 0 0.2 -0.4
v 0 0.2 -0.5
v 0 0.2 -0.6
v 0 0.3 1
v 0 0.3 0.9
v 0 0.3 0.8
v 0 0.3 0.6
v 0 0.3 0.5
v 0 0.3 0.4
v 0 0.3 0.3
v 0 0.3 0.2
v 0 0.3 -0.1
v 0 0.3 -0.2
v 0 0.3 -0.3
v 0 0.3 -0.4
v 0 0.3 -0.5
v 0 0.3 -0.6
v 0 0.3 -0.8
v 0 0.3 -0.9
v 0 0.3 -1
v 0 0.4 0.9
v 0 0.4 0.8
v 0 0.4 0.7
v 0 0.4 0.6
v 0 0.4 0.5
v 0 0.4 0.4
v 0 0.4 0.3
v 0 0.4 0.2
v 0 0.4 0
v 0 0.4 -0.4
v 0 0.4 -0.5
v 0 0.4 -0.7
v 0 0.4 -0.8
v 0 0.4 -0.9
v 0 0.5 0.8
v 0 0.5 0.7
v 0 0.5 0.5
v 0 0.5 -0.7
v 0 0.5 -0.8
v 0 0.6 0.7
v 0 0.6 0.5
v 0 0.6 -0.7
v 0.1 0 1
v 0.1 0 -0.1
v 0.1 0 -0.9
v 0.1 0 -1
v 0.1 0.1 1
v 0.1 0.1 0.9
v 0.1 0.1 -0.1
v 0.1 0.1 -0.9
v 0.1 0.2 0.5
v 0.1 0.2 0.4
v 0.1 0.2 0.3
v 0.1 0.2 0
v 0.1 0.2 -0.1
v 0.1 0.2 -0.2
v 0.1 0.2 -0.3
v 0.1 0.2 -0.4
v 0.1 0.2 -0.5
v 0.1 0.2 -0.6
v 0.1 0.3 1
v 0.1 0.3 0.9
v 0.1 0.3 0.8
v 0.1 0.3 0.6
v 0.1 0.3 0.5
v 0.1 0.3 0.4
v 0.1 0.3 0.3
v 0.1 0.3 0.2
v 0.1 0.3 -0.1
v 0.1 0.3 -0.2
v 0.1 0.3 -0.3
v 0.1 0.3 -0.4
v 0.1 0.3 -0.5
v 0.1 0.3 -0.6
v 0.1 0.3 -0.8
v 0.1 0.3 -0.9
v 0.1 0.3 -1
v 0.1 0.4 0.9
v 0.1 0.4 0.8
v 0.1 0.4 0.7
v 0.1 0.4 0.6
v 0.1 0.4 0.5
v 0.1 0.4 0.4
v 0.1 0.4 0.3
v 0.1 0.4 0.2
v 0.1 0.4 0
v 0.1 0.4 -0.4
v 0.1 0.4 -0.5
v 0.1 0.4 -0.7
v 0.1 0.4 -0.8
v 0.1 0.4 -0.9
v 0.1 0.5 0.8
v 0.1 0.5 0.7
v 0.1 0.5 0.5
v 0.1 0.5 -0.7
v 0.1 0.5 -0.8
v 0.1 0.6 0.7
v 0.1 0.6 0.5
v 0.1 0.6 -0.7
v 0 0 1
v 0 0.1 1
v 0 0.3 1
v 0.1 0 1
v 0.1 0.1 1
v 0.1 0.3 1
v 0 0.3 0.9
v 0 0.4 0.9
v 0.1 0.3 0.9
v 0.1 0.4 0.9
v 0 0.4 0.8
v 0 0.5 0.8
v 0.1 0.4 0.8
v 0.1 0.5 0.8
v 0 0.5 0.7
v 0 0.6 0.7
v 0.1 0.5 0.7
v 0.1 0.6 0.7
v 0 0.5 -0.7
v 0 0.6 -0.7
v 0.1 0.5 -0.7
v 0.1 0.6 -0.7
v 0 0.4 -0.8
v 0 0.5 -0.8
v 0.1 0.4 -0.8
v 0.1 0.5 -0.8
v 0 0.3 -0.9
v 0 0.4 -0.9
v 0.1 0.3 -0.9
v 0.1 0.4 -0.9
v 0 0 -1
v 0 0.3 -1
v 0.1 0 -1
v 0.1 0.3 -1
v 0 0 1
v 0.1 0 1
v 0 0 -0.1
v 0.1 0 -0.1
v 0 0 -0.9
v 0.1 0 -0.9
v 0 0 -1
v 0.1 0 -1
v 0 0.3 1
v 0.1 0.3 1
v 0 0.3 0.9
v 0.1 0.3 0.9
v 0 0.3 -0.9
v 0.1 0.3 -0.9
v 0 0.3 -1
v 0.1 0.3 -1
v 0 0.4 0.9
v 0.1 0.4 0.9
v 0 0.4 0.8
v 0.1 0.4 0.8
v 0 0.4 -0.8
v 0.1 0.4 -0.8
v 0 0.4 -0.9
v 0.1 0.4 -0.9
v 0 0.5 0.8
v 0.1 0.5 0.8
v 0 0.5 0.7
v 0.1 0.5 0.7
v 0 0.5 -0.7
v 0.1 0.5 -0.7
v 0 0.5 -0.8
v 0.1 0.5 -0.8
v 0 0.6 0.7
v 0.1 0.6 0.7
v 0 0.6 0.5
v 0.1 0.6 0.5
v 0 0.6 -0.7
v 0.1 0.6 -0.7

# faces
f 5/3/1 2/3/1 1/3/1
f 6/3/1 2/3/1 5/3/1
f 7/1/1 3/1/1 2/1/1
f 7/3/1 2/3/1 6/3/1
f 8/3/1 4/3/1 3/3/1
f 8/1/1 3/1/1 7/1/1
f 9/4/1 7/4/1 6/4/1
f 9/4/1 8/4/1 7/4/1
f 10/4/1 8/4/1 9/4/1
f 11/4/1 8/4/1 10/4/1
f 12/4/1 8/4/1 11/4/1
f 13/4/1 8/4/1 12/4/1
f 14/4/1 8/4/1 13/4/1
f 15/4/1 8/4/1 14/4/1
f 16/4/1 8/4/1 15/4/1
f 17/4/1 8/4/1 16/4/1
f 18/4/1 8/4/1 17/4/1
f 19/1/1 6/1/1 5/1/1
f 20/4/1 9/4/1 6/4/1
f 20/1/1 6/1/1 19/1/1
f 21/4/1 9/4/1 20/4/1
f 22/4/1 9/4/1 21/4/1
f 23/2/1 10/2/1 9/2/1
f 23/4/1 9/4/1 22/4/1
f 24/4/1 11/4/1 10/4/1
f 24/2/1 10/2/1 23/2/1
f 25/2/1 12/2/1 11/2/1
f 25/4/1 11/4/1 24/4/1
f 26/2/1 12/2/1 25/2/1
f 27/4/1 13/4/1 12/4/1
f 27/2/1 14/2/1 13/2/1
f 28/4/1 15/4/1 14/4/1
f 28/2/1 14/2/1 27/2/1
f 29/2/1 16/2/1 15/2/1
f 29/4/1 15/4/1 28/4/1
f 30/4/1 17/4/1 16/4/1
f 30/2/1 16/2/1 29/2/1
f 31/2/1 18/2/1 17/2/1
f 31/4/1 17/4/1 30/4/1
f 32/4/1 8/4/1 18/4/1
f 32/2/1 18/2/1 31/2/1
f 33/4/1 8/4/1 32/4/1
f 34/3/1 4/3/1 8/3/1
f 34/4/1 8/4/1 33/4/1
f 35/3/1 4/3/1 34/3/1
f 36/1/1 21/1/1 20/1/1
f 37/4/1 22/4/1 21/4/1
f 37/1/1 21/1/1 36/1/1
f 38/4/1 22/4/1 37/4/1
f 39/2/1 23/2/1 22/2/1
f 39/4/1 22/4/1 38/4/1
f 40/4/1 24/4/1 23/4/1
f 40/2/1 23/2/1 39/2/1
f 41/2/1 25/2/1 24/2/1
f 41/4/1 24/4/1 40/4/1
f 42/4/1 26/4/1 25/4/1
f 42/2/1 25/2/1 41/2/1
f 43/2/1 12/2/1 26/2/1
f 43/4/1 26/4/1 42/4/1
f 44/4/1 27/4/1 12/4/1
f 44/2/1 12/2/1 43/2/1
f 44/4/1 28/4/1 27/4/1
f 44/4/1 29/4/1 28/4/1
f 44/4/1 30/4/1 29/4/1
f 45/2/1 31/2/1 30/2/1
f 45/4/1 30/4/1 44/4/1
f 46/4/1 33/4/1 32/4/1
f 46/2/1 31/2/1 45/2/1
f 46/4/1 32/4/1 31/4/1
f 47/4/1 33/4/1 46/4/1
f 48/3/1 34/3/1 33/3/1
f 48/4/1 33/4/1 47/4/1
f 49/3/1 34/3/1 48/3/1
f 50/1/1 38/1/1 37/1/1
f 51/4/1 45/4/1 44/4/1
f 51/1/1 38/1/1 50/1/1
f 51/4/1 44/4/1 43/4/1
f 51/4/1 46/4/1 45/4/1
f 51/4/1 39/4/1 38/4/1
f 51/4/1 40/4/1 39/4/1
f 51/4/1 47/4/1 46/4/1
f 51/4/1 42/4/1 41/4/1
f 51/4/1 43/4/1 42/4/1
f 51/4/1 41/4/1 40/4/1
f 52/4/1 47/4/1 51/4/1
f 53/3/1 48/3/1 47/3/1
f 53/4/1 47/4/1 52/4/1
f 54/3/1 48/3/1 53/3/1
f 55/1/1 52/1/1 51/1/1
f 56/3/1 53/3/1 52/3/1
f 56/1/1 52/1/1 55/1/1
f 57/3/1 53/3/1 56/3/1
f 58/3/2 59/3/2 62/3/2
f 62/3/2 59/3/2 63/3/2
f 59/1/2 60/1/2 64/1/2
f 63/3/2 59/3/2 64/3/2
f 60/3/2 61/3/2 65/3/2
f 64/1/2 60/1/2 65/1/2
f 63/4/2 64/4/2 66/4/2
f 64/4/2 65/4/2 66/4/2
f 66/4/2 65/4/2 67/4/2
f 67/4/2 65/4/2 68/4/2
f 68/4/2 65/4/2 69/4/2
f 69/4/2 65/4/2 70/4/2
f 70/4/2 65/4/2 71/4/2
f 71/4/2 65/4/2 72/4/2
f 72/4/2 65/4/2 73/4/2
f 73/4/2 65/4/2 74/4/2
f 74/4/2 65/4/2 75/4/2
f 62/1/2 63/1/2 76/1/2
f 63/4/2 66/4/2 77/4/2
f 76/1/2 63/1/2 77/1/2
f 77/4/2 66/4/2 78/4/2
f 78/4/2 66/4/2 79/4/2
f 66/2/2 67/2/2 80/2/2
f 79/4/2 66/4/2 80/4/2
f 67/4/2 68/4/2 81/4/2
f 80/2/2 67/2/2 81/2/2
f 68/2/2 69/2/2 82/2/2
f 81/4/2 68/4/2 82/4/2
f 82/2/2 69/2/2 83/2/2
f 69/4/2 70/4/2 84/4/2
f 70/2/2 71/2/2 84/2/2
f 71/4/2 72/4/2 85/4/2
f 84/2/2 71/2/2 85/2/2
f 72/2/2 73/2/2 86/2/2
f 85/4/2 72/4/2 86/4/2
f 73/4/2 74/4/2 87/4/2
f 86/2/2 73/2/2 87/2/2
f 74/2/2 75/2/2 88/2/2
f 87/4/2 74/4/2 88/4/2
f 75/4/2 65/4/2 89/4/2
f 88/2/2 75/2/2 89/2/2
f 89/4/2 65/4/2 90/4/2
f 65/3/2 61/3/2 91/3/2
f 90/4/2 65/4/2 91/4/2
f 91/3/2 61/3/2 92/3/2
f 77/1/2 78/1/2 93/1/2
f 78/4/2 79/4/2 94/4/2
f 93/1/2 78/1/2 94/1/2
f 94/4/2 79/4/2 95/4/2
f 79/2/2 80/2/2 96/2/2
f 95/4/2 79/4/2 96/4/2
f 80/4/2 81/4/2 97/4/2
f 96/2/2 80/2/2 97/2/2
f 81/2/2 82/2/2 98/2/2
f 97/4/2 81/4/2 98/4/2
f 82/4/2 83/4/2 99/4/2
f 98/2/2 82/2/2 99/2/2
f 83/2/2 69/2/2 100/2/2
f 99/4/2 83/4/2 100/4/2
f 69/4/2 84/4/2 101/4/2
f 100/2/2 69/2/2 101/2/2
f 84/4/2 85/4/2 101/4/2
f 85/4/2 86/4/2 101/4/2
f 86/4/2 87/4/2 101/4/2
f 87/2/2 88/2/2 102/2/2
f 101/4/2 87/4/2 102/4/2
f 89/4/2 90/4/2 103/4/2
f 102/2/2 88/2/2 103/2/2
f 88/4/2 89/4/2 103/4/2
f 103/4/2 90/4/2 104/4/2
f 90/3/2 91/3/2 105/3/2
f 104/4/2 90/4/2 105/4/2
f 105/3/2 91/3/2 106/3/2
f 94/1/2 95/1/2 107/1/2
f 101/4/2 102/4/2 108/4/2
f 107/1/2 95/1/2 108/1/2
f 100/4/2 101/4/2 108/4/2
f 102/4/2 103/4/2 108/4/2
f 95/4/2 96/4/2 108/4/2
f 96/4/2 97/4/2 108/4/2
f 103/4/2 104/4/2 108/4/2
f 98/4/2 99/4/2 108/4/2
f 99/4/2 100/4/2 108/4/2
f 97/4/2 98/4/2 108/4/2
f 108/4/2 104/4/2 109/4/2
f 104/3/2 105/3/2 110/3/2
f 109/4/2 104/4/2 110/4/2
f 110/3/2 105/3/2 111/3/2
f 108/1/2 109/1/2 112/1/2
f 109/3/2 110/3/2 113/3/2
f 112/1/2 109/1/2 113/1/2
f 113/3/2 110/3/2 114/3/2
f 118/3/3 116/3/3 115/3/3
f 119/1/3 117/1/3 116/1/3
f 119/3/3 116/3/3 118/3/3
f 120/1/3 117/1/3 119/1/3
f 123/1/3 122/1/3 121/1/3
f 124/1/3 122/1/3 123/1/3
f 127/1/3 126/1/3 125/1/3
f 128/1/3 126/1/3 127/1/3
f 131/1/3 130/1/3 129/1/3
f 132/1/3 130/1/3 131/1/3
f 133/3/4 134/3/4 135/3/4
f 135/3/4 134/3/4 136/3/4
f 137/3/4 138/3/4 139/3/4
f 139/3/4 138/3/4 140/3/4
f 141/3/4 142/3/4 143/3/4
f 143/3/4 142/3/4 144/3/4
f 145/3/4 146/3/4 147/3/4
f 147/3/4 146/3/4 148/3/4
f 151/3/5 150/3/5 149/3/5
f 152/3/5 150/3/5 151/3/5
f 153/1/5 152/1/5 151/1/5
f 154/1/5 152/1/5 153/1/5
f 155/3/5 154/3/5 153/3/5
f 156/3/5 154/3/5 155/3/5
f 157/1/6 158/1/6 159/1/6
f 159/1/6 158/1/6 160/1/6
f 161/3/6 162/3/6 163/3/6
f 163/3/6 162/3/6 164/3/6
f 165/1/6 166/1/6 167/1/6
f 167/1/6 166/1/6 168/1/6
f 169/3/6 170/3/6 171/3/6
f 171/3/6 170/3/6 172/3/6
f 173/1/6 174/1/6 175/1/6
f 175/1/6 174/1/6 176/1/6
f 177/3/6 178/3/6 179/3/6
f 179/3/6 178/3/6 180/3/6
f 181/1/6 182/1/6 183/1/6
f 183/1/6 182/1/6 184/1/6
f 183/3/6 184/3/6 185/3/6
f 185/3/6 184/3/6 186/3/6
