# MagicaVoxel @ Ephtracy

# group
o 

# material
mtllib Corner Cafe-8.mtl
usemtl palette

# normals
vn -1 0 0
vn 1 0 0
vn 0 0 1
vn 0 0 -1
vn 0 -1 0
vn 0 1 0

# texcoords
vt 0.615234 0.5
vt 0.685547 0.5
vt 0.955078 0.5

# verts
v -0.3 0.2 0.3
v -0.3 0.2 -0.4
v -0.3 0.3 0.3
v -0.3 0.3 -0.4
v -0.2 0 0.2
v -0.2 0 0.1
v -0.2 0 -0.2
v -0.2 0 -0.3
v -0.2 0.2 0.2
v -0.2 0.2 0.1
v -0.2 0.2 -0.2
v -0.2 0.2 -0.3
v 0.2 0 0.2
v 0.2 0 0.1
v 0.2 0 -0.2
v 0.2 0 -0.3
v 0.2 0.2 0.2
v 0.2 0.2 0.1
v 0.2 0.2 -0.2
v 0.2 0.2 -0.3
v -0.1 0 0.2
v -0.1 0 0.1
v -0.1 0 -0.2
v -0.1 0 -0.3
v -0.1 0.2 0.2
v -0.1 0.2 0.1
v -0.1 0.2 -0.2
v -0.1 0.2 -0.3
v 0.3 0 0.2
v 0.3 0 0.1
v 0.3 0 -0.2
v 0.3 0 -0.3
v 0.3 0.2 0.2
v 0.3 0.2 0.1
v 0.3 0.2 -0.2
v 0.3 0.2 -0.3
v 0.4 0.2 0.3
v 0.4 0.2 -0.4
v 0.4 0.3 0.3
v 0.4 0.3 -0.4
v -0.3 0.2 0.3
v -0.3 0.3 0.3
v 0.4 0.2 0.3
v 0.4 0.3 0.3
v -0.2 0 0.2
v -0.2 0.2 0.2
v -0.1 0 0.2
v -0.1 0.2 0.2
v 0.2 0 0.2
v 0.2 0.2 0.2
v 0.3 0 0.2
v 0.3 0.2 0.2
v -0.2 0 -0.2
v -0.2 0.2 -0.2
v -0.1 0 -0.2
v -0.1 0.2 -0.2
v 0.2 0 -0.2
v 0.2 0.2 -0.2
v 0.3 0 -0.2
v 0.3 0.2 -0.2
v -0.2 0 0.1
v -0.2 0.2 0.1
v -0.1 0 0.1
v -0.1 0.2 0.1
v 0.2 0 0.1
v 0.2 0.2 0.1
v 0.3 0 0.1
v 0.3 0.2 0.1
v -0.2 0 -0.3
v -0.2 0.2 -0.3
v -0.1 0 -0.3
v -0.1 0.2 -0.3
v 0.2 0 -0.3
v 0.2 0.2 -0.3
v 0.3 0 -0.3
v 0.3 0.2 -0.3
v -0.3 0.2 -0.4
v -0.3 0.3 -0.4
v 0.4 0.2 -0.4
v 0.4 0.3 -0.4
v -0.2 0 0.2
v -0.1 0 0.2
v 0.2 0 0.2
v 0.3 0 0.2
v -0.2 0 0.1
v -0.1 0 0.1
v 0.2 0 0.1
v 0.3 0 0.1
v -0.2 0 -0.2
v -0.1 0 -0.2
v 0.2 0 -0.2
v 0.3 0 -0.2
v -0.2 0 -0.3
v -0.1 0 -0.3
v 0.2 0 -0.3
v 0.3 0 -0.3
v -0.3 0.2 0.3
v 0.4 0.2 0.3
v -0.2 0.2 0.2
v -0.1 0.2 0.2
v 0.2 0.2 0.2
v 0.3 0.2 0.2
v -0.2 0.2 0.1
v -0.1 0.2 0.1
v 0 0.2 0.1
v 0.1 0.2 0.1
v 0.2 0.2 0.1
v 0.3 0.2 0.1
v -0.1 0.2 0
v 0 0.2 0
v 0.1 0.2 0
v 0.2 0.2 0
v -0.1 0.2 -0.1
v 0 0.2 -0.1
v 0.1 0.2 -0.1
v 0.2 0.2 -0.1
v -0.2 0.2 -0.2
v -0.1 0.2 -0.2
v 0 0.2 -0.2
v 0.1 0.2 -0.2
v 0.2 0.2 -0.2
v 0.3 0.2 -0.2
v -0.2 0.2 -0.3
v -0.1 0.2 -0.3
v 0.2 0.2 -0.3
v 0.3 0.2 -0.3
v -0.3 0.2 -0.4
v 0.4 0.2 -0.4
v -0.3 0.3 0.3
v 0.4 0.3 0.3
v -0.1 0.3 0.2
v 0.2 0.3 0.2
v -0.2 0.3 0.1
v -0.1 0.3 0.1
v 0 0.3 0.1
v 0.1 0.3 0.1
v 0.2 0.3 0.1
v 0.3 0.3 0.1
v -0.1 0.3 0
v 0 0.3 0
v 0.1 0.3 0
v 0.2 0.3 0
v -0.1 0.3 -0.1
v 0 0.3 -0.1
v 0.1 0.3 -0.1
v 0.2 0.3 -0.1
v -0.2 0.3 -0.2
v -0.1 0.3 -0.2
v 0 0.3 -0.2
v 0.1 0.3 -0.2
v 0.2 0.3 -0.2
v 0.3 0.3 -0.2
v -0.1 0.3 -0.3
v 0.2 0.3 -0.3
v -0.3 0.3 -0.4
v 0.4 0.3 -0.4

# faces
f 3/2/1 2/2/1 1/2/1
f 4/2/1 2/2/1 3/2/1
f 9/3/1 6/3/1 5/3/1
f 10/3/1 6/3/1 9/3/1
f 11/3/1 8/3/1 7/3/1
f 12/3/1 8/3/1 11/3/1
f 17/3/1 14/3/1 13/3/1
f 18/3/1 14/3/1 17/3/1
f 19/3/1 16/3/1 15/3/1
f 20/3/1 16/3/1 19/3/1
f 21/3/2 22/3/2 25/3/2
f 25/3/2 22/3/2 26/3/2
f 23/3/2 24/3/2 27/3/2
f 27/3/2 24/3/2 28/3/2
f 29/3/2 30/3/2 33/3/2
f 33/3/2 30/3/2 34/3/2
f 31/3/2 32/3/2 35/3/2
f 35/3/2 32/3/2 36/3/2
f 37/2/2 38/2/2 39/2/2
f 39/2/2 38/2/2 40/2/2
f 43/2/3 42/2/3 41/2/3
f 44/2/3 42/2/3 43/2/3
f 47/3/3 46/3/3 45/3/3
f 48/3/3 46/3/3 47/3/3
f 51/3/3 50/3/3 49/3/3
f 52/3/3 50/3/3 51/3/3
f 55/3/3 54/3/3 53/3/3
f 56/3/3 54/3/3 55/3/3
f 59/3/3 58/3/3 57/3/3
f 60/3/3 58/3/3 59/3/3
f 61/3/4 62/3/4 63/3/4
f 63/3/4 62/3/4 64/3/4
f 65/3/4 66/3/4 67/3/4
f 67/3/4 66/3/4 68/3/4
f 69/3/4 70/3/4 71/3/4
f 71/3/4 70/3/4 72/3/4
f 73/3/4 74/3/4 75/3/4
f 75/3/4 74/3/4 76/3/4
f 77/2/4 78/2/4 79/2/4
f 79/2/4 78/2/4 80/2/4
f 85/3/5 82/3/5 81/3/5
f 86/3/5 82/3/5 85/3/5
f 87/3/5 84/3/5 83/3/5
f 88/3/5 84/3/5 87/3/5
f 93/3/5 90/3/5 89/3/5
f 94/3/5 90/3/5 93/3/5
f 95/3/5 92/3/5 91/3/5
f 96/3/5 92/3/5 95/3/5
f 99/2/5 98/2/5 97/2/5
f 100/2/5 98/2/5 99/2/5
f 101/2/5 98/2/5 100/2/5
f 102/2/5 98/2/5 101/2/5
f 103/2/5 99/2/5 97/2/5
f 104/1/5 101/1/5 100/1/5
f 105/1/5 101/1/5 104/1/5
f 106/1/5 101/1/5 105/1/5
f 107/1/5 101/1/5 106/1/5
f 108/2/5 98/2/5 102/2/5
f 109/1/5 104/1/5 103/1/5
f 109/2/5 105/2/5 104/2/5
f 110/1/5 106/1/5 105/1/5
f 110/2/5 105/2/5 109/2/5
f 111/2/5 107/2/5 106/2/5
f 111/1/5 106/1/5 110/1/5
f 112/1/5 108/1/5 107/1/5
f 112/2/5 107/2/5 111/2/5
f 113/1/5 110/1/5 109/1/5
f 113/1/5 111/1/5 110/1/5
f 113/1/5 112/1/5 111/1/5
f 113/1/5 109/1/5 103/1/5
f 114/1/5 112/1/5 113/1/5
f 115/1/5 112/1/5 114/1/5
f 116/1/5 108/1/5 112/1/5
f 116/1/5 112/1/5 115/1/5
f 117/2/5 103/2/5 97/2/5
f 117/1/5 113/1/5 103/1/5
f 118/2/5 114/2/5 113/2/5
f 118/1/5 113/1/5 117/1/5
f 119/1/5 115/1/5 114/1/5
f 119/2/5 114/2/5 118/2/5
f 120/2/5 116/2/5 115/2/5
f 120/1/5 115/1/5 119/1/5
f 121/1/5 108/1/5 116/1/5
f 121/2/5 116/2/5 120/2/5
f 122/2/5 98/2/5 108/2/5
f 122/1/5 108/1/5 121/1/5
f 123/2/5 117/2/5 97/2/5
f 124/1/5 120/1/5 119/1/5
f 124/1/5 121/1/5 120/1/5
f 124/1/5 119/1/5 118/1/5
f 125/1/5 121/1/5 124/1/5
f 126/2/5 98/2/5 122/2/5
f 127/2/5 125/2/5 124/2/5
f 127/2/5 126/2/5 125/2/5
f 127/2/5 123/2/5 97/2/5
f 127/2/5 124/2/5 123/2/5
f 128/2/5 98/2/5 126/2/5
f 128/2/5 126/2/5 127/2/5
f 129/2/6 130/2/6 131/2/6
f 131/2/6 130/2/6 132/2/6
f 129/2/6 131/2/6 133/2/6
f 131/1/6 132/1/6 134/1/6
f 133/2/6 131/2/6 134/2/6
f 134/1/6 132/1/6 135/1/6
f 135/1/6 132/1/6 136/1/6
f 132/2/6 130/2/6 137/2/6
f 136/1/6 132/1/6 137/1/6
f 137/2/6 130/2/6 138/2/6
f 133/1/6 134/1/6 139/1/6
f 134/2/6 135/2/6 139/2/6
f 135/1/6 136/1/6 140/1/6
f 139/2/6 135/2/6 140/2/6
f 136/2/6 137/2/6 141/2/6
f 140/1/6 136/1/6 141/1/6
f 137/1/6 138/1/6 142/1/6
f 141/2/6 137/2/6 142/2/6
f 133/1/6 139/1/6 143/1/6
f 140/1/6 141/1/6 143/1/6
f 141/1/6 142/1/6 143/1/6
f 139/1/6 140/1/6 143/1/6
f 143/1/6 142/1/6 144/1/6
f 144/1/6 142/1/6 145/1/6
f 142/1/6 138/1/6 146/1/6
f 145/1/6 142/1/6 146/1/6
f 129/2/6 133/2/6 147/2/6
f 133/1/6 143/1/6 147/1/6
f 143/2/6 144/2/6 148/2/6
f 147/1/6 143/1/6 148/1/6
f 144/1/6 145/1/6 149/1/6
f 148/2/6 144/2/6 149/2/6
f 145/2/6 146/2/6 150/2/6
f 149/1/6 145/1/6 150/1/6
f 146/1/6 138/1/6 151/1/6
f 150/2/6 146/2/6 151/2/6
f 138/2/6 130/2/6 152/2/6
f 151/1/6 138/1/6 152/1/6
f 147/2/6 148/2/6 153/2/6
f 149/1/6 150/1/6 153/1/6
f 150/1/6 151/1/6 153/1/6
f 148/1/6 149/1/6 153/1/6
f 151/2/6 152/2/6 154/2/6
f 153/1/6 151/1/6 154/1/6
f 147/2/6 153/2/6 155/2/6
f 129/2/6 147/2/6 155/2/6
f 153/2/6 154/2/6 155/2/6
f 152/2/6 130/2/6 156/2/6
f 155/2/6 154/2/6 156/2/6
f 154/2/6 152/2/6 156/2/6
