# MagicaVoxel @ Ephtracy

# group
o 

# material
mtllib Corner Cafe-4.mtl
usemtl palette

# normals
vn -1 0 0
vn 1 0 0
vn 0 0 1
vn 0 0 -1
vn 0 -1 0
vn 0 1 0

# texcoords
vt 0.583984 0.5
vt 0.673828 0.5
vt 0.705078 0.5
vt 0.736328 0.5
vt 0.775391 0.5
vt 0.955078 0.5

# verts
v -0.7 0 0
v -0.7 0 -0.1
v -0.7 0.2 0
v -0.7 0.2 -0.1
v -0.7 2 0
v -0.7 2 -0.1
v -0.7 2.3 0
v -0.7 2.3 -0.1
v -0.6 0.2 0
v -0.6 0.2 -0.1
v -0.6 2 0
v -0.6 2 -0.1
v 0.3 2.2 0
v 0.3 2.2 -0.1
v 0.3 2.3 0
v 0.3 2.3 -0.1
v 0.5 0 0
v 0.5 0 -0.1
v 0.5 0.1 0
v 0.5 0.1 -0.1
v -0.5 0 0
v -0.5 0 -0.1
v -0.5 0.1 0
v -0.5 0.1 -0.1
v -0.3 2.2 0
v -0.3 2.2 -0.1
v -0.3 2.3 0
v -0.3 2.3 -0.1
v 0.6 0.2 0
v 0.6 0.2 -0.1
v 0.6 2 0
v 0.6 2 -0.1
v 0.7 0 0
v 0.7 0 -0.1
v 0.7 0.1 0
v 0.7 0.1 -0.1
v 0.7 0.2 0
v 0.7 0.2 -0.1
v 0.7 2 0
v 0.7 2 -0.1
v 0.7 2.3 0
v 0.7 2.3 -0.1
v -0.7 0 0
v -0.7 0.2 0
v -0.7 2 0
v -0.7 2.3 0
v -0.6 0.2 0
v -0.6 2 0
v -0.6 2.1 0
v -0.6 2.2 0
v -0.5 0 0
v -0.5 0.1 0
v -0.5 0.2 0
v -0.5 1.1 0
v -0.5 2.1 0
v -0.4 0.4 0
v -0.4 1 0
v -0.4 1.1 0
v -0.4 1.2 0
v -0.4 2.1 0
v -0.4 2.2 0
v -0.3 0.2 0
v -0.3 0.4 0
v -0.3 0.7 0
v -0.3 1 0
v -0.3 1.1 0
v -0.3 1.2 0
v -0.3 1.3 0
v -0.3 2.2 0
v -0.3 2.3 0
v -0.2 0.6 0
v -0.2 0.7 0
v -0.2 1 0
v -0.2 1.1 0
v -0.2 1.3 0
v -0.2 1.5 0
v -0.2 1.7 0
v -0.1 0.5 0
v -0.1 0.6 0
v -0.1 0.7 0
v -0.1 1 0
v -0.1 1.1 0
v -0.1 1.4 0
v -0.1 1.5 0
v -0.1 1.6 0
v -0.1 1.7 0
v -0.1 1.8 0
v 0 0.1 0
v 0 0.2 0
v 0 1.4 0
v 0 1.5 0
v 0.1 0.5 0
v 0.1 0.6 0
v 0.1 0.7 0
v 0.1 1 0
v 0.1 1.1 0
v 0.1 1.5 0
v 0.1 1.6 0
v 0.1 1.8 0
v 0.1 1.9 0
v 0.2 0.1 0
v 0.2 0.2 0
v 0.2 0.6 0
v 0.2 0.7 0
v 0.2 1 0
v 0.2 1.1 0
v 0.2 1.4 0
v 0.2 1.5 0
v 0.2 1.6 0
v 0.2 1.7 0
v 0.2 1.9 0
v 0.3 0.7 0
v 0.3 1 0
v 0.3 1.2 0
v 0.3 1.4 0
v 0.3 1.5 0
v 0.3 1.7 0
v 0.3 2.2 0
v 0.3 2.3 0
v 0.4 0.2 0
v 0.4 1 0
v 0.4 1.2 0
v 0.5 0 0
v 0.5 0.1 0
v 0.5 0.2 0
v 0.5 1 0
v 0.5 2.1 0
v 0.6 0.2 0
v 0.6 2 0
v 0.7 0 0
v 0.7 0.1 0
v 0.7 0.2 0
v 0.7 2 0
v 0.7 2.3 0
v -0.7 0 -0.1
v -0.7 0.2 -0.1
v -0.7 2 -0.1
v -0.7 2.3 -0.1
v -0.6 0.2 -0.1
v -0.6 2 -0.1
v -0.6 2.1 -0.1
v -0.6 2.2 -0.1
v -0.5 0 -0.1
v -0.5 0.1 -0.1
v -0.5 0.2 -0.1
v -0.5 1.1 -0.1
v -0.5 2.1 -0.1
v -0.4 0.4 -0.1
v -0.4 1 -0.1
v -0.4 1.1 -0.1
v -0.4 1.2 -0.1
v -0.4 2.1 -0.1
v -0.4 2.2 -0.1
v -0.3 0.2 -0.1
v -0.3 0.4 -0.1
v -0.3 0.7 -0.1
v -0.3 1 -0.1
v -0.3 1.1 -0.1
v -0.3 1.2 -0.1
v -0.3 1.3 -0.1
v -0.3 2.2 -0.1
v -0.3 2.3 -0.1
v -0.2 0.6 -0.1
v -0.2 0.7 -0.1
v -0.2 1 -0.1
v -0.2 1.1 -0.1
v -0.2 1.3 -0.1
v -0.2 1.5 -0.1
v -0.2 1.7 -0.1
v -0.1 0.5 -0.1
v -0.1 0.6 -0.1
v -0.1 0.7 -0.1
v -0.1 1 -0.1
v -0.1 1.1 -0.1
v -0.1 1.4 -0.1
v -0.1 1.5 -0.1
v -0.1 1.6 -0.1
v -0.1 1.7 -0.1
v -0.1 1.8 -0.1
v 0 0.1 -0.1
v 0 0.2 -0.1
v 0 1.4 -0.1
v 0 1.5 -0.1
v 0.1 0.5 -0.1
v 0.1 0.6 -0.1
v 0.1 0.7 -0.1
v 0.1 1 -0.1
v 0.1 1.1 -0.1
v 0.1 1.5 -0.1
v 0.1 1.6 -0.1
v 0.1 1.8 -0.1
v 0.1 1.9 -0.1
v 0.2 0.1 -0.1
v 0.2 0.2 -0.1
v 0.2 0.6 -0.1
v 0.2 0.7 -0.1
v 0.2 1 -0.1
v 0.2 1.1 -0.1
v 0.2 1.4 -0.1
v 0.2 1.5 -0.1
v 0.2 1.6 -0.1
v 0.2 1.7 -0.1
v 0.2 1.9 -0.1
v 0.3 0.7 -0.1
v 0.3 1 -0.1
v 0.3 1.2 -0.1
v 0.3 1.4 -0.1
v 0.3 1.5 -0.1
v 0.3 1.7 -0.1
v 0.3 2.2 -0.1
v 0.3 2.3 -0.1
v 0.4 0.2 -0.1
v 0.4 1 -0.1
v 0.4 1.2 -0.1
v 0.5 0 -0.1
v 0.5 0.1 -0.1
v 0.5 0.2 -0.1
v 0.5 1 -0.1
v 0.5 2.1 -0.1
v 0.6 0.2 -0.1
v 0.6 2 -0.1
v 0.7 0 -0.1
v 0.7 0.1 -0.1
v 0.7 0.2 -0.1
v 0.7 2 -0.1
v 0.7 2.3 -0.1
v -0.7 0 0
v -0.5 0 0
v 0.5 0 0
v 0.7 0 0
v -0.7 0 -0.1
v -0.5 0 -0.1
v 0.5 0 -0.1
v 0.7 0 -0.1
v -0.5 0.1 0
v 0 0.1 0
v 0.2 0.1 0
v 0.5 0.1 0
v -0.5 0.1 -0.1
v 0 0.1 -0.1
v 0.2 0.1 -0.1
v 0.5 0.1 -0.1
v -0.7 2 0
v -0.6 2 0
v 0.6 2 0
v 0.7 2 0
v -0.7 2 -0.1
v -0.6 2 -0.1
v 0.6 2 -0.1
v 0.7 2 -0.1
v -0.7 0.2 0
v -0.6 0.2 0
v 0.6 0.2 0
v 0.7 0.2 0
v -0.7 0.2 -0.1
v -0.6 0.2 -0.1
v 0.6 0.2 -0.1
v 0.7 0.2 -0.1
v -0.3 2.2 0
v 0.3 2.2 0
v -0.3 2.2 -0.1
v 0.3 2.2 -0.1
v -0.7 2.3 0
v -0.3 2.3 0
v 0.3 2.3 0
v 0.7 2.3 0
v -0.7 2.3 -0.1
v -0.3 2.3 -0.1
v 0.3 2.3 -0.1
v 0.7 2.3 -0.1

# faces
f 3/6/1 2/6/1 1/6/1
f 4/6/1 2/6/1 3/6/1
f 7/6/1 6/6/1 5/6/1
f 8/6/1 6/6/1 7/6/1
f 11/6/1 10/6/1 9/6/1
f 12/6/1 10/6/1 11/6/1
f 15/6/1 14/6/1 13/6/1
f 16/6/1 14/6/1 15/6/1
f 19/1/1 18/1/1 17/1/1
f 20/1/1 18/1/1 19/1/1
f 21/6/2 22/6/2 23/6/2
f 23/6/2 22/6/2 24/6/2
f 25/6/2 26/6/2 27/6/2
f 27/6/2 26/6/2 28/6/2
f 29/6/2 30/6/2 31/6/2
f 31/6/2 30/6/2 32/6/2
f 33/1/2 34/1/2 35/1/2
f 35/1/2 34/1/2 36/1/2
f 35/6/2 36/6/2 37/6/2
f 37/6/2 36/6/2 38/6/2
f 39/6/2 40/6/2 41/6/2
f 41/6/2 40/6/2 42/6/2
f 47/6/3 44/6/3 43/6/3
f 48/6/3 46/6/3 45/6/3
f 49/6/3 46/6/3 48/6/3
f 50/6/3 46/6/3 49/6/3
f 51/6/3 47/6/3 43/6/3
f 51/6/3 48/6/3 47/6/3
f 51/6/3 49/6/3 48/6/3
f 52/6/3 49/6/3 51/6/3
f 53/6/3 49/6/3 52/6/3
f 54/6/3 49/6/3 53/6/3
f 55/1/3 50/1/3 49/1/3
f 55/6/3 49/6/3 54/6/3
f 56/2/3 54/2/3 53/2/3
f 57/2/3 54/2/3 56/2/3
f 58/4/3 55/4/3 54/4/3
f 58/2/3 54/2/3 57/2/3
f 59/4/3 55/4/3 58/4/3
f 60/1/3 50/1/3 55/1/3
f 60/4/3 55/4/3 59/4/3
f 61/6/3 46/6/3 50/6/3
f 61/1/3 50/1/3 60/1/3
f 62/1/3 53/1/3 52/1/3
f 62/2/3 56/2/3 53/2/3
f 63/5/3 57/5/3 56/5/3
f 63/2/3 56/2/3 62/2/3
f 64/5/3 57/5/3 63/5/3
f 65/2/3 59/2/3 58/2/3
f 65/5/3 57/5/3 64/5/3
f 65/2/3 58/2/3 57/2/3
f 66/2/3 59/2/3 65/2/3
f 67/4/3 60/4/3 59/4/3
f 67/2/3 59/2/3 66/2/3
f 68/4/3 60/4/3 67/4/3
f 69/6/3 46/6/3 61/6/3
f 69/6/3 61/6/3 60/6/3
f 70/6/3 46/6/3 69/6/3
f 71/5/3 64/5/3 63/5/3
f 71/5/3 63/5/3 62/5/3
f 72/6/3 65/6/3 64/6/3
f 72/5/3 64/5/3 71/5/3
f 73/5/3 66/5/3 65/5/3
f 73/6/3 65/6/3 72/6/3
f 74/2/3 68/2/3 67/2/3
f 74/5/3 66/5/3 73/5/3
f 74/2/3 67/2/3 66/2/3
f 75/4/3 60/4/3 68/4/3
f 75/2/3 68/2/3 74/2/3
f 76/4/3 60/4/3 75/4/3
f 77/4/3 60/4/3 76/4/3
f 78/5/3 71/5/3 62/5/3
f 79/6/3 72/6/3 71/6/3
f 79/5/3 71/5/3 78/5/3
f 80/3/3 73/3/3 72/3/3
f 80/6/3 72/6/3 79/6/3
f 81/6/3 74/6/3 73/6/3
f 81/3/3 73/3/3 80/3/3
f 82/2/3 75/2/3 74/2/3
f 82/6/3 74/6/3 81/6/3
f 82/2/3 76/2/3 75/2/3
f 83/2/3 76/2/3 82/2/3
f 84/6/3 77/6/3 76/6/3
f 84/2/3 76/2/3 83/2/3
f 85/6/3 77/6/3 84/6/3
f 86/4/3 60/4/3 77/4/3
f 86/6/3 77/6/3 85/6/3
f 87/4/3 60/4/3 86/4/3
f 88/1/3 62/1/3 52/1/3
f 89/5/3 78/5/3 62/5/3
f 89/1/3 62/1/3 88/1/3
f 90/3/3 80/3/3 79/3/3
f 90/2/3 85/2/3 84/2/3
f 90/3/3 81/3/3 80/3/3
f 90/3/3 83/3/3 82/3/3
f 90/3/3 82/3/3 81/3/3
f 90/2/3 84/2/3 83/2/3
f 91/2/3 85/2/3 90/2/3
f 92/5/3 78/5/3 89/5/3
f 92/6/3 79/6/3 78/6/3
f 93/3/3 91/3/3 90/3/3
f 93/6/3 79/6/3 92/6/3
f 93/3/3 90/3/3 79/3/3
f 94/3/3 91/3/3 93/3/3
f 95/3/3 91/3/3 94/3/3
f 96/3/3 91/3/3 95/3/3
f 97/2/3 85/2/3 91/2/3
f 97/3/3 91/3/3 96/3/3
f 98/6/3 87/6/3 86/6/3
f 98/2/3 85/2/3 97/2/3
f 98/6/3 86/6/3 85/6/3
f 99/4/3 60/4/3 87/4/3
f 99/6/3 87/6/3 98/6/3
f 100/4/3 60/4/3 99/4/3
f 101/6/3 89/6/3 88/6/3
f 102/5/3 92/5/3 89/5/3
f 102/6/3 89/6/3 101/6/3
f 102/5/3 93/5/3 92/5/3
f 103/6/3 94/6/3 93/6/3
f 103/5/3 93/5/3 102/5/3
f 104/3/3 95/3/3 94/3/3
f 104/6/3 94/6/3 103/6/3
f 105/2/3 96/2/3 95/2/3
f 105/3/3 95/3/3 104/3/3
f 106/3/3 98/3/3 97/3/3
f 106/2/3 96/2/3 105/2/3
f 106/3/3 97/3/3 96/3/3
f 107/3/3 98/3/3 106/3/3
f 108/3/3 98/3/3 107/3/3
f 109/6/3 99/6/3 98/6/3
f 109/3/3 98/3/3 108/3/3
f 109/6/3 100/6/3 99/6/3
f 110/6/3 100/6/3 109/6/3
f 111/4/3 60/4/3 100/4/3
f 111/6/3 100/6/3 110/6/3
f 112/6/3 105/6/3 104/6/3
f 112/5/3 104/5/3 103/5/3
f 112/5/3 103/5/3 102/5/3
f 113/2/3 107/2/3 106/2/3
f 113/6/3 105/6/3 112/6/3
f 113/2/3 106/2/3 105/2/3
f 114/2/3 107/2/3 113/2/3
f 115/4/3 108/4/3 107/4/3
f 115/2/3 107/2/3 114/2/3
f 116/6/3 110/6/3 109/6/3
f 116/4/3 108/4/3 115/4/3
f 116/6/3 109/6/3 108/6/3
f 117/4/3 111/4/3 110/4/3
f 117/6/3 110/6/3 116/6/3
f 118/6/3 69/6/3 60/6/3
f 120/5/3 113/5/3 112/5/3
f 120/5/3 112/5/3 102/5/3
f 120/1/3 102/1/3 101/1/3
f 121/2/3 114/2/3 113/2/3
f 121/5/3 113/5/3 120/5/3
f 122/4/3 116/4/3 115/4/3
f 122/2/3 114/2/3 121/2/3
f 122/4/3 115/4/3 114/4/3
f 122/4/3 117/4/3 116/4/3
f 124/1/3 120/1/3 101/1/3
f 125/2/3 121/2/3 120/2/3
f 125/1/3 120/1/3 124/1/3
f 126/4/3 122/4/3 121/4/3
f 126/2/3 121/2/3 125/2/3
f 127/4/3 60/4/3 111/4/3
f 127/4/3 122/4/3 126/4/3
f 127/4/3 111/4/3 117/4/3
f 127/6/3 118/6/3 60/6/3
f 127/4/3 117/4/3 122/4/3
f 127/6/3 119/6/3 118/6/3
f 128/6/3 126/6/3 125/6/3
f 128/6/3 125/6/3 124/6/3
f 128/6/3 127/6/3 126/6/3
f 129/6/3 127/6/3 128/6/3
f 130/1/3 124/1/3 123/1/3
f 131/6/3 128/6/3 124/6/3
f 131/1/3 124/1/3 130/1/3
f 132/6/3 128/6/3 131/6/3
f 133/6/3 127/6/3 129/6/3
f 134/6/3 119/6/3 127/6/3
f 134/6/3 127/6/3 133/6/3
f 135/6/4 136/6/4 139/6/4
f 137/6/4 138/6/4 140/6/4
f 140/6/4 138/6/4 141/6/4
f 141/6/4 138/6/4 142/6/4
f 135/6/4 139/6/4 143/6/4
f 139/6/4 140/6/4 143/6/4
f 140/6/4 141/6/4 143/6/4
f 143/6/4 141/6/4 144/6/4
f 144/6/4 141/6/4 145/6/4
f 145/6/4 141/6/4 146/6/4
f 141/1/4 142/1/4 147/1/4
f 146/6/4 141/6/4 147/6/4
f 145/2/4 146/2/4 148/2/4
f 148/2/4 146/2/4 149/2/4
f 146/4/4 147/4/4 150/4/4
f 149/2/4 146/2/4 150/2/4
f 150/4/4 147/4/4 151/4/4
f 147/1/4 142/1/4 152/1/4
f 151/4/4 147/4/4 152/4/4
f 142/6/4 138/6/4 153/6/4
f 152/1/4 142/1/4 153/1/4
f 144/1/4 145/1/4 154/1/4
f 145/2/4 148/2/4 154/2/4
f 148/5/4 149/5/4 155/5/4
f 154/2/4 148/2/4 155/2/4
f 155/5/4 149/5/4 156/5/4
f 150/2/4 151/2/4 157/2/4
f 156/5/4 149/5/4 157/5/4
f 149/2/4 150/2/4 157/2/4
f 157/2/4 151/2/4 158/2/4
f 151/4/4 152/4/4 159/4/4
f 158/2/4 151/2/4 159/2/4
f 159/4/4 152/4/4 160/4/4
f 153/6/4 138/6/4 161/6/4
f 152/6/4 153/6/4 161/6/4
f 161/6/4 138/6/4 162/6/4
f 155/5/4 156/5/4 163/5/4
f 154/5/4 155/5/4 163/5/4
f 156/6/4 157/6/4 164/6/4
f 163/5/4 156/5/4 164/5/4
f 157/5/4 158/5/4 165/5/4
f 164/6/4 157/6/4 165/6/4
f 159/2/4 160/2/4 166/2/4
f 165/5/4 158/5/4 166/5/4
f 158/2/4 159/2/4 166/2/4
f 160/4/4 152/4/4 167/4/4
f 166/2/4 160/2/4 167/2/4
f 167/4/4 152/4/4 168/4/4
f 168/4/4 152/4/4 169/4/4
f 154/5/4 163/5/4 170/5/4
f 163/6/4 164/6/4 171/6/4
f 170/5/4 163/5/4 171/5/4
f 164/3/4 165/3/4 172/3/4
f 171/6/4 164/6/4 172/6/4
f 165/6/4 166/6/4 173/6/4
f 172/3/4 165/3/4 173/3/4
f 166/2/4 167/2/4 174/2/4
f 173/6/4 166/6/4 174/6/4
f 167/2/4 168/2/4 174/2/4
f 174/2/4 168/2/4 175/2/4
f 168/6/4 169/6/4 176/6/4
f 175/2/4 168/2/4 176/2/4
f 176/6/4 169/6/4 177/6/4
f 169/4/4 152/4/4 178/4/4
f 177/6/4 169/6/4 178/6/4
f 178/4/4 152/4/4 179/4/4
f 144/1/4 154/1/4 180/1/4
f 154/5/4 170/5/4 181/5/4
f 180/1/4 154/1/4 181/1/4
f 171/3/4 172/3/4 182/3/4
f 176/2/4 177/2/4 182/2/4
f 172/3/4 173/3/4 182/3/4
f 174/3/4 175/3/4 182/3/4
f 173/3/4 174/3/4 182/3/4
f 175/2/4 176/2/4 182/2/4
f 182/2/4 177/2/4 183/2/4
f 181/5/4 170/5/4 184/5/4
f 170/6/4 171/6/4 184/6/4
f 182/3/4 183/3/4 185/3/4
f 184/6/4 171/6/4 185/6/4
f 171/3/4 182/3/4 185/3/4
f 185/3/4 183/3/4 186/3/4
f 186/3/4 183/3/4 187/3/4
f 187/3/4 183/3/4 188/3/4
f 183/2/4 177/2/4 189/2/4
f 188/3/4 183/3/4 189/3/4
f 178/6/4 179/6/4 190/6/4
f 189/2/4 177/2/4 190/2/4
f 177/6/4 178/6/4 190/6/4
f 179/4/4 152/4/4 191/4/4
f 190/6/4 179/6/4 191/6/4
f 191/4/4 152/4/4 192/4/4
f 180/6/4 181/6/4 193/6/4
f 181/5/4 184/5/4 194/5/4
f 193/6/4 181/6/4 194/6/4
f 184/5/4 185/5/4 194/5/4
f 185/6/4 186/6/4 195/6/4
f 194/5/4 185/5/4 195/5/4
f 186/3/4 187/3/4 196/3/4
f 195/6/4 186/6/4 196/6/4
f 187/2/4 188/2/4 197/2/4
f 196/3/4 187/3/4 197/3/4
f 189/3/4 190/3/4 198/3/4
f 197/2/4 188/2/4 198/2/4
f 188/3/4 189/3/4 198/3/4
f 198/3/4 190/3/4 199/3/4
f 199/3/4 190/3/4 200/3/4
f 190/6/4 191/6/4 201/6/4
f 200/3/4 190/3/4 201/3/4
f 191/6/4 192/6/4 201/6/4
f 201/6/4 192/6/4 202/6/4
f 192/4/4 152/4/4 203/4/4
f 202/6/4 192/6/4 203/6/4
f 196/6/4 197/6/4 204/6/4
f 195/5/4 196/5/4 204/5/4
f 194/5/4 195/5/4 204/5/4
f 198/2/4 199/2/4 205/2/4
f 204/6/4 197/6/4 205/6/4
f 197/2/4 198/2/4 205/2/4
f 205/2/4 199/2/4 206/2/4
f 199/4/4 200/4/4 207/4/4
f 206/2/4 199/2/4 207/2/4
f 201/6/4 202/6/4 208/6/4
f 207/4/4 200/4/4 208/4/4
f 200/6/4 201/6/4 208/6/4
f 202/4/4 203/4/4 209/4/4
f 208/6/4 202/6/4 209/6/4
f 152/6/4 161/6/4 210/6/4
f 204/5/4 205/5/4 212/5/4
f 194/5/4 204/5/4 212/5/4
f 193/1/4 194/1/4 212/1/4
f 205/2/4 206/2/4 213/2/4
f 212/5/4 205/5/4 213/5/4
f 207/4/4 208/4/4 214/4/4
f 213/2/4 206/2/4 214/2/4
f 206/4/4 207/4/4 214/4/4
f 208/4/4 209/4/4 214/4/4
f 193/1/4 212/1/4 216/1/4
f 212/2/4 213/2/4 217/2/4
f 216/1/4 212/1/4 217/1/4
f 213/4/4 214/4/4 218/4/4
f 217/2/4 213/2/4 218/2/4
f 203/4/4 152/4/4 219/4/4
f 218/4/4 214/4/4 219/4/4
f 209/4/4 203/4/4 219/4/4
f 152/6/4 210/6/4 219/6/4
f 214/4/4 209/4/4 219/4/4
f 210/6/4 211/6/4 219/6/4
f 217/6/4 218/6/4 220/6/4
f 216/6/4 217/6/4 220/6/4
f 218/6/4 219/6/4 220/6/4
f 220/6/4 219/6/4 221/6/4
f 215/1/4 216/1/4 222/1/4
f 216/6/4 220/6/4 223/6/4
f 222/1/4 216/1/4 223/1/4
f 223/6/4 220/6/4 224/6/4
f 221/6/4 219/6/4 225/6/4
f 219/6/4 211/6/4 226/6/4
f 225/6/4 219/6/4 226/6/4
f 231/6/5 228/6/5 227/6/5
f 232/6/5 228/6/5 231/6/5
f 233/1/5 230/1/5 229/1/5
f 234/1/5 230/1/5 233/1/5
f 239/1/5 236/1/5 235/1/5
f 240/6/5 237/6/5 236/6/5
f 240/1/5 236/1/5 239/1/5
f 241/1/5 238/1/5 237/1/5
f 241/6/5 237/6/5 240/6/5
f 242/1/5 238/1/5 241/1/5
f 247/6/5 244/6/5 243/6/5
f 248/6/5 244/6/5 247/6/5
f 249/6/5 246/6/5 245/6/5
f 250/6/5 246/6/5 249/6/5
f 251/6/6 252/6/6 255/6/6
f 255/6/6 252/6/6 256/6/6
f 253/6/6 254/6/6 257/6/6
f 257/6/6 254/6/6 258/6/6
f 259/6/6 260/6/6 261/6/6
f 261/6/6 260/6/6 262/6/6
f 263/6/6 264/6/6 267/6/6
f 267/6/6 264/6/6 268/6/6
f 265/6/6 266/6/6 269/6/6
f 269/6/6 266/6/6 270/6/6
