# MagicaVoxel @ Ephtracy

# group
o 

# material
mtllib Corner Cafe-19.mtl
usemtl palette

# normals
vn 0 0 1
vn 0 0 -1
vn 1 0 0
vn -1 0 0
vn 0 -1 0
vn 0 1 0

# texcoords
vt 0.564453 0.5
vt 0.595703 0.5
vt 0.626953 0.5

# verts
v 0.8 0 0.7
v -0.7 0 0.7
v 0.8 0.3 0.7
v -0.7 0.3 0.7
v 0.8 0.4 0.7
v 0.6 0.4 0.7
v 0.5 0.4 0.7
v 0.4 0.4 0.7
v 0.1 0.4 0.7
v 0 0.4 0.7
v -0.2 0.4 0.7
v -0.5 0.4 0.7
v 0.8 0.5 0.7
v 0.6 0.5 0.7
v 0.5 0.5 0.7
v 0.4 0.5 0.7
v 0.1 0.5 0.7
v 0 0.5 0.7
v -0.2 0.5 0.7
v -0.5 0.5 0.7
v -0.7 0.5 0.7
v 0.8 0 -0.8
v -0.7 0 -0.8
v 0.8 0.3 -0.8
v -0.7 0.3 -0.8
v 0.8 0.4 -0.8
v 0.6 0.4 -0.8
v 0.5 0.4 -0.8
v 0.3 0.4 -0.8
v 0.1 0.4 -0.8
v -0.1 0.4 -0.8
v -0.5 0.4 -0.8
v -0.6 0.4 -0.8
v 0.8 0.5 -0.8
v 0.6 0.5 -0.8
v 0.5 0.5 -0.8
v 0.3 0.5 -0.8
v 0.1 0.5 -0.8
v -0.1 0.5 -0.8
v -0.5 0.5 -0.8
v -0.6 0.5 -0.8
v -0.7 0.5 -0.8
v 0.8 0 0.7
v 0.8 0.3 0.7
v 0.8 0.4 0.7
v 0.8 0.5 0.7
v 0.8 0.4 0.5
v 0.8 0.5 0.5
v 0.8 0.4 0.4
v 0.8 0.5 0.4
v 0.8 0.4 0.3
v 0.8 0.5 0.3
v 0.8 0.4 0.1
v 0.8 0.5 0.1
v 0.8 0.4 -0.1
v 0.8 0.5 -0.1
v 0.8 0.4 -0.2
v 0.8 0.5 -0.2
v 0.8 0.4 -0.4
v 0.8 0.5 -0.4
v 0.8 0.4 -0.7
v 0.8 0.5 -0.7
v 0.8 0 -0.8
v 0.8 0.3 -0.8
v 0.8 0.4 -0.8
v 0.8 0.5 -0.8
v -0.7 0 0.7
v -0.7 0.3 0.7
v -0.7 0.5 0.7
v -0.7 0 -0.8
v -0.7 0.3 -0.8
v -0.7 0.5 -0.8
v 0.8 0 0.7
v 0.8 0 -0.8
v -0.7 0 0.7
v -0.7 0 -0.8
v 0.8 0.5 0.7
v 0.8 0.5 0.5
v 0.8 0.5 0.4
v 0.8 0.5 0.3
v 0.8 0.5 0.1
v 0.8 0.5 -0.1
v 0.8 0.5 -0.2
v 0.8 0.5 -0.4
v 0.8 0.5 -0.7
v 0.8 0.5 -0.8
v 0.7 0.5 0.1
v 0.7 0.5 0
v 0.7 0.5 -0.4
v 0.7 0.5 -0.5
v 0.7 0.5 -0.6
v 0.7 0.5 -0.7
v 0.6 0.5 0.7
v 0.6 0.5 0.6
v 0.6 0.5 0.5
v 0.6 0.5 0.4
v 0.6 0.5 0.3
v 0.6 0.5 0
v 0.6 0.5 -0.1
v 0.6 0.5 -0.2
v 0.6 0.5 -0.5
v 0.6 0.5 -0.7
v 0.6 0.5 -0.8
v 0.5 0.5 0.7
v 0.5 0.5 0.6
v 0.5 0.5 0.3
v 0.5 0.5 0
v 0.5 0.5 -0.2
v 0.5 0.5 -0.5
v 0.5 0.5 -0.6
v 0.5 0.5 -0.8
v 0.4 0.5 0.7
v 0.4 0.5 0.3
v 0.4 0.5 0.1
v 0.4 0.5 0
v 0.4 0.5 -0.1
v 0.4 0.5 -0.2
v 0.4 0.5 -0.3
v 0.4 0.5 -0.5
v 0.3 0.5 0.3
v 0.3 0.5 0.2
v 0.3 0.5 -0.5
v 0.3 0.5 -0.6
v 0.3 0.5 -0.7
v 0.3 0.5 -0.8
v 0.1 0.5 0.7
v 0.1 0.5 0.3
v 0.1 0.5 0.2
v 0.1 0.5 -0.2
v 0.1 0.5 -0.3
v 0.1 0.5 -0.6
v 0.1 0.5 -0.7
v 0.1 0.5 -0.8
v 0 0.5 0.7
v 0 0.5 0.3
v 0 0.5 0.1
v 0 0.5 0
v 0 0.5 -0.1
v 0 0.5 -0.3
v 0 0.5 -0.6
v -0.1 0.5 0.4
v -0.1 0.5 0.1
v -0.1 0.5 -0.2
v -0.1 0.5 -0.8
v -0.2 0.5 0.7
v -0.2 0.5 0.6
v -0.2 0.5 0.5
v -0.2 0.5 0.4
v -0.2 0.5 0.1
v -0.2 0.5 0
v -0.2 0.5 -0.1
v -0.2 0.5 -0.2
v -0.4 0.5 0.4
v -0.4 0.5 0.3
v -0.4 0.5 -0.2
v -0.4 0.5 -0.3
v -0.5 0.5 0.7
v -0.5 0.5 0.6
v -0.5 0.5 0.5
v -0.5 0.5 0.4
v -0.5 0.5 0.3
v -0.5 0.5 0.1
v -0.5 0.5 0
v -0.5 0.5 -0.1
v -0.5 0.5 -0.2
v -0.5 0.5 -0.3
v -0.5 0.5 -0.8
v -0.6 0.5 0.4
v -0.6 0.5 0.1
v -0.6 0.5 -0.2
v -0.6 0.5 -0.8
v -0.7 0.5 0.7
v -0.7 0.5 -0.8

# faces
f 3/3/1 2/3/1 1/3/1
f 4/3/1 2/3/1 3/3/1
f 5/1/1 4/1/1 3/1/1
f 6/1/1 4/1/1 5/1/1
f 7/1/1 4/1/1 6/1/1
f 8/1/1 4/1/1 7/1/1
f 9/1/1 4/1/1 8/1/1
f 10/1/1 4/1/1 9/1/1
f 11/1/1 4/1/1 10/1/1
f 12/1/1 4/1/1 11/1/1
f 13/3/1 6/3/1 5/3/1
f 14/2/1 7/2/1 6/2/1
f 14/3/1 6/3/1 13/3/1
f 15/1/1 8/1/1 7/1/1
f 15/2/1 7/2/1 14/2/1
f 16/3/1 9/3/1 8/3/1
f 16/1/1 8/1/1 15/1/1
f 17/2/1 10/2/1 9/2/1
f 17/3/1 9/3/1 16/3/1
f 18/1/1 11/1/1 10/1/1
f 18/2/1 10/2/1 17/2/1
f 19/3/1 12/3/1 11/3/1
f 19/1/1 11/1/1 18/1/1
f 20/1/1 4/1/1 12/1/1
f 20/3/1 12/3/1 19/3/1
f 21/1/1 4/1/1 20/1/1
f 22/3/2 23/3/2 24/3/2
f 24/3/2 23/3/2 25/3/2
f 24/1/2 25/1/2 26/1/2
f 26/1/2 25/1/2 27/1/2
f 27/1/2 25/1/2 28/1/2
f 28/1/2 25/1/2 29/1/2
f 29/1/2 25/1/2 30/1/2
f 30/1/2 25/1/2 31/1/2
f 31/1/2 25/1/2 32/1/2
f 32/1/2 25/1/2 33/1/2
f 26/3/2 27/3/2 34/3/2
f 27/2/2 28/2/2 35/2/2
f 34/3/2 27/3/2 35/3/2
f 28/1/2 29/1/2 36/1/2
f 35/2/2 28/2/2 36/2/2
f 29/3/2 30/3/2 37/3/2
f 36/1/2 29/1/2 37/1/2
f 30/1/2 31/1/2 38/1/2
f 37/3/2 30/3/2 38/3/2
f 31/3/2 32/3/2 39/3/2
f 38/1/2 31/1/2 39/1/2
f 32/2/2 33/2/2 40/2/2
f 39/3/2 32/3/2 40/3/2
f 33/1/2 25/1/2 41/1/2
f 40/2/2 33/2/2 41/2/2
f 41/1/2 25/1/2 42/1/2
f 47/1/3 45/1/3 44/1/3
f 47/3/3 46/3/3 45/3/3
f 48/3/3 46/3/3 47/3/3
f 49/1/3 47/1/3 44/1/3
f 49/1/3 48/1/3 47/1/3
f 50/1/3 48/1/3 49/1/3
f 51/1/3 49/1/3 44/1/3
f 51/2/3 50/2/3 49/2/3
f 52/2/3 50/2/3 51/2/3
f 53/1/3 51/1/3 44/1/3
f 53/3/3 52/3/3 51/3/3
f 54/3/3 52/3/3 53/3/3
f 55/1/3 53/1/3 44/1/3
f 55/1/3 54/1/3 53/1/3
f 56/1/3 54/1/3 55/1/3
f 57/1/3 55/1/3 44/1/3
f 57/2/3 56/2/3 55/2/3
f 58/2/3 56/2/3 57/2/3
f 59/1/3 57/1/3 44/1/3
f 59/3/3 58/3/3 57/3/3
f 60/3/3 58/3/3 59/3/3
f 61/1/3 59/1/3 44/1/3
f 61/1/3 60/1/3 59/1/3
f 62/1/3 60/1/3 61/1/3
f 63/3/3 44/3/3 43/3/3
f 64/1/3 61/1/3 44/1/3
f 64/3/3 44/3/3 63/3/3
f 65/3/3 62/3/3 61/3/3
f 65/1/3 61/1/3 64/1/3
f 66/3/3 62/3/3 65/3/3
f 67/3/4 68/3/4 70/3/4
f 68/1/4 69/1/4 71/1/4
f 70/3/4 68/3/4 71/3/4
f 71/1/4 69/1/4 72/1/4
f 75/3/5 74/3/5 73/3/5
f 76/3/5 74/3/5 75/3/5
f 80/3/6 81/3/6 87/3/6
f 81/1/6 82/1/6 87/1/6
f 87/1/6 82/1/6 88/1/6
f 84/1/6 85/1/6 89/1/6
f 83/3/6 84/3/6 89/3/6
f 89/1/6 85/1/6 90/1/6
f 90/1/6 85/1/6 91/1/6
f 85/3/6 86/3/6 92/3/6
f 91/1/6 85/1/6 92/1/6
f 77/3/6 78/3/6 93/3/6
f 93/3/6 78/3/6 94/3/6
f 78/1/6 79/1/6 95/1/6
f 94/3/6 78/3/6 95/3/6
f 79/2/6 80/2/6 96/2/6
f 95/1/6 79/1/6 96/1/6
f 87/3/6 88/3/6 97/3/6
f 96/2/6 80/2/6 97/2/6
f 80/3/6 87/3/6 97/3/6
f 88/1/6 82/1/6 98/1/6
f 97/3/6 88/3/6 98/3/6
f 82/2/6 83/2/6 99/2/6
f 98/1/6 82/1/6 99/1/6
f 83/3/6 89/3/6 100/3/6
f 99/2/6 83/2/6 100/2/6
f 89/3/6 90/3/6 100/3/6
f 90/1/6 91/1/6 101/1/6
f 100/3/6 90/3/6 101/3/6
f 92/3/6 86/3/6 102/3/6
f 91/2/6 92/2/6 102/2/6
f 102/3/6 86/3/6 103/3/6
f 93/2/6 94/2/6 104/2/6
f 94/1/6 95/1/6 105/1/6
f 104/2/6 94/2/6 105/2/6
f 96/1/6 97/1/6 105/1/6
f 95/1/6 96/1/6 105/1/6
f 97/2/6 98/2/6 106/2/6
f 105/1/6 97/1/6 106/1/6
f 99/1/6 100/1/6 107/1/6
f 106/2/6 98/2/6 107/2/6
f 98/1/6 99/1/6 107/1/6
f 100/2/6 101/2/6 108/2/6
f 107/1/6 100/1/6 108/1/6
f 101/1/6 91/1/6 109/1/6
f 108/2/6 101/2/6 109/2/6
f 102/2/6 103/2/6 110/2/6
f 109/1/6 91/1/6 110/1/6
f 91/2/6 102/2/6 110/2/6
f 110/2/6 103/2/6 111/2/6
f 107/1/6 108/1/6 112/1/6
f 105/1/6 106/1/6 112/1/6
f 110/1/6 111/1/6 112/1/6
f 109/1/6 110/1/6 112/1/6
f 108/1/6 109/1/6 112/1/6
f 106/1/6 107/1/6 112/1/6
f 104/1/6 105/1/6 112/1/6
f 112/1/6 111/1/6 113/1/6
f 113/1/6 111/1/6 114/1/6
f 114/1/6 111/1/6 115/1/6
f 115/1/6 111/1/6 116/1/6
f 116/1/6 111/1/6 117/1/6
f 117/1/6 111/1/6 118/1/6
f 118/1/6 111/1/6 119/1/6
f 112/3/6 113/3/6 120/3/6
f 113/1/6 114/1/6 120/1/6
f 120/1/6 114/1/6 121/1/6
f 119/1/6 111/1/6 122/1/6
f 118/3/6 119/3/6 122/3/6
f 122/1/6 111/1/6 123/1/6
f 123/1/6 111/1/6 124/1/6
f 124/1/6 111/1/6 125/1/6
f 120/3/6 121/3/6 126/3/6
f 112/3/6 120/3/6 126/3/6
f 126/3/6 121/3/6 127/3/6
f 121/1/6 114/1/6 128/1/6
f 127/3/6 121/3/6 128/3/6
f 116/1/6 117/1/6 129/1/6
f 117/2/6 118/2/6 129/2/6
f 118/3/6 122/3/6 130/3/6
f 129/2/6 118/2/6 130/2/6
f 122/3/6 123/3/6 130/3/6
f 123/1/6 124/1/6 131/1/6
f 130/3/6 123/3/6 131/3/6
f 124/3/6 125/3/6 132/3/6
f 131/1/6 124/1/6 132/1/6
f 132/3/6 125/3/6 133/3/6
f 126/2/6 127/2/6 134/2/6
f 127/1/6 128/1/6 135/1/6
f 134/2/6 127/2/6 135/2/6
f 114/2/6 115/2/6 136/2/6
f 135/1/6 128/1/6 136/1/6
f 128/1/6 114/1/6 136/1/6
f 115/3/6 116/3/6 137/3/6
f 136/2/6 115/2/6 137/2/6
f 116/1/6 129/1/6 138/1/6
f 137/3/6 116/3/6 138/3/6
f 129/1/6 130/1/6 138/1/6
f 130/2/6 131/2/6 139/2/6
f 138/1/6 130/1/6 139/1/6
f 132/1/6 133/1/6 140/1/6
f 139/2/6 131/2/6 140/2/6
f 131/1/6 132/1/6 140/1/6
f 134/1/6 135/1/6 141/1/6
f 135/1/6 136/1/6 141/1/6
f 139/1/6 140/1/6 141/1/6
f 138/1/6 139/1/6 141/1/6
f 136/1/6 137/1/6 141/1/6
f 137/1/6 138/1/6 141/1/6
f 141/1/6 140/1/6 142/1/6
f 142/1/6 140/1/6 143/1/6
f 140/1/6 133/1/6 144/1/6
f 143/1/6 140/1/6 144/1/6
f 134/1/6 141/1/6 145/1/6
f 145/1/6 141/1/6 146/1/6
f 146/1/6 141/1/6 147/1/6
f 141/3/6 142/3/6 148/3/6
f 147/1/6 141/1/6 148/1/6
f 142/1/6 143/1/6 149/1/6
f 148/3/6 142/3/6 149/3/6
f 149/1/6 143/1/6 150/1/6
f 150/1/6 143/1/6 151/1/6
f 143/3/6 144/3/6 152/3/6
f 151/1/6 143/1/6 152/1/6
f 147/2/6 148/2/6 153/2/6
f 148/3/6 149/3/6 153/3/6
f 149/3/6 150/3/6 153/3/6
f 153/3/6 150/3/6 154/3/6
f 152/3/6 144/3/6 155/3/6
f 151/2/6 152/2/6 155/2/6
f 155/3/6 144/3/6 156/3/6
f 145/3/6 146/3/6 157/3/6
f 146/1/6 147/1/6 158/1/6
f 157/3/6 146/3/6 158/3/6
f 153/2/6 154/2/6 159/2/6
f 158/1/6 147/1/6 159/1/6
f 147/2/6 153/2/6 159/2/6
f 159/2/6 154/2/6 160/2/6
f 154/3/6 150/3/6 161/3/6
f 160/2/6 154/2/6 161/2/6
f 161/3/6 150/3/6 162/3/6
f 150/1/6 151/1/6 163/1/6
f 162/3/6 150/3/6 163/3/6
f 155/2/6 156/2/6 164/2/6
f 163/1/6 151/1/6 164/1/6
f 151/2/6 155/2/6 164/2/6
f 164/2/6 156/2/6 165/2/6
f 156/3/6 144/3/6 166/3/6
f 165/2/6 156/2/6 166/2/6
f 166/3/6 144/3/6 167/3/6
f 159/1/6 160/1/6 168/1/6
f 161/2/6 162/2/6 168/2/6
f 157/1/6 158/1/6 168/1/6
f 160/2/6 161/2/6 168/2/6
f 158/1/6 159/1/6 168/1/6
f 164/1/6 165/1/6 169/1/6
f 168/2/6 162/2/6 169/2/6
f 162/1/6 163/1/6 169/1/6
f 163/1/6 164/1/6 169/1/6
f 166/2/6 167/2/6 170/2/6
f 169/1/6 165/1/6 170/1/6
f 165/2/6 166/2/6 170/2/6
f 170/2/6 167/2/6 171/2/6
f 168/1/6 169/1/6 172/1/6
f 157/1/6 168/1/6 172/1/6
f 170/1/6 171/1/6 172/1/6
f 169/1/6 170/1/6 172/1/6
f 172/1/6 171/1/6 173/1/6
