# MagicaVoxel @ Ephtracy

# group
o 

# material
mtllib Corner Cafe-2.mtl
usemtl palette

# normals
vn -1 0 0
vn 1 0 0
vn 0 0 1
vn 0 0 -1
vn 0 -1 0
vn 0 1 0

# texcoords
vt 0.587891 0.5
vt 0.619141 0.5
vt 0.650391 0.5
vt 0.654297 0.5
vt 0.685547 0.5
vt 0.708984 0.5
vt 0.955078 0.5

# verts
v -0.3 0 0.2
v -0.3 0 -0.2
v -0.3 0.1 0.2
v -0.3 0.1 -0.2
v -0.3 1.5 0.1
v -0.3 1.5 -0.2
v -0.3 1.7 0.1
v -0.3 1.7 0
v -0.3 1.8 0
v -0.3 1.8 -0.2
v -0.2 0.1 0.1
v -0.2 0.1 -0.2
v -0.2 1.3 0.1
v -0.2 1.3 0
v -0.2 1.5 0.1
v -0.2 1.5 0
v -0.2 1.5 -0.2
v -0.1 1.7 0
v -0.1 1.7 -0.2
v -0.1 1.8 0
v -0.1 1.8 -0.2
v 0.2 1.7 0
v 0.2 1.7 -0.2
v 0.2 1.8 0
v 0.2 1.8 -0.2
v -0.2 1.7 0
v -0.2 1.7 -0.2
v -0.2 1.8 0
v -0.2 1.8 -0.2
v 0.1 1.7 0
v 0.1 1.7 -0.2
v 0.1 1.8 0
v 0.1 1.8 -0.2
v 0.2 0.1 0.1
v 0.2 0.1 -0.2
v 0.2 1.3 0.1
v 0.2 1.3 0
v 0.2 1.5 0.1
v 0.2 1.5 0
v 0.2 1.5 -0.2
v 0.3 0 0.2
v 0.3 0 -0.2
v 0.3 0.1 0.2
v 0.3 0.1 -0.2
v 0.3 1.5 0.1
v 0.3 1.5 -0.2
v 0.3 1.7 0.1
v 0.3 1.7 0
v 0.3 1.8 0
v 0.3 1.8 -0.2
v -0.3 0 0.2
v -0.3 0.1 0.2
v 0.3 0 0.2
v 0.3 0.1 0.2
v -0.3 1.5 0.1
v -0.3 1.7 0.1
v -0.2 0.1 0.1
v -0.2 1.3 0.1
v -0.2 1.5 0.1
v -0.1 0.1 0.1
v -0.1 0.2 0.1
v -0.1 0.4 0.1
v -0.1 0.6 0.1
v -0.1 1 0.1
v -0.1 1.1 0.1
v -0.1 1.2 0.1
v -0.1 1.3 0.1
v -0.1 1.5 0.1
v -0.1 1.6 0.1
v 0 0.4 0.1
v 0 0.6 0.1
v 0 1 0.1
v 0 1.3 0.1
v 0 1.5 0.1
v 0.1 0.1 0.1
v 0.1 0.2 0.1
v 0.1 0.4 0.1
v 0.1 0.6 0.1
v 0.1 1 0.1
v 0.1 1.1 0.1
v 0.1 1.2 0.1
v 0.1 1.3 0.1
v 0.1 1.5 0.1
v 0.1 1.6 0.1
v 0.2 0.1 0.1
v 0.2 1.3 0.1
v 0.2 1.5 0.1
v 0.3 1.5 0.1
v 0.3 1.7 0.1
v -0.3 1.7 0
v -0.3 1.8 0
v -0.2 1.7 0
v -0.2 1.8 0
v -0.1 1.7 0
v -0.1 1.8 0
v 0.1 1.7 0
v 0.1 1.8 0
v 0.2 1.7 0
v 0.2 1.8 0
v 0.3 1.7 0
v 0.3 1.8 0
v -0.3 0 -0.2
v -0.3 0.1 -0.2
v -0.3 1.5 -0.2
v -0.3 1.8 -0.2
v -0.2 0.1 -0.2
v -0.2 1.5 -0.2
v -0.2 1.7 -0.2
v -0.2 1.8 -0.2
v -0.1 1.7 -0.2
v -0.1 1.8 -0.2
v 0.1 1.7 -0.2
v 0.1 1.8 -0.2
v 0.2 0.1 -0.2
v 0.2 1.5 -0.2
v 0.2 1.7 -0.2
v 0.2 1.8 -0.2
v 0.3 0 -0.2
v 0.3 0.1 -0.2
v 0.3 1.5 -0.2
v 0.3 1.8 -0.2
v -0.3 0 0.2
v 0.3 0 0.2
v -0.3 0 -0.2
v 0.3 0 -0.2
v -0.3 1.5 0.1
v -0.2 1.5 0.1
v 0.2 1.5 0.1
v 0.3 1.5 0.1
v -0.2 1.5 0
v 0.2 1.5 0
v -0.3 1.5 -0.2
v -0.2 1.5 -0.2
v 0.2 1.5 -0.2
v 0.3 1.5 -0.2
v -0.3 0.1 0.2
v 0.3 0.1 0.2
v -0.2 0.1 0.1
v -0.1 0.1 0.1
v 0.1 0.1 0.1
v 0.2 0.1 0.1
v -0.3 0.1 -0.2
v -0.2 0.1 -0.2
v 0.2 0.1 -0.2
v 0.3 0.1 -0.2
v -0.3 1.7 0.1
v 0.3 1.7 0.1
v -0.3 1.7 0
v -0.2 1.7 0
v -0.1 1.7 0
v 0.1 1.7 0
v 0.2 1.7 0
v 0.3 1.7 0
v -0.2 1.7 -0.2
v -0.1 1.7 -0.2
v 0.1 1.7 -0.2
v 0.2 1.7 -0.2
v -0.3 1.8 0
v -0.2 1.8 0
v -0.1 1.8 0
v 0.1 1.8 0
v 0.2 1.8 0
v 0.3 1.8 0
v -0.3 1.8 -0.2
v -0.2 1.8 -0.2
v -0.1 1.8 -0.2
v 0.1 1.8 -0.2
v 0.2 1.8 -0.2
v 0.3 1.8 -0.2

# faces
f 3/4/1 2/4/1 1/4/1
f 4/4/1 2/4/1 3/4/1
f 7/5/1 6/5/1 5/5/1
f 8/5/1 6/5/1 7/5/1
f 9/5/1 6/5/1 8/5/1
f 10/5/1 6/5/1 9/5/1
f 13/5/1 12/5/1 11/5/1
f 14/5/1 12/5/1 13/5/1
f 15/7/1 14/7/1 13/7/1
f 16/5/1 12/5/1 14/5/1
f 16/7/1 14/7/1 15/7/1
f 17/5/1 12/5/1 16/5/1
f 20/5/1 19/5/1 18/5/1
f 21/5/1 19/5/1 20/5/1
f 24/5/1 23/5/1 22/5/1
f 25/5/1 23/5/1 24/5/1
f 26/5/2 27/5/2 28/5/2
f 28/5/2 27/5/2 29/5/2
f 30/5/2 31/5/2 32/5/2
f 32/5/2 31/5/2 33/5/2
f 34/5/2 35/5/2 36/5/2
f 36/5/2 35/5/2 37/5/2
f 36/7/2 37/7/2 38/7/2
f 37/5/2 35/5/2 39/5/2
f 38/7/2 37/7/2 39/7/2
f 39/5/2 35/5/2 40/5/2
f 41/4/2 42/4/2 43/4/2
f 43/4/2 42/4/2 44/4/2
f 45/5/2 46/5/2 47/5/2
f 47/5/2 46/5/2 48/5/2
f 48/5/2 46/5/2 49/5/2
f 49/5/2 46/5/2 50/5/2
f 53/4/3 52/4/3 51/4/3
f 54/4/3 52/4/3 53/4/3
f 59/5/3 56/5/3 55/5/3
f 60/5/3 58/5/3 57/5/3
f 61/5/3 58/5/3 60/5/3
f 62/5/3 58/5/3 61/5/3
f 63/5/3 58/5/3 62/5/3
f 64/5/3 58/5/3 63/5/3
f 65/5/3 58/5/3 64/5/3
f 66/5/3 58/5/3 65/5/3
f 67/7/3 59/7/3 58/7/3
f 67/5/3 58/5/3 66/5/3
f 68/5/3 56/5/3 59/5/3
f 68/7/3 59/7/3 67/7/3
f 69/5/3 56/5/3 68/5/3
f 70/7/3 62/7/3 61/7/3
f 70/3/3 63/3/3 62/3/3
f 71/6/3 64/6/3 63/6/3
f 71/3/3 63/3/3 70/3/3
f 72/7/3 65/7/3 64/7/3
f 72/6/3 64/6/3 71/6/3
f 73/7/3 67/7/3 66/7/3
f 73/1/3 68/1/3 67/1/3
f 74/7/3 69/7/3 68/7/3
f 74/1/3 68/1/3 73/1/3
f 75/3/3 61/3/3 60/3/3
f 76/7/3 70/7/3 61/7/3
f 76/3/3 61/3/3 75/3/3
f 77/6/3 71/6/3 70/6/3
f 77/7/3 70/7/3 76/7/3
f 78/3/3 72/3/3 71/3/3
f 78/6/3 71/6/3 77/6/3
f 79/7/3 65/7/3 72/7/3
f 79/3/3 72/3/3 78/3/3
f 80/3/3 66/3/3 65/3/3
f 80/7/3 65/7/3 79/7/3
f 81/7/3 73/7/3 66/7/3
f 81/3/3 66/3/3 80/3/3
f 82/2/3 74/2/3 73/2/3
f 82/7/3 73/7/3 81/7/3
f 83/7/3 69/7/3 74/7/3
f 83/2/3 74/2/3 82/2/3
f 84/5/3 56/5/3 69/5/3
f 84/7/3 69/7/3 83/7/3
f 85/5/3 79/5/3 78/5/3
f 85/5/3 78/5/3 77/5/3
f 85/5/3 82/5/3 81/5/3
f 85/5/3 81/5/3 80/5/3
f 85/5/3 77/5/3 76/5/3
f 85/5/3 76/5/3 75/5/3
f 85/5/3 80/5/3 79/5/3
f 86/7/3 83/7/3 82/7/3
f 86/5/3 82/5/3 85/5/3
f 87/5/3 84/5/3 83/5/3
f 87/7/3 83/7/3 86/7/3
f 88/5/3 84/5/3 87/5/3
f 89/5/3 56/5/3 84/5/3
f 89/5/3 84/5/3 88/5/3
f 92/5/3 91/5/3 90/5/3
f 93/5/3 91/5/3 92/5/3
f 96/5/3 95/5/3 94/5/3
f 97/5/3 95/5/3 96/5/3
f 100/5/3 99/5/3 98/5/3
f 101/5/3 99/5/3 100/5/3
f 102/4/4 103/4/4 106/4/4
f 104/5/4 105/5/4 107/5/4
f 107/5/4 105/5/4 108/5/4
f 108/5/4 105/5/4 109/5/4
f 106/5/4 107/5/4 110/5/4
f 107/5/4 108/5/4 110/5/4
f 106/5/4 110/5/4 112/5/4
f 110/5/4 111/5/4 112/5/4
f 112/5/4 111/5/4 113/5/4
f 102/4/4 106/4/4 114/4/4
f 106/5/4 112/5/4 114/5/4
f 114/5/4 112/5/4 115/5/4
f 115/5/4 112/5/4 116/5/4
f 102/4/4 114/4/4 118/4/4
f 118/4/4 114/4/4 119/4/4
f 116/5/4 117/5/4 120/5/4
f 115/5/4 116/5/4 120/5/4
f 120/5/4 117/5/4 121/5/4
f 124/4/5 123/4/5 122/4/5
f 125/4/5 123/4/5 124/4/5
f 130/5/5 127/5/5 126/5/5
f 131/5/5 129/5/5 128/5/5
f 132/5/5 130/5/5 126/5/5
f 133/5/5 130/5/5 132/5/5
f 134/5/5 129/5/5 131/5/5
f 135/5/5 129/5/5 134/5/5
f 136/4/6 137/4/6 138/4/6
f 138/4/6 137/4/6 139/4/6
f 139/4/6 137/4/6 140/4/6
f 140/4/6 137/4/6 141/4/6
f 136/4/6 138/4/6 142/4/6
f 142/4/6 138/4/6 143/4/6
f 141/4/6 137/4/6 144/4/6
f 144/4/6 137/4/6 145/4/6
f 146/5/6 147/5/6 148/5/6
f 148/5/6 147/5/6 149/5/6
f 149/5/6 147/5/6 150/5/6
f 150/5/6 147/5/6 151/5/6
f 151/5/6 147/5/6 152/5/6
f 152/5/6 147/5/6 153/5/6
f 149/5/6 150/5/6 154/5/6
f 154/5/6 150/5/6 155/5/6
f 151/5/6 152/5/6 156/5/6
f 156/5/6 152/5/6 157/5/6
f 158/5/6 159/5/6 164/5/6
f 164/5/6 159/5/6 165/5/6
f 160/5/6 161/5/6 166/5/6
f 166/5/6 161/5/6 167/5/6
f 162/5/6 163/5/6 168/5/6
f 168/5/6 163/5/6 169/5/6
