# MagicaVoxel @ Ephtracy

# group
o 

# material
mtllib Office_Misc_Set-51.mtl
usemtl palette

# normals
vn -1 0 0
vn 1 0 0
vn 0 0 1
vn 0 0 -1
vn 0 -1 0
vn 0 1 0

# texcoords
vt 0.720703 0.5
vt 0.724609 0.5
vt 0.728516 0.5
vt 0.892578 0.5
vt 0.935547 0.5

# verts
v -7.3 0.9 -2.8
v -7.3 0.9 -3.5
v -7.3 1 -2.8
v -7.3 1 -3.5
v -7.2 0 -2.9
v -7.2 0 -3.4
v -7.2 0.1 -2.9
v -7.2 0.1 -3
v -7.2 0.1 -3.3
v -7.2 0.1 -3.4
v -7.2 0.4 -2.8
v -7.2 0.4 -2.9
v -7.2 0.4 -3
v -7.2 0.4 -3.3
v -7.2 0.4 -3.4
v -7.2 0.4 -3.5
v -7.2 0.9 -2.7
v -7.2 0.9 -2.8
v -7.2 0.9 -2.9
v -7.2 0.9 -3.4
v -7.2 0.9 -3.5
v -7.2 0.9 -3.6
v -7.2 1 -2.7
v -7.2 1 -2.8
v -7.2 1 -2.9
v -7.2 1 -3.4
v -7.2 1 -3.5
v -7.2 1 -3.6
v -7.2 1.1 -2.8
v -7.2 1.1 -2.9
v -7.2 1.1 -3
v -7.2 1.1 -3.3
v -7.2 1.1 -3.4
v -7.2 1.1 -3.5
v -7.2 1.3 -2.9
v -7.2 1.3 -3
v -7.2 1.3 -3.3
v -7.2 1.3 -3.4
v -7.2 1.4 -3
v -7.2 1.4 -3.3
v -7.1 0 -2.8
v -7.1 0 -2.9
v -7.1 0 -3.4
v -7.1 0 -3.5
v -7.1 0.1 -2.8
v -7.1 0.1 -2.9
v -7.1 0.1 -3.4
v -7.1 0.1 -3.5
v -7.1 0.4 -2.8
v -7.1 0.4 -2.9
v -7.1 0.4 -3.4
v -7.1 0.4 -3.5
v -7.1 1.1 -2.8
v -7.1 1.1 -2.9
v -7.1 1.1 -3.4
v -7.1 1.1 -3.5
v -7.1 1.2 -2.8
v -7.1 1.2 -2.9
v -7.1 1.2 -3.4
v -7.1 1.2 -3.5
v -7.1 1.3 -2.9
v -7.1 1.3 -3
v -7.1 1.3 -3.3
v -7.1 1.3 -3.4
v -7.1 1.4 -2.9
v -7.1 1.4 -3
v -7.1 1.4 -3.3
v -7.1 1.4 -3.4
v -6.6 0 -2.8
v -6.6 0 -2.9
v -6.6 0 -3.4
v -6.6 0 -3.5
v -6.6 0.1 -2.8
v -6.6 0.1 -2.9
v -6.6 0.1 -3.4
v -6.6 0.1 -3.5
v -6.6 0.4 -2.8
v -6.6 0.4 -2.9
v -6.6 0.4 -3.4
v -6.6 0.4 -3.5
v -6.6 1 -2.9
v -6.6 1 -3.4
v -6.6 1.1 -2.8
v -6.6 1.1 -2.9
v -6.6 1.1 -3
v -6.6 1.1 -3.3
v -6.6 1.1 -3.4
v -6.6 1.1 -3.5
v -6.6 1.2 -2.8
v -6.6 1.2 -2.9
v -6.6 1.2 -3.4
v -6.6 1.2 -3.5
v -6.6 1.3 -2.9
v -6.6 1.3 -3
v -6.6 1.3 -3.3
v -6.6 1.3 -3.4
v -6.6 1.4 -2.9
v -6.6 1.4 -3
v -6.6 1.4 -3.3
v -6.6 1.4 -3.4
v -6.5 0 -2.9
v -6.5 0 -3.4
v -6.5 0.1 -2.9
v -6.5 0.1 -3
v -6.5 0.1 -3.3
v -6.5 0.1 -3.4
v -6.5 0.4 -2.8
v -6.5 0.4 -2.9
v -6.5 0.4 -3
v -6.5 0.4 -3.3
v -6.5 0.4 -3.4
v -6.5 0.4 -3.5
v -6.5 0.6 -3
v -6.5 0.6 -3.1
v -6.5 0.6 -3.2
v -6.5 0.6 -3.3
v -6.5 0.7 -3
v -6.5 0.7 -3.1
v -6.5 0.7 -3.2
v -6.5 0.7 -3.3
v -6.5 0.8 -3.1
v -6.5 0.8 -3.2
v -6.5 0.9 -2.7
v -6.5 0.9 -2.8
v -6.5 0.9 -2.9
v -6.5 0.9 -3.4
v -6.5 0.9 -3.5
v -6.5 0.9 -3.6
v -6.5 1 -2.7
v -6.5 1 -2.8
v -6.5 1 -2.9
v -6.5 1 -3.4
v -6.5 1 -3.5
v -6.5 1 -3.6
v -6.5 1.1 -2.8
v -6.5 1.1 -2.9
v -6.5 1.1 -3
v -6.5 1.1 -3.3
v -6.5 1.1 -3.4
v -6.5 1.1 -3.5
v -6.5 1.3 -2.9
v -6.5 1.3 -3
v -6.5 1.3 -3.3
v -6.5 1.3 -3.4
v -6.5 1.4 -3
v -6.5 1.4 -3.3
v -6.4 0.9 -2.8
v -6.4 0.9 -3.5
v -6.4 1 -2.8
v -6.4 1 -3.5
v -7.2 0.9 -2.7
v -7.2 1 -2.7
v -6.5 0.9 -2.7
v -6.5 1 -2.7
v -7.3 0.9 -2.8
v -7.3 1 -2.8
v -7.2 0.4 -2.8
v -7.2 0.9 -2.8
v -7.2 1 -2.8
v -7.2 1.1 -2.8
v -7.1 0 -2.8
v -7.1 0.1 -2.8
v -7.1 0.4 -2.8
v -7.1 0.9 -2.8
v -7.1 1 -2.8
v -7.1 1.1 -2.8
v -7.1 1.2 -2.8
v -7 0.1 -2.8
v -7 0.4 -2.8
v -6.7 0.1 -2.8
v -6.7 0.4 -2.8
v -6.6 0 -2.8
v -6.6 0.1 -2.8
v -6.6 0.4 -2.8
v -6.6 0.9 -2.8
v -6.6 1 -2.8
v -6.6 1.1 -2.8
v -6.6 1.2 -2.8
v -6.5 0.4 -2.8
v -6.5 0.9 -2.8
v -6.5 1 -2.8
v -6.5 1.1 -2.8
v -6.4 0.9 -2.8
v -6.4 1 -2.8
v -7.2 0 -2.9
v -7.2 0.1 -2.9
v -7.2 0.4 -2.9
v -7.2 1.1 -2.9
v -7.2 1.3 -2.9
v -7.1 0 -2.9
v -7.1 0.1 -2.9
v -7.1 0.4 -2.9
v -7.1 1.1 -2.9
v -7.1 1.2 -2.9
v -7.1 1.3 -2.9
v -7.1 1.4 -2.9
v -6.6 0 -2.9
v -6.6 0.1 -2.9
v -6.6 0.4 -2.9
v -6.6 1.1 -2.9
v -6.6 1.2 -2.9
v -6.6 1.3 -2.9
v -6.6 1.4 -2.9
v -6.5 0 -2.9
v -6.5 0.1 -2.9
v -6.5 0.4 -2.9
v -6.5 1.1 -2.9
v -6.5 1.3 -2.9
v -7.2 1.3 -3
v -7.2 1.4 -3
v -7.1 1.3 -3
v -7.1 1.4 -3
v -6.6 1.3 -3
v -6.6 1.4 -3
v -6.5 1.3 -3
v -6.5 1.4 -3
v -6.6 1.1 -3.3
v -6.6 1.3 -3.3
v -6.5 1.1 -3.3
v -6.5 1.3 -3.3
v -6.6 1 -3.4
v -6.6 1.1 -3.4
v -6.5 1 -3.4
v -6.5 1.1 -3.4
v -6.6 1 -2.9
v -6.6 1.1 -2.9
v -6.5 1 -2.9
v -6.5 1.1 -2.9
v -6.6 1.1 -3
v -6.6 1.3 -3
v -6.5 1.1 -3
v -6.5 1.3 -3
v -7.2 1.3 -3.3
v -7.2 1.4 -3.3
v -7.1 1.3 -3.3
v -7.1 1.4 -3.3
v -6.6 1.3 -3.3
v -6.6 1.4 -3.3
v -6.5 1.3 -3.3
v -6.5 1.4 -3.3
v -7.2 0 -3.4
v -7.2 0.1 -3.4
v -7.2 0.4 -3.4
v -7.2 1.1 -3.4
v -7.2 1.3 -3.4
v -7.1 0 -3.4
v -7.1 0.1 -3.4
v -7.1 0.4 -3.4
v -7.1 1.1 -3.4
v -7.1 1.2 -3.4
v -7.1 1.3 -3.4
v -7.1 1.4 -3.4
v -6.6 0 -3.4
v -6.6 0.1 -3.4
v -6.6 0.4 -3.4
v -6.6 1.1 -3.4
v -6.6 1.2 -3.4
v -6.6 1.3 -3.4
v -6.6 1.4 -3.4
v -6.5 0 -3.4
v -6.5 0.1 -3.4
v -6.5 0.4 -3.4
v -6.5 1.1 -3.4
v -6.5 1.3 -3.4
v -7.3 0.9 -3.5
v -7.3 1 -3.5
v -7.2 0.4 -3.5
v -7.2 0.9 -3.5
v -7.2 1 -3.5
v -7.2 1.1 -3.5
v -7.1 0 -3.5
v -7.1 0.1 -3.5
v -7.1 0.4 -3.5
v -7.1 0.9 -3.5
v -7.1 1 -3.5
v -7.1 1.1 -3.5
v -7.1 1.2 -3.5
v -7 0.1 -3.5
v -7 0.4 -3.5
v -6.7 0.1 -3.5
v -6.7 0.4 -3.5
v -6.6 0 -3.5
v -6.6 0.1 -3.5
v -6.6 0.4 -3.5
v -6.6 0.9 -3.5
v -6.6 1 -3.5
v -6.6 1.1 -3.5
v -6.6 1.2 -3.5
v -6.5 0.4 -3.5
v -6.5 0.9 -3.5
v -6.5 1 -3.5
v -6.5 1.1 -3.5
v -6.4 0.9 -3.5
v -6.4 1 -3.5
v -7.2 0.9 -3.6
v -7.2 1 -3.6
v -6.5 0.9 -3.6
v -6.5 1 -3.6
v -7.1 0 -2.8
v -6.6 0 -2.8
v -7.2 0 -2.9
v -7.1 0 -2.9
v -6.6 0 -2.9
v -6.5 0 -2.9
v -7.2 0 -3.4
v -7.1 0 -3.4
v -6.6 0 -3.4
v -6.5 0 -3.4
v -7.1 0 -3.5
v -6.6 0 -3.5
v -7.2 0.4 -2.8
v -7.1 0.4 -2.8
v -6.6 0.4 -2.8
v -6.5 0.4 -2.8
v -7.2 0.4 -2.9
v -7.1 0.4 -2.9
v -6.6 0.4 -2.9
v -6.5 0.4 -2.9
v -7.2 0.4 -3.4
v -7.1 0.4 -3.4
v -6.6 0.4 -3.4
v -6.5 0.4 -3.4
v -7.2 0.4 -3.5
v -7.1 0.4 -3.5
v -6.6 0.4 -3.5
v -6.5 0.4 -3.5
v -7.2 0.9 -2.7
v -6.5 0.9 -2.7
v -7.3 0.9 -2.8
v -7.2 0.9 -2.8
v -7.1 0.9 -2.8
v -6.6 0.9 -2.8
v -6.5 0.9 -2.8
v -6.4 0.9 -2.8
v -7.2 0.9 -2.9
v -6.5 0.9 -2.9
v -7.2 0.9 -3.4
v -6.5 0.9 -3.4
v -7.3 0.9 -3.5
v -7.2 0.9 -3.5
v -7.1 0.9 -3.5
v -6.6 0.9 -3.5
v -6.5 0.9 -3.5
v -6.4 0.9 -3.5
v -7.2 0.9 -3.6
v -6.5 0.9 -3.6
v -6.6 1.1 -2.9
v -6.5 1.1 -2.9
v -6.6 1.1 -3
v -6.5 1.1 -3
v -6.6 1.1 -3.3
v -6.5 1.1 -3.3
v -6.6 1.1 -3.4
v -6.5 1.1 -3.4
v -6.6 1.3 -3
v -6.5 1.3 -3
v -6.6 1.3 -3.3
v -6.5 1.3 -3.3
v -7.2 1 -2.7
v -6.5 1 -2.7
v -7.3 1 -2.8
v -7.2 1 -2.8
v -7.1 1 -2.8
v -6.6 1 -2.8
v -6.5 1 -2.8
v -6.4 1 -2.8
v -7.2 1 -2.9
v -6.6 1 -2.9
v -6.5 1 -2.9
v -7.2 1 -3.4
v -6.6 1 -3.4
v -6.5 1 -3.4
v -7.3 1 -3.5
v -7.2 1 -3.5
v -7.1 1 -3.5
v -6.6 1 -3.5
v -6.5 1 -3.5
v -6.4 1 -3.5
v -7.2 1 -3.6
v -6.5 1 -3.6
v -7.2 1.1 -2.8
v -7.1 1.1 -2.8
v -6.6 1.1 -2.8
v -6.5 1.1 -2.8
v -7.2 1.1 -2.9
v -7.1 1.1 -2.9
v -6.6 1.1 -2.9
v -6.5 1.1 -2.9
v -7.2 1.1 -3.4
v -7.1 1.1 -3.4
v -6.6 1.1 -3.4
v -6.5 1.1 -3.4
v -7.2 1.1 -3.5
v -7.1 1.1 -3.5
v -6.6 1.1 -3.5
v -6.5 1.1 -3.5
v -7.1 1.2 -2.8
v -6.6 1.2 -2.8
v -7.1 1.2 -2.9
v -6.6 1.2 -2.9
v -7.1 1.2 -3.4
v -6.6 1.2 -3.4
v -7.1 1.2 -3.5
v -6.6 1.2 -3.5
v -7.2 1.3 -2.9
v -7.1 1.3 -2.9
v -6.6 1.3 -2.9
v -6.5 1.3 -2.9
v -7.2 1.3 -3
v -7.1 1.3 -3
v -6.6 1.3 -3
v -6.5 1.3 -3
v -7.2 1.3 -3.3
v -7.1 1.3 -3.3
v -6.6 1.3 -3.3
v -6.5 1.3 -3.3
v -7.2 1.3 -3.4
v -7.1 1.3 -3.4
v -6.6 1.3 -3.4
v -6.5 1.3 -3.4
v -7.1 1.4 -2.9
v -6.6 1.4 -2.9
v -7.2 1.4 -3
v -7.1 1.4 -3
v -6.6 1.4 -3
v -6.5 1.4 -3
v -7.2 1.4 -3.3
v -7.1 1.4 -3.3
v -6.6 1.4 -3.3
v -6.5 1.4 -3.3
v -7.1 1.4 -3.4
v -6.6 1.4 -3.4

# faces
f 3/1/1 2/1/1 1/1/1
f 4/1/1 2/1/1 3/1/1
f 7/1/1 6/1/1 5/1/1
f 8/1/1 6/1/1 7/1/1
f 9/1/1 6/1/1 8/1/1
f 10/1/1 6/1/1 9/1/1
f 12/2/1 8/2/1 7/2/1
f 13/3/1 9/3/1 8/3/1
f 13/2/1 8/2/1 12/2/1
f 14/2/1 10/2/1 9/2/1
f 14/3/1 9/3/1 13/3/1
f 15/2/1 10/2/1 14/2/1
f 18/2/1 12/2/1 11/2/1
f 19/3/1 15/3/1 14/3/1
f 19/3/1 13/3/1 12/3/1
f 19/2/1 12/2/1 18/2/1
f 19/3/1 14/3/1 13/3/1
f 20/2/1 16/2/1 15/2/1
f 20/3/1 15/3/1 19/3/1
f 21/2/1 16/2/1 20/2/1
f 23/1/1 18/1/1 17/1/1
f 24/1/1 18/1/1 23/1/1
f 27/1/1 22/1/1 21/1/1
f 28/1/1 22/1/1 27/1/1
f 29/2/1 25/2/1 24/2/1
f 30/3/1 26/3/1 25/3/1
f 30/2/1 25/2/1 29/2/1
f 31/3/1 26/3/1 30/3/1
f 32/3/1 26/3/1 31/3/1
f 33/2/1 27/2/1 26/2/1
f 33/3/1 26/3/1 32/3/1
f 34/2/1 27/2/1 33/2/1
f 35/2/1 31/2/1 30/2/1
f 36/3/1 32/3/1 31/3/1
f 36/2/1 31/2/1 35/2/1
f 37/2/1 33/2/1 32/2/1
f 37/3/1 32/3/1 36/3/1
f 38/2/1 33/2/1 37/2/1
f 39/2/1 37/2/1 36/2/1
f 40/2/1 37/2/1 39/2/1
f 45/1/1 42/1/1 41/1/1
f 46/1/1 42/1/1 45/1/1
f 47/1/1 44/1/1 43/1/1
f 48/1/1 44/1/1 47/1/1
f 49/2/1 46/2/1 45/2/1
f 50/2/1 46/2/1 49/2/1
f 51/2/1 48/2/1 47/2/1
f 52/2/1 48/2/1 51/2/1
f 57/2/1 54/2/1 53/2/1
f 58/2/1 54/2/1 57/2/1
f 59/2/1 56/2/1 55/2/1
f 60/2/1 56/2/1 59/2/1
f 65/2/1 62/2/1 61/2/1
f 66/2/1 62/2/1 65/2/1
f 67/2/1 64/2/1 63/2/1
f 68/2/1 64/2/1 67/2/1
f 69/1/2 70/1/2 73/1/2
f 73/1/2 70/1/2 74/1/2
f 71/1/2 72/1/2 75/1/2
f 75/1/2 72/1/2 76/1/2
f 73/2/2 74/2/2 77/2/2
f 77/2/2 74/2/2 78/2/2
f 75/2/2 76/2/2 79/2/2
f 79/2/2 76/2/2 80/2/2
f 81/5/2 82/5/2 84/5/2
f 84/5/2 82/5/2 85/5/2
f 85/5/2 82/5/2 86/5/2
f 86/5/2 82/5/2 87/5/2
f 83/2/2 84/2/2 89/2/2
f 89/2/2 84/2/2 90/2/2
f 87/2/2 88/2/2 91/2/2
f 91/2/2 88/2/2 92/2/2
f 85/5/2 86/5/2 94/5/2
f 94/5/2 86/5/2 95/5/2
f 93/2/2 94/2/2 97/2/2
f 97/2/2 94/2/2 98/2/2
f 95/2/2 96/2/2 99/2/2
f 99/2/2 96/2/2 100/2/2
f 101/1/2 102/1/2 103/1/2
f 103/1/2 102/1/2 104/1/2
f 104/1/2 102/1/2 105/1/2
f 105/1/2 102/1/2 106/1/2
f 103/2/2 104/2/2 108/2/2
f 104/3/2 105/3/2 109/3/2
f 108/2/2 104/2/2 109/2/2
f 105/2/2 106/2/2 110/2/2
f 109/3/2 105/3/2 110/3/2
f 110/2/2 106/2/2 111/2/2
f 110/3/2 111/3/2 113/3/2
f 108/3/2 109/3/2 113/3/2
f 109/3/2 110/3/2 113/3/2
f 113/3/2 111/3/2 114/3/2
f 114/3/2 111/3/2 115/3/2
f 115/3/2 111/3/2 116/3/2
f 108/3/2 113/3/2 117/3/2
f 113/4/2 114/4/2 117/4/2
f 114/3/2 115/3/2 118/3/2
f 117/4/2 114/4/2 118/4/2
f 115/4/2 116/4/2 119/4/2
f 118/3/2 115/3/2 119/3/2
f 116/3/2 111/3/2 120/3/2
f 119/4/2 116/4/2 120/4/2
f 118/4/2 119/4/2 121/4/2
f 117/3/2 118/3/2 121/3/2
f 119/3/2 120/3/2 122/3/2
f 121/4/2 119/4/2 122/4/2
f 107/2/2 108/2/2 124/2/2
f 117/3/2 121/3/2 125/3/2
f 108/3/2 117/3/2 125/3/2
f 124/2/2 108/2/2 125/2/2
f 121/3/2 122/3/2 125/3/2
f 111/2/2 112/2/2 126/2/2
f 125/3/2 122/3/2 126/3/2
f 122/3/2 120/3/2 126/3/2
f 120/3/2 111/3/2 126/3/2
f 126/2/2 112/2/2 127/2/2
f 123/1/2 124/1/2 129/1/2
f 129/1/2 124/1/2 130/1/2
f 127/1/2 128/1/2 133/1/2
f 133/1/2 128/1/2 134/1/2
f 130/2/2 131/2/2 135/2/2
f 135/2/2 131/2/2 136/2/2
f 132/2/2 133/2/2 139/2/2
f 139/2/2 133/2/2 140/2/2
f 136/2/2 137/2/2 141/2/2
f 141/2/2 137/2/2 142/2/2
f 138/2/2 139/2/2 143/2/2
f 143/2/2 139/2/2 144/2/2
f 142/2/2 143/2/2 145/2/2
f 145/2/2 143/2/2 146/2/2
f 147/1/2 148/1/2 149/1/2
f 149/1/2 148/1/2 150/1/2
f 153/1/3 152/1/3 151/1/3
f 154/1/3 152/1/3 153/1/3
f 158/1/3 156/1/3 155/1/3
f 159/1/3 156/1/3 158/1/3
f 163/2/3 158/2/3 157/2/3
f 164/2/3 158/2/3 163/2/3
f 165/2/3 160/2/3 159/2/3
f 166/2/3 160/2/3 165/2/3
f 168/1/3 162/1/3 161/1/3
f 168/2/3 163/2/3 162/2/3
f 169/3/3 164/3/3 163/3/3
f 169/2/3 163/2/3 168/2/3
f 170/1/3 168/1/3 161/1/3
f 170/3/3 169/3/3 168/3/3
f 171/3/3 164/3/3 169/3/3
f 171/3/3 169/3/3 170/3/3
f 172/1/3 170/1/3 161/1/3
f 173/2/3 171/2/3 170/2/3
f 173/1/3 170/1/3 172/1/3
f 174/3/3 164/3/3 171/3/3
f 174/2/3 171/2/3 173/2/3
f 175/3/3 164/3/3 174/3/3
f 176/3/3 166/3/3 165/3/3
f 177/2/3 167/2/3 166/2/3
f 177/3/3 166/3/3 176/3/3
f 178/2/3 167/2/3 177/2/3
f 179/2/3 175/2/3 174/2/3
f 180/2/3 175/2/3 179/2/3
f 181/2/3 177/2/3 176/2/3
f 182/2/3 177/2/3 181/2/3
f 183/1/3 181/1/3 180/1/3
f 184/1/3 181/1/3 183/1/3
f 190/1/3 186/1/3 185/1/3
f 191/2/3 187/2/3 186/2/3
f 191/1/3 186/1/3 190/1/3
f 192/2/3 187/2/3 191/2/3
f 193/2/3 189/2/3 188/2/3
f 194/2/3 189/2/3 193/2/3
f 195/2/3 189/2/3 194/2/3
f 201/3/3 195/3/3 194/3/3
f 202/2/3 196/2/3 195/2/3
f 202/3/3 195/3/3 201/3/3
f 203/2/3 196/2/3 202/2/3
f 204/1/3 198/1/3 197/1/3
f 205/2/3 199/2/3 198/2/3
f 205/1/3 198/1/3 204/1/3
f 206/2/3 199/2/3 205/2/3
f 207/2/3 201/2/3 200/2/3
f 207/2/3 202/2/3 201/2/3
f 208/2/3 202/2/3 207/2/3
f 211/2/3 210/2/3 209/2/3
f 212/2/3 210/2/3 211/2/3
f 215/2/3 214/2/3 213/2/3
f 216/2/3 214/2/3 215/2/3
f 219/2/3 218/2/3 217/2/3
f 220/2/3 218/2/3 219/2/3
f 223/2/3 222/2/3 221/2/3
f 224/2/3 222/2/3 223/2/3
f 225/2/4 226/2/4 227/2/4
f 227/2/4 226/2/4 228/2/4
f 229/2/4 230/2/4 231/2/4
f 231/2/4 230/2/4 232/2/4
f 233/2/4 234/2/4 235/2/4
f 235/2/4 234/2/4 236/2/4
f 237/2/4 238/2/4 239/2/4
f 239/2/4 238/2/4 240/2/4
f 241/1/4 242/1/4 246/1/4
f 242/2/4 243/2/4 247/2/4
f 246/1/4 242/1/4 247/1/4
f 247/2/4 243/2/4 248/2/4
f 244/2/4 245/2/4 249/2/4
f 249/2/4 245/2/4 250/2/4
f 250/2/4 245/2/4 251/2/4
f 250/3/4 251/3/4 257/3/4
f 251/2/4 252/2/4 258/2/4
f 257/3/4 251/3/4 258/3/4
f 258/2/4 252/2/4 259/2/4
f 253/1/4 254/1/4 260/1/4
f 254/2/4 255/2/4 261/2/4
f 260/1/4 254/1/4 261/1/4
f 261/2/4 255/2/4 262/2/4
f 256/2/4 257/2/4 263/2/4
f 257/2/4 258/2/4 263/2/4
f 263/2/4 258/2/4 264/2/4
f 265/1/4 266/1/4 268/1/4
f 268/1/4 266/1/4 269/1/4
f 267/2/4 268/2/4 273/2/4
f 273/2/4 268/2/4 274/2/4
f 269/2/4 270/2/4 275/2/4
f 275/2/4 270/2/4 276/2/4
f 271/1/4 272/1/4 278/1/4
f 272/2/4 273/2/4 278/2/4
f 273/3/4 274/3/4 279/3/4
f 278/2/4 273/2/4 279/2/4
f 271/1/4 278/1/4 280/1/4
f 278/3/4 279/3/4 280/3/4
f 279/3/4 274/3/4 281/3/4
f 280/3/4 279/3/4 281/3/4
f 271/1/4 280/1/4 282/1/4
f 280/2/4 281/2/4 283/2/4
f 282/1/4 280/1/4 283/1/4
f 281/3/4 274/3/4 284/3/4
f 283/2/4 281/2/4 284/2/4
f 284/3/4 274/3/4 285/3/4
f 275/3/4 276/3/4 286/3/4
f 276/2/4 277/2/4 287/2/4
f 286/3/4 276/3/4 287/3/4
f 287/2/4 277/2/4 288/2/4
f 284/2/4 285/2/4 289/2/4
f 289/2/4 285/2/4 290/2/4
f 286/2/4 287/2/4 291/2/4
f 291/2/4 287/2/4 292/2/4
f 290/1/4 291/1/4 293/1/4
f 293/1/4 291/1/4 294/1/4
f 295/1/4 296/1/4 297/1/4
f 297/1/4 296/1/4 298/1/4
f 302/1/5 300/1/5 299/1/5
f 303/1/5 300/1/5 302/1/5
f 305/1/5 302/1/5 301/1/5
f 305/1/5 304/1/5 303/1/5
f 305/1/5 303/1/5 302/1/5
f 306/1/5 304/1/5 305/1/5
f 307/1/5 304/1/5 306/1/5
f 308/1/5 304/1/5 307/1/5
f 309/1/5 307/1/5 306/1/5
f 310/1/5 307/1/5 309/1/5
f 315/2/5 312/2/5 311/2/5
f 316/2/5 312/2/5 315/2/5
f 317/2/5 314/2/5 313/2/5
f 318/2/5 314/2/5 317/2/5
f 323/2/5 320/2/5 319/2/5
f 324/2/5 320/2/5 323/2/5
f 325/2/5 322/2/5 321/2/5
f 326/2/5 322/2/5 325/2/5
f 330/1/5 328/1/5 327/1/5
f 331/1/5 328/1/5 330/1/5
f 332/1/5 328/1/5 331/1/5
f 333/1/5 328/1/5 332/1/5
f 335/1/5 330/1/5 329/1/5
f 336/1/5 334/1/5 333/1/5
f 337/1/5 335/1/5 329/1/5
f 338/1/5 334/1/5 336/1/5
f 339/1/5 337/1/5 329/1/5
f 340/1/5 337/1/5 339/1/5
f 343/1/5 334/1/5 338/1/5
f 344/1/5 334/1/5 343/1/5
f 345/1/5 342/1/5 341/1/5
f 345/1/5 343/1/5 342/1/5
f 345/1/5 341/1/5 340/1/5
f 346/1/5 343/1/5 345/1/5
f 349/2/5 348/2/5 347/2/5
f 350/2/5 348/2/5 349/2/5
f 353/2/5 352/2/5 351/2/5
f 354/2/5 352/2/5 353/2/5
f 357/2/5 356/2/5 355/2/5
f 358/2/5 356/2/5 357/2/5
f 359/1/6 360/1/6 362/1/6
f 362/1/6 360/1/6 363/1/6
f 363/1/6 360/1/6 364/1/6
f 364/1/6 360/1/6 365/1/6
f 361/1/6 362/1/6 367/1/6
f 365/1/6 366/1/6 369/1/6
f 361/1/6 367/1/6 370/1/6
f 368/1/6 369/1/6 371/1/6
f 369/1/6 366/1/6 372/1/6
f 371/1/6 369/1/6 372/1/6
f 361/1/6 370/1/6 373/1/6
f 373/1/6 370/1/6 374/1/6
f 372/1/6 366/1/6 377/1/6
f 377/1/6 366/1/6 378/1/6
f 375/1/6 376/1/6 379/1/6
f 376/1/6 377/1/6 379/1/6
f 374/1/6 375/1/6 379/1/6
f 379/1/6 377/1/6 380/1/6
f 381/2/6 382/2/6 385/2/6
f 385/2/6 382/2/6 386/2/6
f 383/2/6 384/2/6 387/2/6
f 387/2/6 384/2/6 388/2/6
f 389/2/6 390/2/6 393/2/6
f 393/2/6 390/2/6 394/2/6
f 391/2/6 392/2/6 395/2/6
f 395/2/6 392/2/6 396/2/6
f 397/2/6 398/2/6 399/2/6
f 399/2/6 398/2/6 400/2/6
f 401/2/6 402/2/6 403/2/6
f 403/2/6 402/2/6 404/2/6
f 405/2/6 406/2/6 409/2/6
f 409/2/6 406/2/6 410/2/6
f 407/2/6 408/2/6 411/2/6
f 411/2/6 408/2/6 412/2/6
f 413/2/6 414/2/6 417/2/6
f 417/2/6 414/2/6 418/2/6
f 415/2/6 416/2/6 419/2/6
f 419/2/6 416/2/6 420/2/6
f 421/2/6 422/2/6 424/2/6
f 424/2/6 422/2/6 425/2/6
f 423/2/6 424/2/6 427/2/6
f 424/3/6 425/3/6 428/3/6
f 427/2/6 424/2/6 428/2/6
f 425/2/6 426/2/6 429/2/6
f 428/3/6 425/3/6 429/3/6
f 429/2/6 426/2/6 430/2/6
f 428/2/6 429/2/6 431/2/6
f 431/2/6 429/2/6 432/2/6
