# MagicaVoxel @ Ephtracy

# group
o 

# material
mtllib Chair.mtl
usemtl palette

# normals
vn -1 0 0
vn 1 0 0
vn 0 0 1
vn 0 0 -1
vn 0 -1 0
vn 0 1 0

# texcoords
vt 0.306641 0.5
vt 0.947266 0.5
vt 0.994141 0.5

# verts
v -2 0 1.9
v -2 0 1.8
v -2 0 -1.7
v -2 0 -1.9
v -2 0.9 2
v -2 0.9 1.9
v -2 0.9 1.8
v -2 0.9 -1.7
v -2 0.9 -1.9
v -2 0.9 -2
v -2 1.2 2
v -2 1.2 -1.4
v -2 1.2 -2
v -2 1.9 -1.4
v -2 1.9 -2
v -2 2.1 2
v -2 2.1 -1.4
v -2 2.3 2
v -2 2.3 -1.4
v -2 3.6 -1.4
v -2 3.6 -2
v -1.9 0 2
v -1.9 0 1.9
v -1.9 0 -1.9
v -1.9 0 -2
v -1.9 0.9 2
v -1.9 0.9 1.9
v -1.9 0.9 -1.9
v -1.9 0.9 -2
v 1.6 1.1 -1.3
v 1.6 1.1 -1.7
v 1.6 1.2 -1.3
v 1.6 1.2 -1.4
v 1.6 1.2 -1.7
v 1.6 1.2 -2
v 1.6 1.9 -1.4
v 1.6 1.9 -2
v 1.7 0 2
v 1.7 0 1.6
v 1.7 0 -1.8
v 1.7 0 -2
v 1.7 0.9 2
v 1.7 0.9 1.6
v 1.7 0.9 -1.8
v 1.7 0.9 -2
v -1.7 0 2
v -1.7 0 1.8
v -1.7 0 -1.7
v -1.7 0 -2
v -1.7 0.9 2
v -1.7 0.9 1.8
v -1.7 0.9 -1.7
v -1.7 0.9 -2
v -1.6 1.2 -1.8
v -1.6 1.2 -2
v -1.6 1.9 -1.8
v -1.6 1.9 -2
v -1.5 1.1 -1.3
v -1.5 1.1 -1.7
v -1.5 1.2 -1.3
v -1.5 1.2 -1.4
v -1.5 1.2 -1.7
v -1.5 1.2 -1.8
v -1.5 1.9 -1.4
v -1.5 1.9 -1.8
v -1.2 2.1 -2.38419e-07
v -1.2 2.1 -1.4
v -1.2 2.3 -2.38419e-07
v -1.2 2.3 -1.4
v -0.2 2.1 2
v -0.2 2.1 -2.38419e-07
v -0.2 2.3 2
v -0.2 2.3 -2.38419e-07
v 1.9 0 2
v 1.9 0 1.9
v 1.9 0 -1.9
v 1.9 0 -2
v 1.9 0.9 2
v 1.9 0.9 1.9
v 1.9 0.9 -1.9
v 1.9 0.9 -2
v 2 0 1.9
v 2 0 1.6
v 2 0 -1.8
v 2 0 -1.9
v 2 0.9 2
v 2 0.9 1.9
v 2 0.9 1.6
v 2 0.9 -1.8
v 2 0.9 -1.9
v 2 0.9 -2
v 2 1.2 2
v 2 1.2 -1.4
v 2 1.2 -2
v 2 1.9 -1.4
v 2 1.9 -2
v 2 3.6 -1.4
v 2 3.6 -2
v -2 0.9 2
v -2 1.2 2
v -2 2.1 2
v -2 2.3 2
v -1.9 0 2
v -1.9 0.9 2
v -1.7 0 2
v -1.7 0.9 2
v -0.2 2.1 2
v -0.2 2.3 2
v 1.7 0 2
v 1.7 0.9 2
v 1.9 0 2
v 1.9 0.9 2
v 2 0.9 2
v 2 1.2 2
v -2 0 1.9
v -2 0.9 1.9
v -1.9 0 1.9
v -1.9 0.9 1.9
v 1.9 0 1.9
v 1.9 0.9 1.9
v 2 0 1.9
v 2 0.9 1.9
v -2 1.2 -1.4
v -2 1.9 -1.4
v -2 2.1 -1.4
v -2 2.3 -1.4
v -2 3.6 -1.4
v -1.5 1.2 -1.4
v -1.5 1.9 -1.4
v -1.2 2.1 -1.4
v -1.2 2.3 -1.4
v 1.6 1.2 -1.4
v 1.6 1.9 -1.4
v 2 1.2 -1.4
v 2 1.9 -1.4
v 2 3.6 -1.4
v -2 0 -1.7
v -2 0.9 -1.7
v -1.7 0 -1.7
v -1.7 0.9 -1.7
v -1.5 1.1 -1.7
v -1.5 1.2 -1.7
v 1.6 1.1 -1.7
v 1.6 1.2 -1.7
v 1.7 0 -1.8
v 1.7 0.9 -1.8
v 2 0 -1.8
v 2 0.9 -1.8
v -2 0 1.8
v -2 0.9 1.8
v -1.7 0 1.8
v -1.7 0.9 1.8
v 1.7 0 1.6
v 1.7 0.9 1.6
v 2 0 1.6
v 2 0.9 1.6
v -1.2 2.1 -2.38419e-07
v -1.2 2.3 -2.38419e-07
v -0.2 2.1 -2.38419e-07
v -0.2 2.3 -2.38419e-07
v -1.5 1.1 -1.3
v -1.5 1.2 -1.3
v 1.6 1.1 -1.3
v 1.6 1.2 -1.3
v -1.6 1.2 -1.8
v -1.6 1.9 -1.8
v -1.5 1.2 -1.8
v -1.5 1.9 -1.8
v -2 0 -1.9
v -2 0.9 -1.9
v -1.9 0 -1.9
v -1.9 0.9 -1.9
v 1.9 0 -1.9
v 1.9 0.9 -1.9
v 2 0 -1.9
v 2 0.9 -1.9
v -2 0.9 -2
v -2 1.2 -2
v -2 1.9 -2
v -2 3.6 -2
v -1.9 0 -2
v -1.9 0.9 -2
v -1.7 0 -2
v -1.7 0.9 -2
v -1.6 1.2 -2
v -1.6 1.9 -2
v 1.6 1.2 -2
v 1.6 1.9 -2
v 1.7 0 -2
v 1.7 0.9 -2
v 1.9 0 -2
v 1.9 0.9 -2
v 2 0.9 -2
v 2 1.2 -2
v 2 1.9 -2
v 2 3.6 -2
v -1.9 0 2
v -1.7 0 2
v 1.7 0 2
v 1.9 0 2
v -2 0 1.9
v -1.9 0 1.9
v 1.9 0 1.9
v 2 0 1.9
v -2 0 1.8
v -1.7 0 1.8
v 1.7 0 1.6
v 2 0 1.6
v -2 0 -1.7
v -1.7 0 -1.7
v 1.7 0 -1.8
v 2 0 -1.8
v -2 0 -1.9
v -1.9 0 -1.9
v 1.9 0 -1.9
v 2 0 -1.9
v -1.9 0 -2
v -1.7 0 -2
v 1.7 0 -2
v 1.9 0 -2
v -2 0.9 2
v -1.9 0.9 2
v -1.7 0.9 2
v 1.7 0.9 2
v 1.9 0.9 2
v 2 0.9 2
v -2 0.9 1.9
v -1.9 0.9 1.9
v 1.9 0.9 1.9
v 2 0.9 1.9
v -2 0.9 1.8
v -1.7 0.9 1.8
v 1.7 0.9 1.6
v 2 0.9 1.6
v -2 0.9 -1.7
v -1.7 0.9 -1.7
v 1.7 0.9 -1.8
v 2 0.9 -1.8
v -2 0.9 -1.9
v -1.9 0.9 -1.9
v 1.9 0.9 -1.9
v 2 0.9 -1.9
v -2 0.9 -2
v -1.9 0.9 -2
v -1.7 0.9 -2
v 1.7 0.9 -2
v 1.9 0.9 -2
v 2 0.9 -2
v -1.5 1.9 -1.4
v 1.6 1.9 -1.4
v -1.6 1.9 -1.8
v -1.5 1.9 -1.8
v -1.6 1.9 -2
v 1.6 1.9 -2
v -2 2.1 2
v -0.2 2.1 2
v -1.2 2.1 -2.38419e-07
v -0.2 2.1 -2.38419e-07
v -2 2.1 -1.4
v -1.2 2.1 -1.4
v -1.5 1.1 -1.3
v 1.6 1.1 -1.3
v -1.5 1.1 -1.7
v 1.6 1.1 -1.7
v -2 1.2 2
v 2 1.2 2
v -1.5 1.2 -1.3
v 1.6 1.2 -1.3
v -2 1.2 -1.4
v -1.5 1.2 -1.4
v 1.6 1.2 -1.4
v 2 1.2 -1.4
v -1.5 1.2 -1.7
v 1.6 1.2 -1.7
v -1.6 1.2 -1.8
v -1.5 1.2 -1.8
v -1.6 1.2 -2
v 1.6 1.2 -2
v -2 2.3 2
v -0.2 2.3 2
v -1.2 2.3 -2.38419e-07
v -0.2 2.3 -2.38419e-07
v -2 2.3 -1.4
v -1.2 2.3 -1.4
v -2 3.6 -1.4
v 2 3.6 -1.4
v -2 3.6 -2
v 2 3.6 -2

# faces
f 6/3/1 2/3/1 1/3/1
f 7/3/1 2/3/1 6/3/1
f 8/3/1 4/3/1 3/3/1
f 9/3/1 4/3/1 8/3/1
f 11/2/1 7/2/1 6/2/1
f 11/2/1 10/2/1 9/2/1
f 11/2/1 9/2/1 8/2/1
f 11/2/1 8/2/1 7/2/1
f 11/2/1 6/2/1 5/2/1
f 12/2/1 10/2/1 11/2/1
f 13/2/1 10/2/1 12/2/1
f 14/3/1 13/3/1 12/3/1
f 15/3/1 13/3/1 14/3/1
f 17/1/1 15/1/1 14/1/1
f 18/1/1 17/1/1 16/1/1
f 19/1/1 15/1/1 17/1/1
f 19/1/1 17/1/1 18/1/1
f 20/1/1 15/1/1 19/1/1
f 21/1/1 15/1/1 20/1/1
f 26/3/1 23/3/1 22/3/1
f 27/3/1 23/3/1 26/3/1
f 28/3/1 25/3/1 24/3/1
f 29/3/1 25/3/1 28/3/1
f 32/2/1 31/2/1 30/2/1
f 33/2/1 31/2/1 32/2/1
f 34/2/1 31/2/1 33/2/1
f 36/3/1 35/3/1 34/3/1
f 36/3/1 34/3/1 33/3/1
f 37/3/1 35/3/1 36/3/1
f 42/3/1 39/3/1 38/3/1
f 43/3/1 39/3/1 42/3/1
f 44/3/1 41/3/1 40/3/1
f 45/3/1 41/3/1 44/3/1
f 46/3/2 47/3/2 50/3/2
f 50/3/2 47/3/2 51/3/2
f 48/3/2 49/3/2 52/3/2
f 52/3/2 49/3/2 53/3/2
f 54/3/2 55/3/2 56/3/2
f 56/3/2 55/3/2 57/3/2
f 58/2/2 59/2/2 60/2/2
f 60/2/2 59/2/2 61/2/2
f 61/2/2 59/2/2 62/2/2
f 62/3/2 63/3/2 64/3/2
f 61/3/2 62/3/2 64/3/2
f 64/3/2 63/3/2 65/3/2
f 66/1/2 67/1/2 68/1/2
f 68/1/2 67/1/2 69/1/2
f 70/1/2 71/1/2 72/1/2
f 72/1/2 71/1/2 73/1/2
f 74/3/2 75/3/2 78/3/2
f 78/3/2 75/3/2 79/3/2
f 76/3/2 77/3/2 80/3/2
f 80/3/2 77/3/2 81/3/2
f 82/3/2 83/3/2 87/3/2
f 87/3/2 83/3/2 88/3/2
f 84/3/2 85/3/2 89/3/2
f 89/3/2 85/3/2 90/3/2
f 87/2/2 88/2/2 92/2/2
f 90/2/2 91/2/2 92/2/2
f 89/2/2 90/2/2 92/2/2
f 88/2/2 89/2/2 92/2/2
f 86/2/2 87/2/2 92/2/2
f 92/2/2 91/2/2 93/2/2
f 93/2/2 91/2/2 94/2/2
f 93/3/2 94/3/2 95/3/2
f 95/3/2 94/3/2 96/3/2
f 95/1/2 96/1/2 97/1/2
f 97/1/2 96/1/2 98/1/2
f 104/2/3 100/2/3 99/2/3
f 105/3/3 104/3/3 103/3/3
f 106/2/3 100/2/3 104/2/3
f 106/3/3 104/3/3 105/3/3
f 107/1/3 102/1/3 101/1/3
f 108/1/3 102/1/3 107/1/3
f 110/2/3 100/2/3 106/2/3
f 111/3/3 110/3/3 109/3/3
f 112/2/3 100/2/3 110/2/3
f 112/3/3 110/3/3 111/3/3
f 113/2/3 100/2/3 112/2/3
f 114/2/3 100/2/3 113/2/3
f 117/3/3 116/3/3 115/3/3
f 118/3/3 116/3/3 117/3/3
f 121/3/3 120/3/3 119/3/3
f 122/3/3 120/3/3 121/3/3
f 128/3/3 124/3/3 123/3/3
f 129/1/3 125/1/3 124/1/3
f 129/3/3 124/3/3 128/3/3
f 130/1/3 125/1/3 129/1/3
f 131/1/3 127/1/3 126/1/3
f 133/1/3 130/1/3 129/1/3
f 133/1/3 131/1/3 130/1/3
f 134/3/3 133/3/3 132/3/3
f 135/1/3 131/1/3 133/1/3
f 135/3/3 133/3/3 134/3/3
f 136/1/3 127/1/3 131/1/3
f 136/1/3 131/1/3 135/1/3
f 139/3/3 138/3/3 137/3/3
f 140/3/3 138/3/3 139/3/3
f 143/2/3 142/2/3 141/2/3
f 144/2/3 142/2/3 143/2/3
f 147/3/3 146/3/3 145/3/3
f 148/3/3 146/3/3 147/3/3
f 149/3/4 150/3/4 151/3/4
f 151/3/4 150/3/4 152/3/4
f 153/3/4 154/3/4 155/3/4
f 155/3/4 154/3/4 156/3/4
f 157/1/4 158/1/4 159/1/4
f 159/1/4 158/1/4 160/1/4
f 161/2/4 162/2/4 163/2/4
f 163/2/4 162/2/4 164/2/4
f 165/3/4 166/3/4 167/3/4
f 167/3/4 166/3/4 168/3/4
f 169/3/4 170/3/4 171/3/4
f 171/3/4 170/3/4 172/3/4
f 173/3/4 174/3/4 175/3/4
f 175/3/4 174/3/4 176/3/4
f 177/2/4 178/2/4 182/2/4
f 181/3/4 182/3/4 183/3/4
f 182/2/4 178/2/4 184/2/4
f 183/3/4 182/3/4 184/3/4
f 178/3/4 179/3/4 185/3/4
f 184/2/4 178/2/4 185/2/4
f 179/1/4 180/1/4 186/1/4
f 185/3/4 179/3/4 186/3/4
f 184/2/4 185/2/4 187/2/4
f 186/1/4 180/1/4 188/1/4
f 184/2/4 187/2/4 190/2/4
f 189/3/4 190/3/4 191/3/4
f 190/2/4 187/2/4 192/2/4
f 191/3/4 190/3/4 192/3/4
f 192/2/4 187/2/4 193/2/4
f 187/3/4 188/3/4 194/3/4
f 193/2/4 187/2/4 194/2/4
f 188/1/4 180/1/4 195/1/4
f 194/3/4 188/3/4 195/3/4
f 195/1/4 180/1/4 196/1/4
f 202/3/5 198/3/5 197/3/5
f 203/3/5 200/3/5 199/3/5
f 205/3/5 202/3/5 201/3/5
f 206/3/5 198/3/5 202/3/5
f 206/3/5 202/3/5 205/3/5
f 207/3/5 204/3/5 203/3/5
f 207/3/5 203/3/5 199/3/5
f 208/3/5 204/3/5 207/3/5
f 213/3/5 210/3/5 209/3/5
f 214/3/5 210/3/5 213/3/5
f 215/3/5 212/3/5 211/3/5
f 216/3/5 212/3/5 215/3/5
f 217/3/5 210/3/5 214/3/5
f 218/3/5 210/3/5 217/3/5
f 219/3/5 215/3/5 211/3/5
f 220/3/5 215/3/5 219/3/5
f 227/2/5 222/2/5 221/2/5
f 228/2/5 222/2/5 227/2/5
f 229/2/5 226/2/5 225/2/5
f 230/2/5 226/2/5 229/2/5
f 232/2/5 224/2/5 223/2/5
f 233/2/5 224/2/5 232/2/5
f 233/2/5 232/2/5 231/2/5
f 235/2/5 233/2/5 231/2/5
f 235/2/5 234/2/5 233/2/5
f 236/2/5 234/2/5 235/2/5
f 237/2/5 234/2/5 236/2/5
f 238/2/5 234/2/5 237/2/5
f 243/2/5 240/2/5 239/2/5
f 244/2/5 240/2/5 243/2/5
f 245/2/5 237/2/5 236/2/5
f 246/2/5 237/2/5 245/2/5
f 247/2/5 242/2/5 241/2/5
f 248/2/5 242/2/5 247/2/5
f 252/1/5 250/1/5 249/1/5
f 253/1/5 252/1/5 251/1/5
f 254/1/5 250/1/5 252/1/5
f 254/1/5 252/1/5 253/1/5
f 257/1/5 256/1/5 255/1/5
f 258/1/5 256/1/5 257/1/5
f 259/1/5 257/1/5 255/1/5
f 260/1/5 257/1/5 259/1/5
f 261/2/6 262/2/6 263/2/6
f 263/2/6 262/2/6 264/2/6
f 265/2/6 266/2/6 267/2/6
f 267/2/6 266/2/6 268/2/6
f 265/2/6 267/2/6 269/2/6
f 269/2/6 267/2/6 270/2/6
f 268/2/6 266/2/6 271/2/6
f 271/2/6 266/2/6 272/2/6
f 273/2/6 274/2/6 276/2/6
f 275/2/6 276/2/6 277/2/6
f 276/2/6 274/2/6 278/2/6
f 277/2/6 276/2/6 278/2/6
f 279/1/6 280/1/6 281/1/6
f 281/1/6 280/1/6 282/1/6
f 279/1/6 281/1/6 283/1/6
f 283/1/6 281/1/6 284/1/6
f 285/1/6 286/1/6 287/1/6
f 287/1/6 286/1/6 288/1/6
