# Blender 3.3.0
# www.blender.org
mtllib Interior_Furniture-0.mtl
o Untitled
v -0.001190 -0.000052 -0.050000
v -0.001190 -0.000052 0.050000
v -0.001190 2.699948 -0.049999
v -0.001190 2.699948 0.050000
v -0.801190 1.199948 -0.150000
v -0.801190 1.199948 -0.050000
v -0.801190 1.199948 0.050000
v -0.801190 1.199948 0.150000
v -0.801190 1.299948 -0.150000
v -0.801190 1.299948 -0.050000
v -0.801190 1.299948 0.050000
v -0.801190 1.299948 0.150000
v -0.901190 1.099948 -0.150000
v -0.901190 1.099948 -0.050000
v -0.901190 1.099948 0.050000
v -0.901190 1.099948 0.150000
v -0.901190 1.199948 -0.150000
v -0.901190 1.199948 -0.050000
v -0.901190 1.199948 0.050000
v -0.901190 1.199948 0.150000
v -0.901190 1.299948 -0.150000
v -0.901190 1.299948 -0.050000
v -0.901190 1.299948 0.050000
v -0.901190 1.299948 0.150000
v -0.901190 1.399948 -0.150000
v -0.901190 1.399948 -0.050000
v -0.901190 1.399948 0.050000
v -0.901190 1.399948 0.150000
v -1.001190 1.099948 -0.150000
v -1.001190 1.099948 -0.050000
v -1.001190 1.099948 0.050000
v -1.001190 1.099948 0.150000
v -1.001190 1.199948 -0.150000
v -1.001190 1.199948 -0.050000
v -1.001190 1.199948 0.050000
v -1.001190 1.199948 0.150000
v -1.001190 1.299948 -0.150000
v -1.001190 1.299948 -0.050000
v -1.001190 1.299948 0.050000
v -1.001190 1.299948 0.150000
v -1.001190 1.399948 -0.150000
v -1.001190 1.399948 -0.050000
v -1.001190 1.399948 0.050000
v -1.001190 1.399948 0.150000
v -1.101190 1.199948 -0.150000
v -1.101190 1.199948 -0.050000
v -1.101190 1.199948 0.050000
v -1.101190 1.199948 0.150000
v -1.101190 1.299948 -0.150000
v -1.101190 1.299948 -0.050000
v -1.101190 1.299948 0.050000
v -1.101190 1.299948 0.150000
v -1.201190 -0.000052 -0.050000
v -1.201190 -0.000052 0.050000
v -1.201190 2.699948 -0.049999
v -1.201190 2.699948 0.050000
v -0.801190 1.199948 -0.150000
v -0.801190 1.299948 -0.150000
v -0.901190 1.099948 -0.150000
v -0.901190 1.199948 -0.150000
v -0.901190 1.299948 -0.150000
v -0.901190 1.399948 -0.150000
v -1.001190 1.099948 -0.150000
v -1.001190 1.199948 -0.150000
v -1.001190 1.299948 -0.150000
v -1.001190 1.399948 -0.150000
v -1.101190 1.199948 -0.150000
v -1.101190 1.299948 -0.150000
v -0.001190 -0.000052 -0.050000
v -0.001190 2.699948 -0.049999
v -0.801190 1.199948 -0.050000
v -0.801190 1.299948 -0.050000
v -0.901190 1.099948 -0.050000
v -0.901190 1.199948 -0.050000
v -0.901190 1.299948 -0.050000
v -0.901190 1.399948 -0.050000
v -1.001190 1.099948 -0.050000
v -1.001190 1.199948 -0.050000
v -1.001190 1.299948 -0.050000
v -1.001190 1.399948 -0.050000
v -1.101190 1.199948 -0.050000
v -1.101190 1.299948 -0.050000
v -1.201190 -0.000052 -0.050000
v -1.201190 2.699948 -0.049999
v -0.001190 -0.000052 0.050000
v -0.001190 2.699948 0.050000
v -0.801190 1.199948 0.050000
v -0.801190 1.299948 0.050000
v -0.901190 1.099948 0.050000
v -0.901190 1.199948 0.050000
v -0.901190 1.299948 0.050000
v -0.901190 1.399948 0.050000
v -1.001190 1.099948 0.050000
v -1.001190 1.199948 0.050000
v -1.001190 1.299948 0.050000
v -1.001190 1.399948 0.050000
v -1.101190 1.199948 0.050000
v -1.101190 1.299948 0.050000
v -1.201190 -0.000052 0.050000
v -1.201190 2.699948 0.050000
v -0.801190 1.199948 0.150000
v -0.801190 1.299948 0.150000
v -0.901190 1.099948 0.150000
v -0.901190 1.199948 0.150000
v -0.901190 1.299948 0.150000
v -0.901190 1.399948 0.150000
v -1.001190 1.099948 0.150000
v -1.001190 1.199948 0.150000
v -1.001190 1.299948 0.150000
v -1.001190 1.399948 0.150000
v -1.101190 1.199948 0.150000
v -1.101190 1.299948 0.150000
v -0.001190 -0.000052 -0.050000
v -1.201190 -0.000052 -0.050000
v -0.001190 -0.000052 0.050000
v -1.201190 -0.000052 0.050000
v -0.901190 1.099948 -0.150000
v -1.001190 1.099948 -0.150000
v -0.901190 1.099948 -0.050000
v -1.001190 1.099948 -0.050000
v -0.901190 1.099948 0.050000
v -1.001190 1.099948 0.050000
v -0.901190 1.099948 0.150000
v -1.001190 1.099948 0.150000
v -0.801190 1.199948 -0.150000
v -0.901190 1.199948 -0.150000
v -1.001190 1.199948 -0.150000
v -1.101190 1.199948 -0.150000
v -0.801190 1.199948 -0.050000
v -0.901190 1.199948 -0.050000
v -1.001190 1.199948 -0.050000
v -1.101190 1.199948 -0.050000
v -0.801190 1.199948 0.050000
v -0.901190 1.199948 0.050000
v -1.001190 1.199948 0.050000
v -1.101190 1.199948 0.050000
v -0.801190 1.199948 0.150000
v -0.901190 1.199948 0.150000
v -1.001190 1.199948 0.150000
v -1.101190 1.199948 0.150000
v -0.801190 1.299948 -0.150000
v -0.901190 1.299948 -0.150000
v -1.001190 1.299948 -0.150000
v -1.101190 1.299948 -0.150000
v -0.801190 1.299948 -0.050000
v -0.901190 1.299948 -0.050000
v -1.001190 1.299948 -0.050000
v -1.101190 1.299948 -0.050000
v -0.801190 1.299948 0.050000
v -0.901190 1.299948 0.050000
v -1.001190 1.299948 0.050000
v -1.101190 1.299948 0.050000
v -0.801190 1.299948 0.150000
v -0.901190 1.299948 0.150000
v -1.001190 1.299948 0.150000
v -1.101190 1.299948 0.150000
v -0.901190 1.399948 -0.150000
v -1.001190 1.399948 -0.150000
v -0.901190 1.399948 -0.050000
v -1.001190 1.399948 -0.050000
v -0.901190 1.399948 0.050000
v -1.001190 1.399948 0.050000
v -0.901190 1.399948 0.150000
v -1.001190 1.399948 0.150000
v -0.001190 2.699948 -0.049999
v -1.201190 2.699948 -0.049999
v -0.001190 2.699948 0.050000
v -1.201190 2.699948 0.050000
vn 1.0000 -0.0000 -0.0000
vn -1.0000 -0.0000 -0.0000
vn -0.0000 -0.0000 -1.0000
vn -0.0000 -0.0000 1.0000
vn 0.0005 -0.0000 1.0000
vn -0.0000 -1.0000 -0.0000
vn -0.0000 1.0000 -0.0000
vt 0.900391 0.500000
vt 0.900391 0.500000
vt 0.900391 0.500000
vt 0.900391 0.500000
vt 0.943359 0.500000
vt 0.943359 0.500000
vt 0.943359 0.500000
vt 0.943359 0.500000
vt 0.943359 0.500000
vt 0.943359 0.500000
vt 0.943359 0.500000
vt 0.943359 0.500000
vt 0.943359 0.500000
vt 0.943359 0.500000
vt 0.943359 0.500000
vt 0.943359 0.500000
vt 0.943359 0.500000
vt 0.943359 0.500000
vt 0.943359 0.500000
vt 0.943359 0.500000
vt 0.943359 0.500000
vt 0.943359 0.500000
vt 0.943359 0.500000
vt 0.943359 0.500000
vt 0.943359 0.500000
vt 0.943359 0.500000
vt 0.943359 0.500000
vt 0.943359 0.500000
vt 0.943359 0.500000
vt 0.943359 0.500000
vt 0.943359 0.500000
vt 0.943359 0.500000
vt 0.943359 0.500000
vt 0.943359 0.500000
vt 0.943359 0.500000
vt 0.943359 0.500000
vt 0.943359 0.500000
vt 0.943359 0.500000
vt 0.943359 0.500000
vt 0.943359 0.500000
vt 0.943359 0.500000
vt 0.943359 0.500000
vt 0.943359 0.500000
vt 0.943359 0.500000
vt 0.943359 0.500000
vt 0.943359 0.500000
vt 0.943359 0.500000
vt 0.943359 0.500000
vt 0.943359 0.500000
vt 0.943359 0.500000
vt 0.943359 0.500000
vt 0.943359 0.500000
vt 0.900391 0.500000
vt 0.900391 0.500000
vt 0.900391 0.500000
vt 0.900391 0.500000
vt 0.943359 0.500000
vt 0.943359 0.500000
vt 0.943359 0.500000
vt 0.943359 0.500000
vt 0.943359 0.500000
vt 0.943359 0.500000
vt 0.943359 0.500000
vt 0.943359 0.500000
vt 0.943359 0.500000
vt 0.943359 0.500000
vt 0.943359 0.500000
vt 0.943359 0.500000
vt 0.900391 0.500000
vt 0.900391 0.500000
vt 0.900391 0.500000
vt 0.900391 0.500000
vt 0.900391 0.500000
vt 0.900391 0.500000
vt 0.900391 0.500000
vt 0.900391 0.500000
vt 0.900391 0.500000
vt 0.900391 0.500000
vt 0.900391 0.500000
vt 0.900391 0.500000
vt 0.900391 0.500000
vt 0.900391 0.500000
vt 0.900391 0.500000
vt 0.900391 0.500000
vt 0.900391 0.500000
vt 0.900391 0.500000
vt 0.900391 0.500000
vt 0.900391 0.500000
vt 0.900391 0.500000
vt 0.900391 0.500000
vt 0.900391 0.500000
vt 0.900391 0.500000
vt 0.900391 0.500000
vt 0.900391 0.500000
vt 0.900391 0.500000
vt 0.900391 0.500000
vt 0.900391 0.500000
vt 0.900391 0.500000
vt 0.900391 0.500000
vt 0.900391 0.500000
vt 0.943359 0.500000
vt 0.943359 0.500000
vt 0.943359 0.500000
vt 0.943359 0.500000
vt 0.943359 0.500000
vt 0.943359 0.500000
vt 0.943359 0.500000
vt 0.943359 0.500000
vt 0.943359 0.500000
vt 0.943359 0.500000
vt 0.943359 0.500000
vt 0.943359 0.500000
vt 0.900391 0.500000
vt 0.900391 0.500000
vt 0.900391 0.500000
vt 0.900391 0.500000
vt 0.943359 0.500000
vt 0.943359 0.500000
vt 0.943359 0.500000
vt 0.943359 0.500000
vt 0.943359 0.500000
vt 0.943359 0.500000
vt 0.943359 0.500000
vt 0.943359 0.500000
vt 0.943359 0.500000
vt 0.943359 0.500000
vt 0.943359 0.500000
vt 0.943359 0.500000
vt 0.943359 0.500000
vt 0.943359 0.500000
vt 0.943359 0.500000
vt 0.943359 0.500000
vt 0.943359 0.500000
vt 0.943359 0.500000
vt 0.943359 0.500000
vt 0.943359 0.500000
vt 0.943359 0.500000
vt 0.943359 0.500000
vt 0.943359 0.500000
vt 0.943359 0.500000
vt 0.943359 0.500000
vt 0.943359 0.500000
vt 0.943359 0.500000
vt 0.943359 0.500000
vt 0.943359 0.500000
vt 0.943359 0.500000
vt 0.943359 0.500000
vt 0.943359 0.500000
vt 0.943359 0.500000
vt 0.943359 0.500000
vt 0.943359 0.500000
vt 0.943359 0.500000
vt 0.943359 0.500000
vt 0.943359 0.500000
vt 0.943359 0.500000
vt 0.943359 0.500000
vt 0.943359 0.500000
vt 0.943359 0.500000
vt 0.943359 0.500000
vt 0.943359 0.500000
vt 0.943359 0.500000
vt 0.943359 0.500000
vt 0.943359 0.500000
vt 0.943359 0.500000
vt 0.900391 0.500000
vt 0.900391 0.500000
vt 0.900391 0.500000
vt 0.900391 0.500000
s 0
usemtl palette
f 3/3/1 2/2/1 1/1/1
f 4/4/1 2/2/1 3/3/1
f 9/9/1 6/6/1 5/5/1
f 10/10/1 6/6/1 9/9/1
f 11/11/1 8/8/1 7/7/1
f 12/12/1 8/8/1 11/11/1
f 17/17/1 14/14/1 13/13/1
f 18/18/1 14/14/1 17/17/1
f 19/19/1 16/16/1 15/15/1
f 20/20/1 16/16/1 19/19/1
f 25/25/1 22/22/1 21/21/1
f 26/26/1 22/22/1 25/25/1
f 27/27/1 24/24/1 23/23/1
f 28/28/1 24/24/1 27/27/1
f 29/29/2 30/30/2 33/33/2
f 33/33/2 30/30/2 34/34/2
f 31/31/2 32/32/2 35/35/2
f 35/35/2 32/32/2 36/36/2
f 37/37/2 38/38/2 41/41/2
f 41/41/2 38/38/2 42/42/2
f 39/39/2 40/40/2 43/43/2
f 43/43/2 40/40/2 44/44/2
f 45/45/2 46/46/2 49/49/2
f 49/49/2 46/46/2 50/50/2
f 47/47/2 48/48/2 51/51/2
f 51/51/2 48/48/2 52/52/2
f 53/53/2 54/54/2 55/55/2
f 55/55/2 54/54/2 56/56/2
f 60/60/3 58/58/3 57/57/3
f 61/61/3 58/58/3 60/60/3
f 63/63/3 60/60/3 59/59/3
f 63/63/3 62/62/3 61/61/3
f 63/63/3 61/61/3 60/60/3
f 64/64/3 62/62/3 63/63/3
f 65/65/3 62/62/3 64/64/3
f 66/66/3 62/62/3 65/65/3
f 67/67/3 65/65/3 64/64/3
f 68/68/3 65/65/3 67/67/3
f 71/71/3 70/70/3 69/69/3
f 72/72/3 70/70/3 71/71/3
f 73/73/3 71/71/3 69/69/3
f 74/74/3 71/71/3 73/73/3
f 75/75/3 70/70/3 72/72/3
f 76/76/3 70/70/3 75/75/3
f 77/77/3 73/73/3 69/69/3
f 80/80/3 70/70/3 76/76/3
f 81/81/3 78/78/3 77/77/3
f 82/82/3 80/80/3 79/79/3
f 83/83/3 81/81/3 77/77/3
f 83/83/3 82/82/3 81/81/3
f 83/83/3 77/77/3 69/69/3
f 84/84/3 80/80/3 82/82/3
f 84/84/3 82/82/3 83/83/3
f 84/84/3 70/70/3 80/80/3
f 85/85/4 86/86/4 87/87/4
f 87/87/4 86/86/4 88/88/4
f 85/85/4 87/87/4 89/89/4
f 89/89/4 87/87/4 90/90/4
f 88/88/4 86/86/4 91/91/4
f 91/91/4 86/86/4 92/92/4
f 85/85/4 89/89/4 93/93/4
f 92/92/4 86/86/4 96/96/4
f 93/93/4 94/94/4 97/97/4
f 95/95/4 96/96/4 98/98/4
f 93/93/4 97/97/4 99/99/4
f 97/97/5 98/98/5 99/99/5
f 85/85/4 93/93/4 99/99/4
f 98/98/4 96/96/4 100/100/4
f 99/99/4 98/98/4 100/100/4
f 96/96/4 86/86/4 100/100/4
f 101/101/4 102/102/4 104/104/4
f 104/104/4 102/102/4 105/105/4
f 103/103/4 104/104/4 107/107/4
f 105/105/4 106/106/4 107/107/4
f 104/104/4 105/105/4 107/107/4
f 107/107/4 106/106/4 108/108/4
f 108/108/4 106/106/4 109/109/4
f 109/109/4 106/106/4 110/110/4
f 108/108/4 109/109/4 111/111/4
f 111/111/4 109/109/4 112/112/4
f 115/115/6 114/114/6 113/113/6
f 116/116/6 114/114/6 115/115/6
f 119/119/6 118/118/6 117/117/6
f 120/120/6 118/118/6 119/119/6
f 123/123/6 122/122/6 121/121/6
f 124/124/6 122/122/6 123/123/6
f 129/129/6 126/126/6 125/125/6
f 130/130/6 126/126/6 129/129/6
f 131/131/6 128/128/6 127/127/6
f 132/132/6 128/128/6 131/131/6
f 137/137/6 134/134/6 133/133/6
f 138/138/6 134/134/6 137/137/6
f 139/139/6 136/136/6 135/135/6
f 140/140/6 136/136/6 139/139/6
f 141/141/7 142/142/7 145/145/7
f 145/145/7 142/142/7 146/146/7
f 143/143/7 144/144/7 147/147/7
f 147/147/7 144/144/7 148/148/7
f 149/149/7 150/150/7 153/153/7
f 153/153/7 150/150/7 154/154/7
f 151/151/7 152/152/7 155/155/7
f 155/155/7 152/152/7 156/156/7
f 157/157/7 158/158/7 159/159/7
f 159/159/7 158/158/7 160/160/7
f 161/161/7 162/162/7 163/163/7
f 163/163/7 162/162/7 164/164/7
f 165/165/7 166/166/7 167/167/7
f 167/167/7 166/166/7 168/168/7
