# Blender v3.3.0 OBJ File: 'Vehicles Assets.blend'
# www.blender.org
mtllib Trailer_Box_Var2_3.mtl
o Trailer_Box_Var2_3_Trailer_Box_Var2_3.001
v -1.012991 2.222353 4.558465
v -1.012992 -0.277647 2.558466
v 0.987008 -0.277647 2.558466
v 0.787008 -0.377647 1.258465
v 0.787008 -0.477647 1.258465
v -0.812992 -0.377647 1.258465
v 0.487008 -0.377647 -1.041535
v -0.712992 -0.277647 -1.041535
v 0.687008 -0.277647 -2.541535
v 0.687008 -0.377647 -2.541535
v -0.712992 -0.377647 -2.541535
v -0.512992 -0.377647 -2.541535
v -0.712992 -0.277647 -2.541535
v 0.787008 -0.477647 0.958465
v 0.787008 -0.377647 0.958465
v -0.812992 -0.477647 0.958465
v 0.387009 -0.377647 0.858465
v 0.887009 -0.277647 0.858465
v 0.387009 -0.277647 0.858465
v 0.687008 -0.377647 -1.241535
v 0.487008 -0.377647 -1.241535
v -0.512992 -0.277647 -1.241535
v 0.487008 -0.377647 -2.741535
v 0.487008 -0.277647 -2.741535
v -0.712992 -0.277647 -2.741535
v -1.012992 -0.277647 -3.441534
v 0.987009 2.222353 4.558465
v 0.987008 0.222353 4.558465
v 0.987008 -0.277647 -3.341534
v 0.987008 -0.277647 -3.441534
v 0.987008 2.222353 -3.441534
v 0.887009 -0.377647 0.858465
v 0.887009 -0.277647 1.358465
v 0.887009 -0.377647 1.358465
v 0.687008 -0.277647 -1.041535
v 0.687008 -0.277647 -1.241535
v 0.687008 -0.377647 -2.741535
v -0.412992 -0.377647 0.858465
v -0.412991 -0.277647 1.358465
v -0.412991 -0.377647 1.358465
v -0.512992 -0.477647 0.958465
v -0.512992 -0.377647 1.258465
v -0.512992 -0.377647 -1.241535
v -0.512992 -0.277647 -1.041535
v -0.512992 -0.277647 -2.541535
v 0.487008 -0.377647 1.258465
v 0.487008 -0.277647 -1.241535
v 0.387009 -0.277647 1.358465
v -0.712992 -0.377647 -1.041535
v -0.712992 -0.377647 -1.241535
v -0.712992 -0.277647 -1.241535
v -0.912992 -0.377647 0.858465
v 0.487008 -0.477647 1.258465
v 0.487008 -0.477647 0.958465
v -0.812992 -0.477647 1.258465
v -0.512992 -0.477647 1.258465
v 0.487008 -0.377647 0.958465
v 0.687008 -0.377647 -1.041535
v 0.487008 -0.377647 -2.541535
v 0.387009 -0.377647 1.358465
v -0.512992 -0.377647 0.958465
v -0.512992 -0.377647 -1.041535
v -0.512992 -0.377647 -2.741535
v -0.712992 -0.377647 -2.741535
v -0.812992 -0.377647 0.958465
v -0.912991 -0.377647 1.358465
v 0.687008 -0.277647 -2.741535
v 0.487008 -0.277647 -1.041535
v 0.487008 -0.277647 -2.541535
v -0.412991 -0.277647 0.858465
v -0.512992 -0.277647 -2.741535
v -0.912991 -0.277647 1.358465
v -0.912991 -0.277647 0.858465
v -1.012992 0.222353 4.558465
v 0.987008 0.222353 2.558466
v -1.012992 0.222353 2.558466
v -1.012992 2.222353 -3.441534
vt 0.000094 0.799793
vt 0.000094 0.000094
vt 0.200019 0.000094
vt 0.200019 0.200018
vt 0.250000 0.200018
vt 0.250000 0.789797
vt 0.250000 0.799793
vt 0.682858 0.799981
vt 0.692854 0.799981
vt 0.692854 0.829969
vt 0.682858 0.829969
vt 0.561016 0.799981
vt 0.571012 0.799981
vt 0.571012 0.849962
vt 0.561016 0.849962
vt 0.581386 0.799981
vt 0.591382 0.799981
vt 0.591382 0.849962
vt 0.581386 0.849962
vt 0.591571 0.850151
vt 0.601567 0.850151
vt 0.601567 0.870144
vt 0.591571 0.870144
vt 0.481801 0.850151
vt 0.491798 0.850151
vt 0.491798 0.870144
vt 0.481801 0.870144
vt 0.561015 0.850151
vt 0.571012 0.850151
vt 0.571012 0.870144
vt 0.561015 0.870144
vt 0.611752 0.799980
vt 0.611752 0.849962
vt 0.601756 0.849962
vt 0.601756 0.799980
vt 0.510846 0.830158
vt 0.520842 0.830158
vt 0.520842 0.860147
vt 0.510846 0.860147
vt 0.682670 0.840155
vt 0.662677 0.840155
vt 0.662677 0.820162
vt 0.682670 0.820162
vt 0.450302 0.799981
vt 0.450302 0.849962
vt 0.400320 0.849962
vt 0.410316 0.809978
vt 0.410316 0.839966
vt 0.440306 0.839966
vt 0.440306 0.809978
vt 0.400320 0.799981
vt 0.601756 0.850151
vt 0.611752 0.850151
vt 0.611752 0.870144
vt 0.601756 0.870144
vt 0.672673 0.840343
vt 0.672673 0.860336
vt 0.662677 0.860336
vt 0.662677 0.840343
vt 0.461242 0.850149
vt 0.461242 0.870142
vt 0.451246 0.870142
vt 0.451246 0.850149
vt 0.642307 0.799980
vt 0.642307 0.849962
vt 0.632311 0.849962
vt 0.632311 0.799980
vt 0.900510 0.000094
vt 0.950491 0.000094
vt 0.950491 0.200019
vt 0.900510 0.200019
vt 0.471616 0.850151
vt 0.481612 0.850151
vt 0.481612 0.870144
vt 0.471616 0.870144
vt 0.900321 0.600057
vt 0.900321 0.849962
vt 0.700397 0.849962
vt 0.700397 0.600057
vt 0.521031 0.830158
vt 0.531027 0.830158
vt 0.531027 0.860147
vt 0.521031 0.860147
vt 0.560827 0.799981
vt 0.560827 0.829969
vt 0.530838 0.829969
vt 0.530838 0.799981
vt 0.622126 0.850151
vt 0.632122 0.850151
vt 0.632122 0.870144
vt 0.622126 0.870144
vt 0.471427 0.850149
vt 0.471427 0.870142
vt 0.461431 0.870142
vt 0.461431 0.850149
vt 0.451057 0.850149
vt 0.451057 0.870142
vt 0.441061 0.870142
vt 0.441061 0.850149
vt 0.200208 0.799981
vt 0.400132 0.799981
vt 0.400132 0.999906
vt 0.200208 0.999906
vt 0.440872 0.850149
vt 0.440872 0.870142
vt 0.430876 0.870142
vt 0.430876 0.850149
vt 0.571201 0.850151
vt 0.581197 0.850151
vt 0.581197 0.870144
vt 0.571201 0.870144
vt 0.890325 0.170031
vt 0.870333 0.379951
vt 0.870333 0.359959
vt 0.840343 0.170031
vt 0.541212 0.830158
vt 0.541212 0.860147
vt 0.531216 0.860147
vt 0.531216 0.830158
vt 0.662489 0.819973
vt 0.642496 0.819973
vt 0.642496 0.799980
vt 0.662489 0.799980
vt 0.500472 0.799980
vt 0.500472 0.849962
vt 0.450491 0.849962
vt 0.460487 0.839966
vt 0.490476 0.839966
vt 0.490476 0.809977
vt 0.460487 0.809977
vt 0.450491 0.799980
vt 0.591571 0.799981
vt 0.601567 0.799981
vt 0.601567 0.849962
vt 0.591571 0.849962
vt 0.250189 0.799793
vt 0.250189 0.200018
vt 0.300170 0.200018
vt 0.300170 0.000094
vt 0.500095 0.000094
vt 0.500095 0.799793
vt 0.530649 0.799981
vt 0.530649 0.829969
vt 0.500660 0.829969
vt 0.500660 0.799981
vt 0.682670 0.819973
vt 0.662677 0.819973
vt 0.662677 0.799980
vt 0.682670 0.799980
vt 0.692854 0.830158
vt 0.692854 0.860147
vt 0.682858 0.860147
vt 0.682858 0.830158
vt 0.420502 0.850149
vt 0.420502 0.870142
vt 0.410506 0.870142
vt 0.410506 0.850149
vt 0.430687 0.850149
vt 0.430687 0.870142
vt 0.420691 0.870142
vt 0.420691 0.850149
vt 0.551397 0.830158
vt 0.551397 0.860147
vt 0.541401 0.860147
vt 0.541401 0.830158
vt 0.652492 0.840343
vt 0.652492 0.870333
vt 0.642496 0.870333
vt 0.642496 0.840343
vt 0.621937 0.799980
vt 0.621937 0.849962
vt 0.611941 0.849962
vt 0.611941 0.799980
vt 0.500661 0.830158
vt 0.510657 0.830158
vt 0.510657 0.860147
vt 0.500661 0.860147
vt 0.571201 0.799981
vt 0.581197 0.799981
vt 0.581197 0.849962
vt 0.571201 0.849962
vt 0.730385 0.509901
vt 0.730385 0.529894
vt 0.700397 0.589872
vt 0.700397 0.000093
vt 0.840343 0.120049
vt 0.760374 0.170031
vt 0.760374 0.120049
vt 0.710393 0.120049
vt 0.710393 0.170031
vt 0.750378 0.359959
vt 0.730385 0.359959
vt 0.730385 0.379951
vt 0.750378 0.379951
vt 0.750378 0.509901
vt 0.632122 0.799980
vt 0.632122 0.849962
vt 0.622126 0.849962
vt 0.622126 0.799980
vt 0.410317 0.850149
vt 0.410317 0.870142
vt 0.400321 0.870142
vt 0.400321 0.850149
vt 0.200019 0.799981
vt 0.200019 0.999906
vt 0.000094 0.999906
vt 0.000094 0.799981
vt 0.581386 0.850151
vt 0.591382 0.850151
vt 0.591382 0.870144
vt 0.581386 0.870144
vt 0.850340 0.359959
vt 0.850340 0.379951
vt 0.870333 0.509901
vt 0.850340 0.509901
vt 0.750378 0.529894
vt 0.662489 0.840155
vt 0.642496 0.840155
vt 0.642496 0.820162
vt 0.662489 0.820162
vt 0.900321 0.000093
vt 0.900321 0.599869
vt 0.700397 0.599869
vt 0.850340 0.529894
vt 0.870333 0.529894
vt 0.890325 0.120049
vt 0.500283 0.000093
vt 0.700208 0.000093
vt 0.700208 0.799793
vt 0.500283 0.799793
vn 1.0000 -0.0000 -0.0000
vn 0.0000 0.0000 1.0000
vn 0.0000 0.0000 -1.0000
vn -1.0000 0.0000 0.0000
vn -0.0000 -1.0000 0.0000
vn 0.0000 1.0000 0.0000
usemtl Trailer_Box_Var2_3
s off
f 31/1/1 27/2/1 28/3/1 75/4/1 3/5/1 29/6/1 30/7/1
f 46/8/2 53/9/2 5/10/2 4/11/2
f 52/12/3 73/13/3 70/14/3 38/15/3
f 48/16/2 60/17/2 34/18/2 33/19/2
f 8/20/2 49/21/2 62/22/2 44/23/2
f 69/24/2 59/25/2 10/26/2 9/27/2
f 68/28/2 7/29/2 58/30/2 35/31/2
f 48/32/4 19/33/4 17/34/4 60/35/4
f 16/36/3 65/37/3 61/38/3 41/39/3
f 23/40/5 37/41/5 10/42/5 59/43/5
f 52/44/5 38/45/5 40/46/5 6/47/5 42/48/5 61/49/5 65/50/5 66/51/5
f 50/52/3 51/53/3 22/54/3 43/55/3
f 8/56/4 51/57/4 50/58/4 49/59/4
f 67/60/1 9/61/1 10/62/1 37/63/1
f 72/64/4 73/65/4 52/66/4 66/67/4
f 76/68/2 2/69/2 3/70/2 75/71/2
f 21/72/3 47/73/3 36/74/3 20/75/3
f 26/76/3 77/77/3 31/78/3 30/79/3
f 6/80/2 55/81/2 56/82/2 42/83/2
f 16/84/5 41/85/5 56/86/5 55/87/5
f 13/88/2 11/89/2 12/90/2 45/91/2
f 13/92/4 25/93/4 64/94/4 11/95/4
f 68/96/4 47/97/4 21/98/4 7/99/4
f 1/100/2 74/101/2 28/102/2 27/103/2
f 36/104/1 35/105/1 58/106/1 20/107/1
f 23/108/3 24/109/3 67/110/3 37/111/3
f 66/51/5 65/50/5 6/47/5 40/46/5
f 73/112/5 51/113/5 8/114/5 70/115/5
f 61/116/1 42/117/1 56/118/1 41/119/1
f 64/120/5 63/121/5 12/122/5 11/123/5
f 60/124/5 17/125/5 32/126/5 15/127/5 57/128/5 46/129/5 4/130/5 34/131/5
f 72/132/2 66/133/2 40/134/2 39/135/2
f 26/136/4 2/137/4 76/138/4 74/139/4 1/140/4 77/141/4
f 54/142/5 14/143/5 5/144/5 53/145/5
f 50/146/5 43/147/5 62/148/5 49/149/5
f 46/150/4 57/151/4 54/152/4 53/153/4
f 71/154/1 45/155/1 12/156/1 63/157/1
f 69/158/4 24/159/4 23/160/4 59/161/4
f 6/162/4 65/163/4 16/164/4 55/165/4
f 15/166/1 4/167/1 5/168/1 14/169/1
f 18/170/1 33/171/1 34/172/1 32/173/1
f 54/174/3 57/175/3 15/176/3 14/177/3
f 17/178/3 19/179/3 18/180/3 32/181/3
f 9/182/5 67/183/5 29/184/5 3/185/5 39/186/5 19/187/5 48/188/5 33/189/5 18/190/5 68/191/5 35/192/5 36/193/5 47/194/5 69/195/5
f 70/196/1 39/197/1 40/198/1 38/199/1
f 22/200/1 44/201/1 62/202/1 43/203/1
f 76/204/5 75/205/5 28/206/5 74/207/5
f 64/208/3 25/209/3 71/210/3 63/211/3
f 19/187/5 39/186/5 70/115/5 8/114/5 44/212/5 22/213/5 51/113/5 73/112/5 13/214/5 45/215/5 24/216/5 69/195/5 47/194/5 68/191/5 18/190/5
f 21/217/5 20/218/5 58/219/5 7/220/5
f 2/221/5 26/222/5 30/223/5 29/184/5 67/183/5 24/216/5 45/215/5 71/224/5 25/225/5 13/214/5 73/112/5 72/226/5 39/186/5 3/185/5
f 15/127/5 32/126/5 34/131/5 4/130/5
f 31/227/6 77/228/6 1/229/6 27/230/6
