# MagicaVoxel @ Ephtracy

# group
g van_small_grey

# material
mtllib van_small_grey.mtl
usemtl palette

# normals
vn -1 0 0
vn 1 0 0
vn 0 0 1
vn 0 0 -1
vn 0 -1 0
vn 0 1 0

# texcoords
vt 0.638672 0.5
vt 0.958984 0.5
vt 0.974609 0.5
vt 0.982422 0.5
vt 0.986328 0.5
vt 0.990234 0.5

# verts
v -6.5 0 10
v -6.5 0 6
v -6.5 0 -10
v -6.5 0 -14
v -6.5 1 11
v -6.5 1 10
v -6.5 1 6
v -6.5 1 5
v -6.5 1 -9
v -6.5 1 -10
v -6.5 1 -14
v -6.5 1 -15
v -6.5 2 9
v -6.5 2 7
v -6.5 2 -11
v -6.5 2 -13
v -6.5 3 17
v -6.5 3 11
v -6.5 3 5
v -6.5 3 -9
v -6.5 3 -15
v -6.5 3 -17
v -6.5 4 9
v -6.5 4 7
v -6.5 4 -11
v -6.5 4 -13
v -6.5 5 11
v -6.5 5 10
v -6.5 5 6
v -6.5 5 5
v -6.5 5 -9
v -6.5 5 -10
v -6.5 5 -14
v -6.5 5 -15
v -6.5 6 10
v -6.5 6 6
v -6.5 6 -10
v -6.5 6 -14
v -6.5 7 17
v -6.5 7 -17
v -6.5 8 17
v -6.5 8 16
v -6.5 8 -17
v -6.5 9 12
v -6.5 9 1
v -6.5 10 16
v -6.5 10 15
v -6.5 11 15
v -6.5 11 14
v -6.5 12 12
v -6.5 12 11
v -6.5 13 14
v -6.5 13 13
v -6.5 14 11
v -6.5 14 10
v -6.5 15 13
v -6.5 15 12
v -6.5 15 10
v -6.5 15 1
v -6.5 16 12
v -6.5 16 -17
v 4.5 0 10
v 4.5 0 6
v 4.5 0 -10
v 4.5 0 -14
v 4.5 1 11
v 4.5 1 10
v 4.5 1 6
v 4.5 1 5
v 4.5 1 -9
v 4.5 1 -10
v 4.5 1 -14
v 4.5 1 -15
v 4.5 3 11
v 4.5 3 5
v 4.5 3 -9
v 4.5 3 -15
v -4.5 0 10
v -4.5 0 6
v -4.5 0 -10
v -4.5 0 -14
v -4.5 1 11
v -4.5 1 10
v -4.5 1 6
v -4.5 1 5
v -4.5 1 -9
v -4.5 1 -10
v -4.5 1 -14
v -4.5 1 -15
v -4.5 3 11
v -4.5 3 5
v -4.5 3 -9
v -4.5 3 -15
v 6.5 0 10
v 6.5 0 6
v 6.5 0 -10
v 6.5 0 -14
v 6.5 1 11
v 6.5 1 10
v 6.5 1 6
v 6.5 1 5
v 6.5 1 -9
v 6.5 1 -10
v 6.5 1 -14
v 6.5 1 -15
v 6.5 2 9
v 6.5 2 7
v 6.5 2 -11
v 6.5 2 -13
v 6.5 3 17
v 6.5 3 11
v 6.5 3 5
v 6.5 3 -9
v 6.5 3 -15
v 6.5 3 -17
v 6.5 4 9
v 6.5 4 7
v 6.5 4 -11
v 6.5 4 -13
v 6.5 5 11
v 6.5 5 10
v 6.5 5 6
v 6.5 5 5
v 6.5 5 -9
v 6.5 5 -10
v 6.5 5 -14
v 6.5 5 -15
v 6.5 6 10
v 6.5 6 6
v 6.5 6 -10
v 6.5 6 -14
v 6.5 7 17
v 6.5 7 -17
v 6.5 8 17
v 6.5 8 16
v 6.5 8 -17
v 6.5 9 12
v 6.5 9 1
v 6.5 10 16
v 6.5 10 15
v 6.5 11 15
v 6.5 11 14
v 6.5 12 12
v 6.5 12 11
v 6.5 13 14
v 6.5 13 13
v 6.5 14 11
v 6.5 14 10
v 6.5 15 13
v 6.5 15 12
v 6.5 15 10
v 6.5 15 1
v 6.5 16 12
v 6.5 16 -17
v -6.5 3 17
v -6.5 7 17
v -6.5 8 17
v -5.5 4 17
v -5.5 7 17
v -2.5 4 17
v -2.5 7 17
v 2.5 4 17
v 2.5 7 17
v 5.5 4 17
v 5.5 7 17
v 6.5 3 17
v 6.5 7 17
v 6.5 8 17
v -6.5 8 16
v -6.5 10 16
v -5.5 8 16
v -5.5 10 16
v 5.5 8 16
v 5.5 10 16
v 6.5 8 16
v 6.5 10 16
v -6.5 10 15
v -6.5 11 15
v -5.5 10 15
v -5.5 11 15
v 5.5 10 15
v 5.5 11 15
v 6.5 10 15
v 6.5 11 15
v -6.5 11 14
v -6.5 13 14
v -5.5 11 14
v -5.5 13 14
v 5.5 11 14
v 5.5 13 14
v 6.5 11 14
v 6.5 13 14
v -6.5 13 13
v -6.5 15 13
v -5.5 13 13
v -5.5 15 13
v 5.5 13 13
v 5.5 15 13
v 6.5 13 13
v 6.5 15 13
v -6.5 15 12
v -6.5 16 12
v -5.5 15 12
v 5.5 15 12
v 6.5 15 12
v 6.5 16 12
v -6.5 1 11
v -6.5 3 11
v -4.5 1 11
v -4.5 3 11
v 4.5 1 11
v 4.5 3 11
v 6.5 1 11
v 6.5 3 11
v -6.5 0 10
v -6.5 1 10
v -4.5 0 10
v -4.5 1 10
v 4.5 0 10
v 4.5 1 10
v 6.5 0 10
v 6.5 1 10
v -6.5 1 -9
v -6.5 3 -9
v -4.5 1 -9
v -4.5 3 -9
v 4.5 1 -9
v 4.5 3 -9
v 6.5 1 -9
v 6.5 3 -9
v -6.5 0 -10
v -6.5 1 -10
v -4.5 0 -10
v -4.5 1 -10
v 4.5 0 -10
v 4.5 1 -10
v 6.5 0 -10
v 6.5 1 -10
v -6.5 0 6
v -6.5 1 6
v -4.5 0 6
v -4.5 1 6
v 4.5 0 6
v 4.5 1 6
v 6.5 0 6
v 6.5 1 6
v -6.5 1 5
v -6.5 3 5
v -4.5 1 5
v -4.5 3 5
v 4.5 1 5
v 4.5 3 5
v 6.5 1 5
v 6.5 3 5
v -6.5 0 -14
v -6.5 1 -14
v -4.5 0 -14
v -4.5 1 -14
v 4.5 0 -14
v 4.5 1 -14
v 6.5 0 -14
v 6.5 1 -14
v -6.5 1 -15
v -6.5 3 -15
v -4.5 1 -15
v -4.5 3 -15
v 4.5 1 -15
v 4.5 3 -15
v 6.5 1 -15
v 6.5 3 -15
v -6.5 3 -17
v -6.5 7 -17
v -6.5 8 -17
v -6.5 16 -17
v 6.5 3 -17
v 6.5 7 -17
v 6.5 8 -17
v 6.5 16 -17
v -6.5 0 10
v -4.5 0 10
v 4.5 0 10
v 6.5 0 10
v -6.5 0 6
v -4.5 0 6
v 4.5 0 6
v 6.5 0 6
v -6.5 0 -10
v -4.5 0 -10
v 4.5 0 -10
v 6.5 0 -10
v -6.5 0 -14
v -4.5 0 -14
v 4.5 0 -14
v 6.5 0 -14
v -6.5 1 11
v -4.5 1 11
v 4.5 1 11
v 6.5 1 11
v -6.5 1 10
v -4.5 1 10
v 4.5 1 10
v 6.5 1 10
v -6.5 1 6
v -4.5 1 6
v 4.5 1 6
v 6.5 1 6
v -6.5 1 5
v -4.5 1 5
v 4.5 1 5
v 6.5 1 5
v -6.5 1 -9
v -4.5 1 -9
v 4.5 1 -9
v 6.5 1 -9
v -6.5 1 -10
v -4.5 1 -10
v 4.5 1 -10
v 6.5 1 -10
v -6.5 1 -14
v -4.5 1 -14
v 4.5 1 -14
v 6.5 1 -14
v -6.5 1 -15
v -4.5 1 -15
v 4.5 1 -15
v 6.5 1 -15
v -6.5 3 17
v 6.5 3 17
v -6.5 3 11
v -4.5 3 11
v 4.5 3 11
v 6.5 3 11
v -6.5 3 5
v -4.5 3 5
v 4.5 3 5
v 6.5 3 5
v -6.5 3 -9
v -4.5 3 -9
v 4.5 3 -9
v 6.5 3 -9
v -6.5 3 -15
v -4.5 3 -15
v 4.5 3 -15
v 6.5 3 -15
v -6.5 3 -17
v 6.5 3 -17
v -6.5 8 17
v 6.5 8 17
v -6.5 8 16
v -5.5 8 16
v 5.5 8 16
v 6.5 8 16
v -6.5 10 16
v -5.5 10 16
v 5.5 10 16
v 6.5 10 16
v -6.5 10 15
v -5.5 10 15
v 5.5 10 15
v 6.5 10 15
v -6.5 11 15
v -5.5 11 15
v 5.5 11 15
v 6.5 11 15
v -6.5 11 14
v -5.5 11 14
v 5.5 11 14
v 6.5 11 14
v -6.5 13 14
v -5.5 13 14
v 5.5 13 14
v 6.5 13 14
v -6.5 13 13
v -5.5 13 13
v 5.5 13 13
v 6.5 13 13
v -6.5 15 13
v -5.5 15 13
v 5.5 15 13
v 6.5 15 13
v -6.5 15 12
v -5.5 15 12
v 5.5 15 12
v 6.5 15 12
v -6.5 16 12
v 6.5 16 12
v -6.5 16 -17
v 6.5 16 -17

# faces
f 6/6/1 2/6/1 1/6/1
f 7/6/1 2/6/1 6/6/1
f 10/6/1 4/6/1 3/6/1
f 11/6/1 4/6/1 10/6/1
f 13/6/1 8/6/1 7/6/1
f 13/6/1 6/6/1 5/6/1
f 13/6/1 7/6/1 6/6/1
f 14/6/1 8/6/1 13/6/1
f 15/6/1 12/6/1 11/6/1
f 15/6/1 11/6/1 10/6/1
f 15/6/1 10/6/1 9/6/1
f 16/6/1 12/6/1 15/6/1
f 18/6/1 13/6/1 5/6/1
f 19/6/1 8/6/1 14/6/1
f 20/6/1 15/6/1 9/6/1
f 21/6/1 12/6/1 16/6/1
f 23/3/1 14/3/1 13/3/1
f 23/6/1 13/6/1 18/6/1
f 24/6/1 19/6/1 14/6/1
f 24/3/1 14/3/1 23/3/1
f 25/3/1 16/3/1 15/3/1
f 25/6/1 15/6/1 20/6/1
f 26/6/1 21/6/1 16/6/1
f 26/3/1 16/3/1 25/3/1
f 27/4/1 18/4/1 17/4/1
f 27/6/1 23/6/1 18/6/1
f 27/6/1 24/6/1 23/6/1
f 28/6/1 24/6/1 27/6/1
f 29/6/1 19/6/1 24/6/1
f 29/6/1 24/6/1 28/6/1
f 30/4/1 20/4/1 19/4/1
f 30/6/1 19/6/1 29/6/1
f 31/6/1 26/6/1 25/6/1
f 31/4/1 20/4/1 30/4/1
f 31/6/1 25/6/1 20/6/1
f 32/6/1 26/6/1 31/6/1
f 33/6/1 21/6/1 26/6/1
f 33/6/1 26/6/1 32/6/1
f 34/4/1 22/4/1 21/4/1
f 34/6/1 21/6/1 33/6/1
f 35/6/1 29/6/1 28/6/1
f 35/4/1 28/4/1 27/4/1
f 36/4/1 32/4/1 31/4/1
f 36/6/1 29/6/1 35/6/1
f 36/4/1 30/4/1 29/4/1
f 36/4/1 31/4/1 30/4/1
f 37/6/1 33/6/1 32/6/1
f 37/4/1 32/4/1 36/4/1
f 38/4/1 34/4/1 33/4/1
f 38/6/1 33/6/1 37/6/1
f 39/4/1 35/4/1 27/4/1
f 39/4/1 36/4/1 35/4/1
f 39/4/1 38/4/1 37/4/1
f 39/4/1 27/4/1 17/4/1
f 39/4/1 37/4/1 36/4/1
f 40/4/1 34/4/1 38/4/1
f 40/4/1 38/4/1 39/4/1
f 40/4/1 22/4/1 34/4/1
f 41/5/1 40/5/1 39/5/1
f 42/5/1 40/5/1 41/5/1
f 43/5/1 40/5/1 42/5/1
f 44/4/1 43/4/1 42/4/1
f 45/4/1 43/4/1 44/4/1
f 46/4/1 44/4/1 42/4/1
f 47/4/1 44/4/1 46/4/1
f 48/4/1 44/4/1 47/4/1
f 49/4/1 44/4/1 48/4/1
f 50/3/1 45/3/1 44/3/1
f 50/4/1 44/4/1 49/4/1
f 51/3/1 45/3/1 50/3/1
f 52/4/1 50/4/1 49/4/1
f 52/4/1 51/4/1 50/4/1
f 53/4/1 51/4/1 52/4/1
f 54/3/1 45/3/1 51/3/1
f 54/4/1 51/4/1 53/4/1
f 55/3/1 45/3/1 54/3/1
f 56/4/1 54/4/1 53/4/1
f 56/4/1 55/4/1 54/4/1
f 57/4/1 55/4/1 56/4/1
f 58/3/1 45/3/1 55/3/1
f 58/4/1 55/4/1 57/4/1
f 59/4/1 43/4/1 45/4/1
f 59/3/1 45/3/1 58/3/1
f 60/4/1 58/4/1 57/4/1
f 60/4/1 59/4/1 58/4/1
f 61/4/1 43/4/1 59/4/1
f 61/4/1 59/4/1 60/4/1
f 67/6/1 63/6/1 62/6/1
f 68/6/1 63/6/1 67/6/1
f 71/6/1 65/6/1 64/6/1
f 72/6/1 65/6/1 71/6/1
f 74/6/1 69/6/1 68/6/1
f 74/6/1 67/6/1 66/6/1
f 74/6/1 68/6/1 67/6/1
f 75/6/1 69/6/1 74/6/1
f 76/6/1 73/6/1 72/6/1
f 76/6/1 72/6/1 71/6/1
f 76/6/1 71/6/1 70/6/1
f 77/6/1 73/6/1 76/6/1
f 78/6/2 79/6/2 83/6/2
f 83/6/2 79/6/2 84/6/2
f 80/6/2 81/6/2 87/6/2
f 87/6/2 81/6/2 88/6/2
f 84/6/2 85/6/2 90/6/2
f 82/6/2 83/6/2 90/6/2
f 83/6/2 84/6/2 90/6/2
f 90/6/2 85/6/2 91/6/2
f 88/6/2 89/6/2 92/6/2
f 87/6/2 88/6/2 92/6/2
f 86/6/2 87/6/2 92/6/2
f 92/6/2 89/6/2 93/6/2
f 94/6/2 95/6/2 99/6/2
f 99/6/2 95/6/2 100/6/2
f 96/6/2 97/6/2 103/6/2
f 103/6/2 97/6/2 104/6/2
f 100/6/2 101/6/2 106/6/2
f 98/6/2 99/6/2 106/6/2
f 99/6/2 100/6/2 106/6/2
f 106/6/2 101/6/2 107/6/2
f 104/6/2 105/6/2 108/6/2
f 103/6/2 104/6/2 108/6/2
f 102/6/2 103/6/2 108/6/2
f 108/6/2 105/6/2 109/6/2
f 98/6/2 106/6/2 111/6/2
f 107/6/2 101/6/2 112/6/2
f 102/6/2 108/6/2 113/6/2
f 109/6/2 105/6/2 114/6/2
f 106/3/2 107/3/2 116/3/2
f 111/6/2 106/6/2 116/6/2
f 107/6/2 112/6/2 117/6/2
f 116/3/2 107/3/2 117/3/2
f 108/3/2 109/3/2 118/3/2
f 113/6/2 108/6/2 118/6/2
f 109/6/2 114/6/2 119/6/2
f 118/3/2 109/3/2 119/3/2
f 110/4/2 111/4/2 120/4/2
f 111/6/2 116/6/2 120/6/2
f 116/6/2 117/6/2 120/6/2
f 120/6/2 117/6/2 121/6/2
f 117/6/2 112/6/2 122/6/2
f 121/6/2 117/6/2 122/6/2
f 112/4/2 113/4/2 123/4/2
f 122/6/2 112/6/2 123/6/2
f 118/6/2 119/6/2 124/6/2
f 123/4/2 113/4/2 124/4/2
f 113/6/2 118/6/2 124/6/2
f 124/6/2 119/6/2 125/6/2
f 119/6/2 114/6/2 126/6/2
f 125/6/2 119/6/2 126/6/2
f 114/4/2 115/4/2 127/4/2
f 126/6/2 114/6/2 127/6/2
f 121/6/2 122/6/2 128/6/2
f 120/4/2 121/4/2 128/4/2
f 124/4/2 125/4/2 129/4/2
f 128/6/2 122/6/2 129/6/2
f 122/4/2 123/4/2 129/4/2
f 123/4/2 124/4/2 129/4/2
f 125/6/2 126/6/2 130/6/2
f 129/4/2 125/4/2 130/4/2
f 126/4/2 127/4/2 131/4/2
f 130/6/2 126/6/2 131/6/2
f 120/4/2 128/4/2 132/4/2
f 128/4/2 129/4/2 132/4/2
f 130/4/2 131/4/2 132/4/2
f 110/4/2 120/4/2 132/4/2
f 129/4/2 130/4/2 132/4/2
f 131/4/2 127/4/2 133/4/2
f 132/4/2 131/4/2 133/4/2
f 127/4/2 115/4/2 133/4/2
f 132/5/2 133/5/2 134/5/2
f 134/5/2 133/5/2 135/5/2
f 135/5/2 133/5/2 136/5/2
f 135/4/2 136/4/2 137/4/2
f 137/4/2 136/4/2 138/4/2
f 135/4/2 137/4/2 139/4/2
f 139/4/2 137/4/2 140/4/2
f 140/4/2 137/4/2 141/4/2
f 141/4/2 137/4/2 142/4/2
f 137/3/2 138/3/2 143/3/2
f 142/4/2 137/4/2 143/4/2
f 143/3/2 138/3/2 144/3/2
f 142/4/2 143/4/2 145/4/2
f 143/4/2 144/4/2 145/4/2
f 145/4/2 144/4/2 146/4/2
f 144/3/2 138/3/2 147/3/2
f 146/4/2 144/4/2 147/4/2
f 147/3/2 138/3/2 148/3/2
f 146/4/2 147/4/2 149/4/2
f 147/4/2 148/4/2 149/4/2
f 149/4/2 148/4/2 150/4/2
f 148/3/2 138/3/2 151/3/2
f 150/4/2 148/4/2 151/4/2
f 138/4/2 136/4/2 152/4/2
f 151/3/2 138/3/2 152/3/2
f 150/4/2 151/4/2 153/4/2
f 151/4/2 152/4/2 153/4/2
f 152/4/2 136/4/2 154/4/2
f 153/4/2 152/4/2 154/4/2
f 158/4/3 156/4/3 155/4/3
f 159/5/3 157/5/3 156/5/3
f 159/4/3 156/4/3 158/4/3
f 160/4/3 158/4/3 155/4/3
f 160/2/3 159/2/3 158/2/3
f 161/5/3 157/5/3 159/5/3
f 161/2/3 159/2/3 160/2/3
f 162/4/3 160/4/3 155/4/3
f 162/4/3 161/4/3 160/4/3
f 163/5/3 157/5/3 161/5/3
f 163/4/3 161/4/3 162/4/3
f 164/4/3 162/4/3 155/4/3
f 164/2/3 163/2/3 162/2/3
f 165/5/3 157/5/3 163/5/3
f 165/2/3 163/2/3 164/2/3
f 166/4/3 164/4/3 155/4/3
f 166/4/3 165/4/3 164/4/3
f 167/5/3 157/5/3 165/5/3
f 167/4/3 165/4/3 166/4/3
f 168/5/3 157/5/3 167/5/3
f 171/4/3 170/4/3 169/4/3
f 172/4/3 170/4/3 171/4/3
f 173/3/3 172/3/3 171/3/3
f 174/3/3 172/3/3 173/3/3
f 175/4/3 174/4/3 173/4/3
f 176/4/3 174/4/3 175/4/3
f 179/4/3 178/4/3 177/4/3
f 180/4/3 178/4/3 179/4/3
f 181/3/3 180/3/3 179/3/3
f 182/3/3 180/3/3 181/3/3
f 183/4/3 182/4/3 181/4/3
f 184/4/3 182/4/3 183/4/3
f 187/4/3 186/4/3 185/4/3
f 188/4/3 186/4/3 187/4/3
f 189/3/3 188/3/3 187/3/3
f 190/3/3 188/3/3 189/3/3
f 191/4/3 190/4/3 189/4/3
f 192/4/3 190/4/3 191/4/3
f 195/4/3 194/4/3 193/4/3
f 196/4/3 194/4/3 195/4/3
f 197/3/3 196/3/3 195/3/3
f 198/3/3 196/3/3 197/3/3
f 199/4/3 198/4/3 197/4/3
f 200/4/3 198/4/3 199/4/3
f 203/4/3 202/4/3 201/4/3
f 204/4/3 202/4/3 203/4/3
f 205/4/3 202/4/3 204/4/3
f 206/4/3 202/4/3 205/4/3
f 209/6/3 208/6/3 207/6/3
f 210/6/3 208/6/3 209/6/3
f 213/6/3 212/6/3 211/6/3
f 214/6/3 212/6/3 213/6/3
f 217/6/3 216/6/3 215/6/3
f 218/6/3 216/6/3 217/6/3
f 221/6/3 220/6/3 219/6/3
f 222/6/3 220/6/3 221/6/3
f 225/6/3 224/6/3 223/6/3
f 226/6/3 224/6/3 225/6/3
f 229/6/3 228/6/3 227/6/3
f 230/6/3 228/6/3 229/6/3
f 233/6/3 232/6/3 231/6/3
f 234/6/3 232/6/3 233/6/3
f 237/6/3 236/6/3 235/6/3
f 238/6/3 236/6/3 237/6/3
f 239/6/4 240/6/4 241/6/4
f 241/6/4 240/6/4 242/6/4
f 243/6/4 244/6/4 245/6/4
f 245/6/4 244/6/4 246/6/4
f 247/6/4 248/6/4 249/6/4
f 249/6/4 248/6/4 250/6/4
f 251/6/4 252/6/4 253/6/4
f 253/6/4 252/6/4 254/6/4
f 255/6/4 256/6/4 257/6/4
f 257/6/4 256/6/4 258/6/4
f 259/6/4 260/6/4 261/6/4
f 261/6/4 260/6/4 262/6/4
f 263/6/4 264/6/4 265/6/4
f 265/6/4 264/6/4 266/6/4
f 267/6/4 268/6/4 269/6/4
f 269/6/4 268/6/4 270/6/4
f 271/4/4 272/4/4 275/4/4
f 272/5/4 273/5/4 276/5/4
f 275/4/4 272/4/4 276/4/4
f 273/4/4 274/4/4 277/4/4
f 276/5/4 273/5/4 277/5/4
f 277/4/4 274/4/4 278/4/4
f 283/6/5 280/6/5 279/6/5
f 284/6/5 280/6/5 283/6/5
f 285/6/5 282/6/5 281/6/5
f 286/6/5 282/6/5 285/6/5
f 291/6/5 288/6/5 287/6/5
f 292/6/5 288/6/5 291/6/5
f 293/6/5 290/6/5 289/6/5
f 294/6/5 290/6/5 293/6/5
f 299/6/5 296/6/5 295/6/5
f 300/6/5 296/6/5 299/6/5
f 301/6/5 298/6/5 297/6/5
f 302/6/5 298/6/5 301/6/5
f 307/6/5 304/6/5 303/6/5
f 308/6/5 304/6/5 307/6/5
f 309/6/5 306/6/5 305/6/5
f 310/6/5 306/6/5 309/6/5
f 315/6/5 312/6/5 311/6/5
f 316/6/5 312/6/5 315/6/5
f 317/6/5 314/6/5 313/6/5
f 318/6/5 314/6/5 317/6/5
f 323/6/5 320/6/5 319/6/5
f 324/6/5 320/6/5 323/6/5
f 325/6/5 322/6/5 321/6/5
f 326/6/5 322/6/5 325/6/5
f 329/4/5 328/4/5 327/4/5
f 330/4/5 328/4/5 329/4/5
f 331/4/5 328/4/5 330/4/5
f 332/4/5 328/4/5 331/4/5
f 334/4/5 331/4/5 330/4/5
f 335/4/5 331/4/5 334/4/5
f 337/4/5 334/4/5 333/4/5
f 337/4/5 336/4/5 335/4/5
f 337/4/5 335/4/5 334/4/5
f 338/4/5 336/4/5 337/4/5
f 339/4/5 336/4/5 338/4/5
f 340/4/5 336/4/5 339/4/5
f 342/4/5 339/4/5 338/4/5
f 343/4/5 339/4/5 342/4/5
f 345/4/5 342/4/5 341/4/5
f 345/4/5 344/4/5 343/4/5
f 345/4/5 343/4/5 342/4/5
f 346/4/5 344/4/5 345/4/5
f 347/5/6 348/5/6 349/5/6
f 349/5/6 348/5/6 350/5/6
f 350/5/6 348/5/6 351/5/6
f 351/5/6 348/5/6 352/5/6
f 353/4/6 354/4/6 357/4/6
f 354/3/6 355/3/6 358/3/6
f 357/4/6 354/4/6 358/4/6
f 355/4/6 356/4/6 359/4/6
f 358/3/6 355/3/6 359/3/6
f 359/4/6 356/4/6 360/4/6
f 361/4/6 362/4/6 365/4/6
f 362/3/6 363/3/6 366/3/6
f 365/4/6 362/4/6 366/4/6
f 363/4/6 364/4/6 367/4/6
f 366/3/6 363/3/6 367/3/6
f 367/4/6 364/4/6 368/4/6
f 369/4/6 370/4/6 373/4/6
f 370/3/6 371/3/6 374/3/6
f 373/4/6 370/4/6 374/4/6
f 371/4/6 372/4/6 375/4/6
f 374/3/6 371/3/6 375/3/6
f 375/4/6 372/4/6 376/4/6
f 377/4/6 378/4/6 381/4/6
f 378/3/6 379/3/6 382/3/6
f 381/4/6 378/4/6 382/4/6
f 379/4/6 380/4/6 383/4/6
f 382/3/6 379/3/6 383/3/6
f 383/4/6 380/4/6 384/4/6
f 385/4/6 386/4/6 387/4/6
f 387/4/6 386/4/6 388/4/6
