# MagicaVoxel @ Ephtracy

# group
g van_flat_grey

# material
mtllib van_flat_grey.mtl
usemtl palette

# normals
vn -1 0 0
vn 1 0 0
vn 0 0 1
vn 0 0 -1
vn 0 -1 0
vn 0 1 0

# texcoords
vt 0.638672 0.5
vt 0.958984 0.5
vt 0.974609 0.5
vt 0.982422 0.5
vt 0.986328 0.5
vt 0.990234 0.5

# verts
v -6.5 0 14
v -6.5 0 10
v -6.5 0 -14
v -6.5 0 -18
v -6.5 1 15
v -6.5 1 14
v -6.5 1 10
v -6.5 1 9
v -6.5 1 -13
v -6.5 1 -14
v -6.5 1 -18
v -6.5 1 -19
v -6.5 2 13
v -6.5 2 11
v -6.5 2 -15
v -6.5 2 -17
v -6.5 3 21
v -6.5 3 15
v -6.5 3 9
v -6.5 3 -13
v -6.5 3 -19
v -6.5 3 -21
v -6.5 4 13
v -6.5 4 11
v -6.5 4 -15
v -6.5 4 -17
v -6.5 5 15
v -6.5 5 14
v -6.5 5 10
v -6.5 5 9
v -6.5 5 -13
v -6.5 5 -14
v -6.5 5 -18
v -6.5 5 -19
v -6.5 6 14
v -6.5 6 10
v -6.5 6 -14
v -6.5 6 -18
v -6.5 7 21
v -6.5 7 -21
v -6.5 8 21
v -6.5 8 20
v -6.5 8 2
v -6.5 8 -21
v -6.5 10 20
v -6.5 10 19
v -6.5 10 16
v -6.5 10 5
v -6.5 11 19
v -6.5 11 18
v -6.5 12 16
v -6.5 12 15
v -6.5 13 18
v -6.5 13 17
v -6.5 14 15
v -6.5 14 14
v -6.5 15 17
v -6.5 15 16
v -6.5 16 14
v -6.5 16 13
v -6.5 17 16
v -6.5 17 15
v -6.5 18 13
v -6.5 18 12
v -6.5 19 15
v -6.5 19 14
v -6.5 20 12
v -6.5 20 5
v -6.5 21 14
v -6.5 21 13
v -6.5 22 13
v -6.5 22 2
v 4.5 0 14
v 4.5 0 10
v 4.5 0 -14
v 4.5 0 -18
v 4.5 1 15
v 4.5 1 14
v 4.5 1 10
v 4.5 1 9
v 4.5 1 -13
v 4.5 1 -14
v 4.5 1 -18
v 4.5 1 -19
v 4.5 3 15
v 4.5 3 9
v 4.5 3 -13
v 4.5 3 -19
v -4.5 0 14
v -4.5 0 10
v -4.5 0 -14
v -4.5 0 -18
v -4.5 1 15
v -4.5 1 14
v -4.5 1 10
v -4.5 1 9
v -4.5 1 -13
v -4.5 1 -14
v -4.5 1 -18
v -4.5 1 -19
v -4.5 3 15
v -4.5 3 9
v -4.5 3 -13
v -4.5 3 -19
v 6.5 0 14
v 6.5 0 10
v 6.5 0 -14
v 6.5 0 -18
v 6.5 1 15
v 6.5 1 14
v 6.5 1 10
v 6.5 1 9
v 6.5 1 -13
v 6.5 1 -14
v 6.5 1 -18
v 6.5 1 -19
v 6.5 2 13
v 6.5 2 11
v 6.5 2 -15
v 6.5 2 -17
v 6.5 3 21
v 6.5 3 15
v 6.5 3 9
v 6.5 3 -13
v 6.5 3 -19
v 6.5 3 -21
v 6.5 4 13
v 6.5 4 11
v 6.5 4 -15
v 6.5 4 -17
v 6.5 5 15
v 6.5 5 14
v 6.5 5 10
v 6.5 5 9
v 6.5 5 -13
v 6.5 5 -14
v 6.5 5 -18
v 6.5 5 -19
v 6.5 6 14
v 6.5 6 10
v 6.5 6 -14
v 6.5 6 -18
v 6.5 7 21
v 6.5 7 -21
v 6.5 8 21
v 6.5 8 20
v 6.5 8 2
v 6.5 8 -21
v 6.5 10 20
v 6.5 10 19
v 6.5 10 16
v 6.5 10 5
v 6.5 11 19
v 6.5 11 18
v 6.5 12 16
v 6.5 12 15
v 6.5 13 18
v 6.5 13 17
v 6.5 14 15
v 6.5 14 14
v 6.5 15 17
v 6.5 15 16
v 6.5 16 14
v 6.5 16 13
v 6.5 17 16
v 6.5 17 15
v 6.5 18 13
v 6.5 18 12
v 6.5 19 15
v 6.5 19 14
v 6.5 20 12
v 6.5 20 5
v 6.5 21 14
v 6.5 21 13
v 6.5 22 13
v 6.5 22 2
v -6.5 3 21
v -6.5 7 21
v -6.5 8 21
v -5.5 4 21
v -5.5 7 21
v -2.5 4 21
v -2.5 7 21
v 2.5 4 21
v 2.5 7 21
v 5.5 4 21
v 5.5 7 21
v 6.5 3 21
v 6.5 7 21
v 6.5 8 21
v -6.5 8 20
v -6.5 10 20
v 6.5 8 20
v 6.5 10 20
v -6.5 10 19
v -6.5 11 19
v 6.5 10 19
v 6.5 11 19
v -6.5 11 18
v -6.5 13 18
v -5.5 11 18
v -5.5 13 18
v 5.5 11 18
v 5.5 13 18
v 6.5 11 18
v 6.5 13 18
v -6.5 13 17
v -6.5 15 17
v -5.5 13 17
v -5.5 15 17
v 5.5 13 17
v 5.5 15 17
v 6.5 13 17
v 6.5 15 17
v -6.5 15 16
v -6.5 17 16
v -5.5 15 16
v -5.5 17 16
v 5.5 15 16
v 5.5 17 16
v 6.5 15 16
v 6.5 17 16
v -6.5 1 15
v -6.5 3 15
v -6.5 17 15
v -6.5 19 15
v -5.5 17 15
v -5.5 19 15
v -4.5 1 15
v -4.5 3 15
v 4.5 1 15
v 4.5 3 15
v 5.5 17 15
v 5.5 19 15
v 6.5 1 15
v 6.5 3 15
v 6.5 17 15
v 6.5 19 15
v -6.5 0 14
v -6.5 1 14
v -6.5 19 14
v -6.5 21 14
v -5.5 19 14
v -5.5 21 14
v -4.5 0 14
v -4.5 1 14
v 4.5 0 14
v 4.5 1 14
v 5.5 19 14
v 5.5 21 14
v 6.5 0 14
v 6.5 1 14
v 6.5 19 14
v 6.5 21 14
v -6.5 21 13
v -6.5 22 13
v -5.5 21 13
v 5.5 21 13
v 6.5 21 13
v 6.5 22 13
v -6.5 1 -13
v -6.5 3 -13
v -4.5 1 -13
v -4.5 3 -13
v 4.5 1 -13
v 4.5 3 -13
v 6.5 1 -13
v 6.5 3 -13
v -6.5 0 -14
v -6.5 1 -14
v -4.5 0 -14
v -4.5 1 -14
v 4.5 0 -14
v 4.5 1 -14
v 6.5 0 -14
v 6.5 1 -14
v -6.5 0 10
v -6.5 1 10
v -4.5 0 10
v -4.5 1 10
v 4.5 0 10
v 4.5 1 10
v 6.5 0 10
v 6.5 1 10
v -6.5 1 9
v -6.5 3 9
v -4.5 1 9
v -4.5 3 9
v 4.5 1 9
v 4.5 3 9
v 6.5 1 9
v 6.5 3 9
v -6.5 8 2
v -6.5 22 2
v -5.5 8 2
v 5.5 8 2
v 6.5 8 2
v 6.5 22 2
v -6.5 0 -18
v -6.5 1 -18
v -4.5 0 -18
v -4.5 1 -18
v 4.5 0 -18
v 4.5 1 -18
v 6.5 0 -18
v 6.5 1 -18
v -6.5 1 -19
v -6.5 3 -19
v -4.5 1 -19
v -4.5 3 -19
v 4.5 1 -19
v 4.5 3 -19
v 6.5 1 -19
v 6.5 3 -19
v -6.5 3 -21
v -6.5 7 -21
v -6.5 8 -21
v 6.5 3 -21
v 6.5 7 -21
v 6.5 8 -21
v -6.5 0 14
v -4.5 0 14
v 4.5 0 14
v 6.5 0 14
v -6.5 0 10
v -4.5 0 10
v 4.5 0 10
v 6.5 0 10
v -6.5 0 -14
v -4.5 0 -14
v 4.5 0 -14
v 6.5 0 -14
v -6.5 0 -18
v -4.5 0 -18
v 4.5 0 -18
v 6.5 0 -18
v -6.5 1 15
v -4.5 1 15
v 4.5 1 15
v 6.5 1 15
v -6.5 1 14
v -4.5 1 14
v 4.5 1 14
v 6.5 1 14
v -6.5 1 10
v -4.5 1 10
v 4.5 1 10
v 6.5 1 10
v -6.5 1 9
v -4.5 1 9
v 4.5 1 9
v 6.5 1 9
v -6.5 1 -13
v -4.5 1 -13
v 4.5 1 -13
v 6.5 1 -13
v -6.5 1 -14
v -4.5 1 -14
v 4.5 1 -14
v 6.5 1 -14
v -6.5 1 -18
v -4.5 1 -18
v 4.5 1 -18
v 6.5 1 -18
v -6.5 1 -19
v -4.5 1 -19
v 4.5 1 -19
v 6.5 1 -19
v -6.5 3 21
v 6.5 3 21
v -6.5 3 15
v -4.5 3 15
v 4.5 3 15
v 6.5 3 15
v -6.5 3 9
v -4.5 3 9
v 4.5 3 9
v 6.5 3 9
v -6.5 3 -13
v -4.5 3 -13
v 4.5 3 -13
v 6.5 3 -13
v -6.5 3 -19
v -4.5 3 -19
v 4.5 3 -19
v 6.5 3 -19
v -6.5 3 -21
v 6.5 3 -21
v -6.5 8 21
v 6.5 8 21
v -6.5 8 20
v 6.5 8 20
v -6.5 8 2
v -5.5 8 2
v 5.5 8 2
v 6.5 8 2
v -5.5 8 -20
v 5.5 8 -20
v -6.5 8 -21
v 6.5 8 -21
v -6.5 10 20
v 6.5 10 20
v -6.5 10 19
v 6.5 10 19
v -6.5 11 19
v 6.5 11 19
v -6.5 11 18
v -5.5 11 18
v 5.5 11 18
v 6.5 11 18
v -6.5 13 18
v -5.5 13 18
v 5.5 13 18
v 6.5 13 18
v -6.5 13 17
v -5.5 13 17
v 5.5 13 17
v 6.5 13 17
v -6.5 15 17
v -5.5 15 17
v 5.5 15 17
v 6.5 15 17
v -6.5 15 16
v -5.5 15 16
v 5.5 15 16
v 6.5 15 16
v -6.5 17 16
v -5.5 17 16
v 5.5 17 16
v 6.5 17 16
v -6.5 17 15
v -5.5 17 15
v 5.5 17 15
v 6.5 17 15
v -6.5 19 15
v -5.5 19 15
v 5.5 19 15
v 6.5 19 15
v -6.5 19 14
v -5.5 19 14
v 5.5 19 14
v 6.5 19 14
v -6.5 21 14
v -5.5 21 14
v 5.5 21 14
v 6.5 21 14
v -6.5 21 13
v -5.5 21 13
v 5.5 21 13
v 6.5 21 13
v -6.5 22 13
v 6.5 22 13
v -6.5 22 2
v 6.5 22 2

# faces
f 6/6/1 2/6/1 1/6/1
f 7/6/1 2/6/1 6/6/1
f 10/6/1 4/6/1 3/6/1
f 11/6/1 4/6/1 10/6/1
f 13/6/1 8/6/1 7/6/1
f 13/6/1 6/6/1 5/6/1
f 13/6/1 7/6/1 6/6/1
f 14/6/1 8/6/1 13/6/1
f 15/6/1 12/6/1 11/6/1
f 15/6/1 11/6/1 10/6/1
f 15/6/1 10/6/1 9/6/1
f 16/6/1 12/6/1 15/6/1
f 18/6/1 13/6/1 5/6/1
f 19/6/1 8/6/1 14/6/1
f 20/6/1 15/6/1 9/6/1
f 21/6/1 12/6/1 16/6/1
f 23/3/1 14/3/1 13/3/1
f 23/6/1 13/6/1 18/6/1
f 24/6/1 19/6/1 14/6/1
f 24/3/1 14/3/1 23/3/1
f 25/3/1 16/3/1 15/3/1
f 25/6/1 15/6/1 20/6/1
f 26/6/1 21/6/1 16/6/1
f 26/3/1 16/3/1 25/3/1
f 27/4/1 18/4/1 17/4/1
f 27/6/1 23/6/1 18/6/1
f 27/6/1 24/6/1 23/6/1
f 28/6/1 24/6/1 27/6/1
f 29/6/1 19/6/1 24/6/1
f 29/6/1 24/6/1 28/6/1
f 30/4/1 20/4/1 19/4/1
f 30/6/1 19/6/1 29/6/1
f 31/6/1 26/6/1 25/6/1
f 31/4/1 20/4/1 30/4/1
f 31/6/1 25/6/1 20/6/1
f 32/6/1 26/6/1 31/6/1
f 33/6/1 21/6/1 26/6/1
f 33/6/1 26/6/1 32/6/1
f 34/4/1 22/4/1 21/4/1
f 34/6/1 21/6/1 33/6/1
f 35/6/1 29/6/1 28/6/1
f 35/4/1 28/4/1 27/4/1
f 36/4/1 32/4/1 31/4/1
f 36/6/1 29/6/1 35/6/1
f 36/4/1 30/4/1 29/4/1
f 36/4/1 31/4/1 30/4/1
f 37/6/1 33/6/1 32/6/1
f 37/4/1 32/4/1 36/4/1
f 38/4/1 34/4/1 33/4/1
f 38/6/1 33/6/1 37/6/1
f 39/4/1 35/4/1 27/4/1
f 39/4/1 36/4/1 35/4/1
f 39/4/1 38/4/1 37/4/1
f 39/4/1 27/4/1 17/4/1
f 39/4/1 37/4/1 36/4/1
f 40/4/1 34/4/1 38/4/1
f 40/4/1 38/4/1 39/4/1
f 40/4/1 22/4/1 34/4/1
f 41/5/1 40/5/1 39/5/1
f 42/5/1 40/5/1 41/5/1
f 43/5/1 40/5/1 42/5/1
f 44/5/1 40/5/1 43/5/1
f 45/4/1 43/4/1 42/4/1
f 46/4/1 43/4/1 45/4/1
f 47/4/1 43/4/1 46/4/1
f 48/4/1 43/4/1 47/4/1
f 49/4/1 47/4/1 46/4/1
f 50/4/1 47/4/1 49/4/1
f 51/3/1 48/3/1 47/3/1
f 51/4/1 47/4/1 50/4/1
f 52/3/1 48/3/1 51/3/1
f 53/4/1 51/4/1 50/4/1
f 53/4/1 52/4/1 51/4/1
f 54/4/1 52/4/1 53/4/1
f 55/3/1 48/3/1 52/3/1
f 55/4/1 52/4/1 54/4/1
f 56/3/1 48/3/1 55/3/1
f 57/4/1 55/4/1 54/4/1
f 57/4/1 56/4/1 55/4/1
f 58/4/1 56/4/1 57/4/1
f 59/3/1 48/3/1 56/3/1
f 59/4/1 56/4/1 58/4/1
f 60/3/1 48/3/1 59/3/1
f 61/4/1 59/4/1 58/4/1
f 61/4/1 60/4/1 59/4/1
f 62/4/1 60/4/1 61/4/1
f 63/3/1 48/3/1 60/3/1
f 63/4/1 60/4/1 62/4/1
f 64/3/1 48/3/1 63/3/1
f 65/4/1 63/4/1 62/4/1
f 65/4/1 64/4/1 63/4/1
f 66/4/1 64/4/1 65/4/1
f 67/3/1 48/3/1 64/3/1
f 67/4/1 64/4/1 66/4/1
f 68/4/1 43/4/1 48/4/1
f 68/3/1 48/3/1 67/3/1
f 69/4/1 67/4/1 66/4/1
f 69/4/1 68/4/1 67/4/1
f 70/4/1 68/4/1 69/4/1
f 71/4/1 68/4/1 70/4/1
f 72/4/1 43/4/1 68/4/1
f 72/4/1 68/4/1 71/4/1
f 78/6/1 74/6/1 73/6/1
f 79/6/1 74/6/1 78/6/1
f 82/6/1 76/6/1 75/6/1
f 83/6/1 76/6/1 82/6/1
f 85/6/1 80/6/1 79/6/1
f 85/6/1 78/6/1 77/6/1
f 85/6/1 79/6/1 78/6/1
f 86/6/1 80/6/1 85/6/1
f 87/6/1 84/6/1 83/6/1
f 87/6/1 83/6/1 82/6/1
f 87/6/1 82/6/1 81/6/1
f 88/6/1 84/6/1 87/6/1
f 89/6/2 90/6/2 94/6/2
f 94/6/2 90/6/2 95/6/2
f 91/6/2 92/6/2 98/6/2
f 98/6/2 92/6/2 99/6/2
f 95/6/2 96/6/2 101/6/2
f 93/6/2 94/6/2 101/6/2
f 94/6/2 95/6/2 101/6/2
f 101/6/2 96/6/2 102/6/2
f 99/6/2 100/6/2 103/6/2
f 98/6/2 99/6/2 103/6/2
f 97/6/2 98/6/2 103/6/2
f 103/6/2 100/6/2 104/6/2
f 105/6/2 106/6/2 110/6/2
f 110/6/2 106/6/2 111/6/2
f 107/6/2 108/6/2 114/6/2
f 114/6/2 108/6/2 115/6/2
f 111/6/2 112/6/2 117/6/2
f 109/6/2 110/6/2 117/6/2
f 110/6/2 111/6/2 117/6/2
f 117/6/2 112/6/2 118/6/2
f 115/6/2 116/6/2 119/6/2
f 114/6/2 115/6/2 119/6/2
f 113/6/2 114/6/2 119/6/2
f 119/6/2 116/6/2 120/6/2
f 109/6/2 117/6/2 122/6/2
f 118/6/2 112/6/2 123/6/2
f 113/6/2 119/6/2 124/6/2
f 120/6/2 116/6/2 125/6/2
f 117/3/2 118/3/2 127/3/2
f 122/6/2 117/6/2 127/6/2
f 118/6/2 123/6/2 128/6/2
f 127/3/2 118/3/2 128/3/2
f 119/3/2 120/3/2 129/3/2
f 124/6/2 119/6/2 129/6/2
f 120/6/2 125/6/2 130/6/2
f 129/3/2 120/3/2 130/3/2
f 121/4/2 122/4/2 131/4/2
f 122/6/2 127/6/2 131/6/2
f 127/6/2 128/6/2 131/6/2
f 131/6/2 128/6/2 132/6/2
f 128/6/2 123/6/2 133/6/2
f 132/6/2 128/6/2 133/6/2
f 123/4/2 124/4/2 134/4/2
f 133/6/2 123/6/2 134/6/2
f 129/6/2 130/6/2 135/6/2
f 134/4/2 124/4/2 135/4/2
f 124/6/2 129/6/2 135/6/2
f 135/6/2 130/6/2 136/6/2
f 130/6/2 125/6/2 137/6/2
f 136/6/2 130/6/2 137/6/2
f 125/4/2 126/4/2 138/4/2
f 137/6/2 125/6/2 138/6/2
f 132/6/2 133/6/2 139/6/2
f 131/4/2 132/4/2 139/4/2
f 135/4/2 136/4/2 140/4/2
f 139/6/2 133/6/2 140/6/2
f 133/4/2 134/4/2 140/4/2
f 134/4/2 135/4/2 140/4/2
f 136/6/2 137/6/2 141/6/2
f 140/4/2 136/4/2 141/4/2
f 137/4/2 138/4/2 142/4/2
f 141/6/2 137/6/2 142/6/2
f 131/4/2 139/4/2 143/4/2
f 139/4/2 140/4/2 143/4/2
f 141/4/2 142/4/2 143/4/2
f 121/4/2 131/4/2 143/4/2
f 140/4/2 141/4/2 143/4/2
f 142/4/2 138/4/2 144/4/2
f 143/4/2 142/4/2 144/4/2
f 138/4/2 126/4/2 144/4/2
f 143/5/2 144/5/2 145/5/2
f 145/5/2 144/5/2 146/5/2
f 146/5/2 144/5/2 147/5/2
f 147/5/2 144/5/2 148/5/2
f 146/4/2 147/4/2 149/4/2
f 149/4/2 147/4/2 150/4/2
f 150/4/2 147/4/2 151/4/2
f 151/4/2 147/4/2 152/4/2
f 150/4/2 151/4/2 153/4/2
f 153/4/2 151/4/2 154/4/2
f 151/3/2 152/3/2 155/3/2
f 154/4/2 151/4/2 155/4/2
f 155/3/2 152/3/2 156/3/2
f 154/4/2 155/4/2 157/4/2
f 155/4/2 156/4/2 157/4/2
f 157/4/2 156/4/2 158/4/2
f 156/3/2 152/3/2 159/3/2
f 158/4/2 156/4/2 159/4/2
f 159/3/2 152/3/2 160/3/2
f 158/4/2 159/4/2 161/4/2
f 159/4/2 160/4/2 161/4/2
f 161/4/2 160/4/2 162/4/2
f 160/3/2 152/3/2 163/3/2
f 162/4/2 160/4/2 163/4/2
f 163/3/2 152/3/2 164/3/2
f 162/4/2 163/4/2 165/4/2
f 163/4/2 164/4/2 165/4/2
f 165/4/2 164/4/2 166/4/2
f 164/3/2 152/3/2 167/3/2
f 166/4/2 164/4/2 167/4/2
f 167/3/2 152/3/2 168/3/2
f 166/4/2 167/4/2 169/4/2
f 167/4/2 168/4/2 169/4/2
f 169/4/2 168/4/2 170/4/2
f 168/3/2 152/3/2 171/3/2
f 170/4/2 168/4/2 171/4/2
f 152/4/2 147/4/2 172/4/2
f 171/3/2 152/3/2 172/3/2
f 170/4/2 171/4/2 173/4/2
f 171/4/2 172/4/2 173/4/2
f 173/4/2 172/4/2 174/4/2
f 174/4/2 172/4/2 175/4/2
f 172/4/2 147/4/2 176/4/2
f 175/4/2 172/4/2 176/4/2
f 180/4/3 178/4/3 177/4/3
f 181/5/3 179/5/3 178/5/3
f 181/4/3 178/4/3 180/4/3
f 182/4/3 180/4/3 177/4/3
f 182/2/3 181/2/3 180/2/3
f 183/5/3 179/5/3 181/5/3
f 183/2/3 181/2/3 182/2/3
f 184/4/3 182/4/3 177/4/3
f 184/4/3 183/4/3 182/4/3
f 185/5/3 179/5/3 183/5/3
f 185/4/3 183/4/3 184/4/3
f 186/4/3 184/4/3 177/4/3
f 186/2/3 185/2/3 184/2/3
f 187/5/3 179/5/3 185/5/3
f 187/2/3 185/2/3 186/2/3
f 188/4/3 186/4/3 177/4/3
f 188/4/3 187/4/3 186/4/3
f 189/5/3 179/5/3 187/5/3
f 189/4/3 187/4/3 188/4/3
f 190/5/3 179/5/3 189/5/3
f 193/4/3 192/4/3 191/4/3
f 194/4/3 192/4/3 193/4/3
f 197/4/3 196/4/3 195/4/3
f 198/4/3 196/4/3 197/4/3
f 201/4/3 200/4/3 199/4/3
f 202/4/3 200/4/3 201/4/3
f 203/3/3 202/3/3 201/3/3
f 204/3/3 202/3/3 203/3/3
f 205/4/3 204/4/3 203/4/3
f 206/4/3 204/4/3 205/4/3
f 209/4/3 208/4/3 207/4/3
f 210/4/3 208/4/3 209/4/3
f 211/3/3 210/3/3 209/3/3
f 212/3/3 210/3/3 211/3/3
f 213/4/3 212/4/3 211/4/3
f 214/4/3 212/4/3 213/4/3
f 217/4/3 216/4/3 215/4/3
f 218/4/3 216/4/3 217/4/3
f 219/3/3 218/3/3 217/3/3
f 220/3/3 218/3/3 219/3/3
f 221/4/3 220/4/3 219/4/3
f 222/4/3 220/4/3 221/4/3
f 227/4/3 226/4/3 225/4/3
f 228/4/3 226/4/3 227/4/3
f 229/6/3 224/6/3 223/6/3
f 230/6/3 224/6/3 229/6/3
f 233/3/3 228/3/3 227/3/3
f 234/3/3 228/3/3 233/3/3
f 235/6/3 232/6/3 231/6/3
f 236/6/3 232/6/3 235/6/3
f 237/4/3 234/4/3 233/4/3
f 238/4/3 234/4/3 237/4/3
f 243/4/3 242/4/3 241/4/3
f 244/4/3 242/4/3 243/4/3
f 245/6/3 240/6/3 239/6/3
f 246/6/3 240/6/3 245/6/3
f 249/3/3 244/3/3 243/3/3
f 250/3/3 244/3/3 249/3/3
f 251/6/3 248/6/3 247/6/3
f 252/6/3 248/6/3 251/6/3
f 253/4/3 250/4/3 249/4/3
f 254/4/3 250/4/3 253/4/3
f 257/4/3 256/4/3 255/4/3
f 258/4/3 256/4/3 257/4/3
f 259/4/3 256/4/3 258/4/3
f 260/4/3 256/4/3 259/4/3
f 263/6/3 262/6/3 261/6/3
f 264/6/3 262/6/3 263/6/3
f 267/6/3 266/6/3 265/6/3
f 268/6/3 266/6/3 267/6/3
f 271/6/3 270/6/3 269/6/3
f 272/6/3 270/6/3 271/6/3
f 275/6/3 274/6/3 273/6/3
f 276/6/3 274/6/3 275/6/3
f 277/6/4 278/6/4 279/6/4
f 279/6/4 278/6/4 280/6/4
f 281/6/4 282/6/4 283/6/4
f 283/6/4 282/6/4 284/6/4
f 285/6/4 286/6/4 287/6/4
f 287/6/4 286/6/4 288/6/4
f 289/6/4 290/6/4 291/6/4
f 291/6/4 290/6/4 292/6/4
f 293/4/4 294/4/4 295/4/4
f 295/4/4 294/4/4 296/4/4
f 296/4/4 294/4/4 297/4/4
f 297/4/4 294/4/4 298/4/4
f 299/6/4 300/6/4 301/6/4
f 301/6/4 300/6/4 302/6/4
f 303/6/4 304/6/4 305/6/4
f 305/6/4 304/6/4 306/6/4
f 307/6/4 308/6/4 309/6/4
f 309/6/4 308/6/4 310/6/4
f 311/6/4 312/6/4 313/6/4
f 313/6/4 312/6/4 314/6/4
f 315/4/4 316/4/4 318/4/4
f 316/5/4 317/5/4 319/5/4
f 318/4/4 316/4/4 319/4/4
f 319/5/4 317/5/4 320/5/4
f 325/6/5 322/6/5 321/6/5
f 326/6/5 322/6/5 325/6/5
f 327/6/5 324/6/5 323/6/5
f 328/6/5 324/6/5 327/6/5
f 333/6/5 330/6/5 329/6/5
f 334/6/5 330/6/5 333/6/5
f 335/6/5 332/6/5 331/6/5
f 336/6/5 332/6/5 335/6/5
f 341/6/5 338/6/5 337/6/5
f 342/6/5 338/6/5 341/6/5
f 343/6/5 340/6/5 339/6/5
f 344/6/5 340/6/5 343/6/5
f 349/6/5 346/6/5 345/6/5
f 350/6/5 346/6/5 349/6/5
f 351/6/5 348/6/5 347/6/5
f 352/6/5 348/6/5 351/6/5
f 357/6/5 354/6/5 353/6/5
f 358/6/5 354/6/5 357/6/5
f 359/6/5 356/6/5 355/6/5
f 360/6/5 356/6/5 359/6/5
f 365/6/5 362/6/5 361/6/5
f 366/6/5 362/6/5 365/6/5
f 367/6/5 364/6/5 363/6/5
f 368/6/5 364/6/5 367/6/5
f 371/4/5 370/4/5 369/4/5
f 372/4/5 370/4/5 371/4/5
f 373/4/5 370/4/5 372/4/5
f 374/4/5 370/4/5 373/4/5
f 376/4/5 373/4/5 372/4/5
f 377/4/5 373/4/5 376/4/5
f 379/4/5 376/4/5 375/4/5
f 379/4/5 378/4/5 377/4/5
f 379/4/5 377/4/5 376/4/5
f 380/4/5 378/4/5 379/4/5
f 381/4/5 378/4/5 380/4/5
f 382/4/5 378/4/5 381/4/5
f 384/4/5 381/4/5 380/4/5
f 385/4/5 381/4/5 384/4/5
f 387/4/5 384/4/5 383/4/5
f 387/4/5 386/4/5 385/4/5
f 387/4/5 385/4/5 384/4/5
f 388/4/5 386/4/5 387/4/5
f 389/5/6 390/5/6 391/5/6
f 391/5/6 390/5/6 392/5/6
f 393/5/6 394/5/6 397/5/6
f 394/4/6 395/4/6 397/4/6
f 395/5/6 396/5/6 398/5/6
f 397/4/6 395/4/6 398/4/6
f 393/5/6 397/5/6 399/5/6
f 397/5/6 398/5/6 399/5/6
f 398/5/6 396/5/6 400/5/6
f 399/5/6 398/5/6 400/5/6
f 401/4/6 402/4/6 403/4/6
f 403/4/6 402/4/6 404/4/6
f 405/4/6 406/4/6 407/4/6
f 407/4/6 406/4/6 408/4/6
f 408/4/6 406/4/6 409/4/6
f 409/4/6 406/4/6 410/4/6
f 411/4/6 412/4/6 415/4/6
f 412/3/6 413/3/6 416/3/6
f 415/4/6 412/4/6 416/4/6
f 413/4/6 414/4/6 417/4/6
f 416/3/6 413/3/6 417/3/6
f 417/4/6 414/4/6 418/4/6
f 419/4/6 420/4/6 423/4/6
f 420/3/6 421/3/6 424/3/6
f 423/4/6 420/4/6 424/4/6
f 421/4/6 422/4/6 425/4/6
f 424/3/6 421/3/6 425/3/6
f 425/4/6 422/4/6 426/4/6
f 427/4/6 428/4/6 431/4/6
f 428/3/6 429/3/6 432/3/6
f 431/4/6 428/4/6 432/4/6
f 429/4/6 430/4/6 433/4/6
f 432/3/6 429/3/6 433/3/6
f 433/4/6 430/4/6 434/4/6
f 435/4/6 436/4/6 439/4/6
f 436/3/6 437/3/6 440/3/6
f 439/4/6 436/4/6 440/4/6
f 437/4/6 438/4/6 441/4/6
f 440/3/6 437/3/6 441/3/6
f 441/4/6 438/4/6 442/4/6
f 443/4/6 444/4/6 447/4/6
f 444/3/6 445/3/6 448/3/6
f 447/4/6 444/4/6 448/4/6
f 445/4/6 446/4/6 449/4/6
f 448/3/6 445/3/6 449/3/6
f 449/4/6 446/4/6 450/4/6
f 451/4/6 452/4/6 453/4/6
f 453/4/6 452/4/6 454/4/6
