# MagicaVoxel @ Ephtracy

# group
o 

# material
mtllib Corner Cafe-17.mtl
usemtl palette

# normals
vn 0 0 1
vn 0 0 -1
vn 1 0 0
vn -1 0 0
vn 0 -1 0
vn 0 1 0

# texcoords
vt 0.564453 0.5
vt 0.595703 0.5
vt 0.626953 0.5

# verts
v 0.8 0 0.7
v -0.7 0 0.7
v 0.8 0.3 0.7
v -0.7 0.3 0.7
v 0.8 0.4 0.7
v 0.1 0.4 0.7
v -0.1 0.4 0.7
v -0.5 0.4 0.7
v 0.8 0.5 0.7
v 0.1 0.5 0.7
v -0.1 0.5 0.7
v -0.5 0.5 0.7
v -0.7 0.5 0.7
v 0.8 0 -0.8
v -0.7 0 -0.8
v 0.8 0.3 -0.8
v -0.7 0.3 -0.8
v 0.8 0.4 -0.8
v 0.2 0.4 -0.8
v 0.1 0.4 -0.8
v 0.8 0.5 -0.8
v 0.2 0.5 -0.8
v 0.1 0.5 -0.8
v -0.7 0.5 -0.8
v 0.8 0 0.7
v 0.8 0.3 0.7
v 0.8 0.4 0.7
v 0.8 0.5 0.7
v 0.8 0.4 0.4
v 0.8 0.5 0.4
v 0.8 0.4 0.1
v 0.8 0.5 0.1
v 0.8 0 -0.8
v 0.8 0.3 -0.8
v 0.8 0.4 -0.8
v 0.8 0.5 -0.8
v -0.7 0 0.7
v -0.7 0.3 0.7
v -0.7 0.5 0.7
v -0.7 0 -0.8
v -0.7 0.3 -0.8
v -0.7 0.5 -0.8
v 0.8 0 0.7
v 0.8 0 -0.8
v -0.7 0 0.7
v -0.7 0 -0.8
v 0.8 0.5 0.7
v 0.8 0.5 0.4
v 0.8 0.5 0.1
v 0.8 0.5 -0.8
v 0.7 0.5 0.4
v 0.7 0.5 0.3
v 0.7 0.5 0.2
v 0.7 0.5 0.1
v 0.3 0.5 0.1
v 0.3 0.5 0
v 0.2 0.5 0.4
v 0.2 0.5 0.3
v 0.2 0.5 0.2
v 0.2 0.5 0.1
v 0.2 0.5 0
v 0.2 0.5 -0.8
v 0.1 0.5 0.7
v 0.1 0.5 0.4
v 0.1 0.5 0.1
v 0.1 0.5 -0.8
v 0 0.5 0.6
v 0 0.5 -0.6
v -0.1 0.5 0.7
v -0.1 0.5 0.6
v -0.1 0.5 -0.6
v -0.1 0.5 -0.7
v -0.4 0.5 0.6
v -0.4 0.5 0.5
v -0.5 0.5 0.7
v -0.5 0.5 0.6
v -0.5 0.5 0.5
v -0.5 0.5 -0.6
v -0.5 0.5 -0.7
v -0.6 0.5 0.6
v -0.6 0.5 -0.6
v -0.7 0.5 0.7
v -0.7 0.5 -0.8

# faces
f 3/3/1 2/3/1 1/3/1
f 4/3/1 2/3/1 3/3/1
f 5/1/1 4/1/1 3/1/1
f 6/1/1 4/1/1 5/1/1
f 7/1/1 4/1/1 6/1/1
f 8/1/1 4/1/1 7/1/1
f 9/3/1 6/3/1 5/3/1
f 10/1/1 7/1/1 6/1/1
f 10/3/1 6/3/1 9/3/1
f 11/2/1 8/2/1 7/2/1
f 11/1/1 7/1/1 10/1/1
f 12/1/1 4/1/1 8/1/1
f 12/2/1 8/2/1 11/2/1
f 13/1/1 4/1/1 12/1/1
f 14/3/2 15/3/2 16/3/2
f 16/3/2 15/3/2 17/3/2
f 16/1/2 17/1/2 18/1/2
f 18/1/2 17/1/2 19/1/2
f 19/1/2 17/1/2 20/1/2
f 18/3/2 19/3/2 21/3/2
f 19/2/2 20/2/2 22/2/2
f 21/3/2 19/3/2 22/3/2
f 20/1/2 17/1/2 23/1/2
f 22/2/2 20/2/2 23/2/2
f 23/1/2 17/1/2 24/1/2
f 29/1/3 27/1/3 26/1/3
f 29/3/3 28/3/3 27/3/3
f 30/3/3 28/3/3 29/3/3
f 31/1/3 29/1/3 26/1/3
f 31/1/3 30/1/3 29/1/3
f 32/1/3 30/1/3 31/1/3
f 33/3/3 26/3/3 25/3/3
f 34/1/3 31/1/3 26/1/3
f 34/3/3 26/3/3 33/3/3
f 35/3/3 32/3/3 31/3/3
f 35/1/3 31/1/3 34/1/3
f 36/3/3 32/3/3 35/3/3
f 37/3/4 38/3/4 40/3/4
f 38/1/4 39/1/4 41/1/4
f 40/3/4 38/3/4 41/3/4
f 41/1/4 39/1/4 42/1/4
f 45/3/5 44/3/5 43/3/5
f 46/3/5 44/3/5 45/3/5
f 47/3/6 48/3/6 51/3/6
f 48/1/6 49/1/6 51/1/6
f 51/1/6 49/1/6 52/1/6
f 52/1/6 49/1/6 53/1/6
f 49/3/6 50/3/6 54/3/6
f 53/1/6 49/1/6 54/1/6
f 53/2/6 54/2/6 55/2/6
f 54/3/6 50/3/6 55/3/6
f 55/3/6 50/3/6 56/3/6
f 47/3/6 51/3/6 57/3/6
f 51/3/6 52/3/6 57/3/6
f 52/1/6 53/1/6 58/1/6
f 57/3/6 52/3/6 58/3/6
f 55/2/6 56/2/6 59/2/6
f 58/1/6 53/1/6 59/1/6
f 53/2/6 55/2/6 59/2/6
f 59/2/6 56/2/6 60/2/6
f 56/3/6 50/3/6 61/3/6
f 60/2/6 56/2/6 61/2/6
f 61/3/6 50/3/6 62/3/6
f 47/3/6 57/3/6 63/3/6
f 59/1/6 60/1/6 64/1/6
f 63/3/6 57/3/6 64/3/6
f 57/1/6 58/1/6 64/1/6
f 58/1/6 59/1/6 64/1/6
f 61/2/6 62/2/6 65/2/6
f 64/1/6 60/1/6 65/1/6
f 60/2/6 61/2/6 65/2/6
f 65/2/6 62/2/6 66/2/6
f 63/1/6 64/1/6 67/1/6
f 64/1/6 65/1/6 67/1/6
f 65/1/6 66/1/6 67/1/6
f 67/1/6 66/1/6 68/1/6
f 63/1/6 67/1/6 69/1/6
f 67/3/6 68/3/6 70/3/6
f 69/1/6 67/1/6 70/1/6
f 68/1/6 66/1/6 71/1/6
f 70/3/6 68/3/6 71/3/6
f 71/1/6 66/1/6 72/1/6
f 69/2/6 70/2/6 73/2/6
f 70/3/6 71/3/6 73/3/6
f 71/3/6 72/3/6 73/3/6
f 73/3/6 72/3/6 74/3/6
f 69/2/6 73/2/6 75/2/6
f 73/2/6 74/2/6 75/2/6
f 75/2/6 74/2/6 76/2/6
f 74/3/6 72/3/6 77/3/6
f 76/2/6 74/2/6 77/2/6
f 77/3/6 72/3/6 78/3/6
f 72/1/6 66/1/6 79/1/6
f 78/3/6 72/3/6 79/3/6
f 77/2/6 78/2/6 80/2/6
f 75/1/6 76/1/6 80/1/6
f 76/2/6 77/2/6 80/2/6
f 78/1/6 79/1/6 81/1/6
f 80/2/6 78/2/6 81/2/6
f 75/1/6 80/1/6 82/1/6
f 80/1/6 81/1/6 82/1/6
f 79/1/6 66/1/6 83/1/6
f 82/1/6 81/1/6 83/1/6
f 81/1/6 79/1/6 83/1/6
