# MagicaVoxel @ Ephtracy

# group
o 

# material
mtllib Corner Cafe-11.mtl
usemtl palette

# normals
vn -1 0 0
vn 1 0 0
vn 0 0 1
vn 0 0 -1
vn 0 -1 0
vn 0 1 0

# texcoords
vt 0.763672 0.5
vt 0.865234 0.5
vt 0.931641 0.5

# verts
v -0.1 0 0.1
v -0.1 0 -0.2
v -0.1 0.2 0.1
v -0.1 0.2 -0.1
v -0.1 0.2 -0.2
v -0.1 0.3 -0.1
v -0.1 0.3 -0.2
v -0.1 0.4 -0.1
v -0.1 0.4 -0.2
v 0 0.2 0.1
v 0 0.2 0
v 0 0.2 -0.1
v 0 0.3 0.1
v 0 0.3 0
v 0 0.3 -0.1
v 0.1 0.2 -0.1
v 0.1 0.2 -0.2
v 0.1 0.3 -0.1
v 0.1 0.4 -0.1
v 0.1 0.4 -0.2
v 0.1 0.5 -0.1
v 0.1 0.5 -0.2
v 0 0.2 -0.1
v 0 0.2 -0.2
v 0 0.3 -0.1
v 0 0.3 -0.2
v 0 0.4 -0.1
v 0 0.4 -0.2
v 0.1 0.2 0.1
v 0.1 0.2 0
v 0.1 0.2 -0.1
v 0.1 0.3 0.1
v 0.1 0.3 0
v 0.1 0.3 -0.1
v 0.2 0 0.1
v 0.2 0 -0.2
v 0.2 0.2 0.1
v 0.2 0.2 -0.1
v 0.2 0.2 -0.2
v 0.2 0.4 -0.1
v 0.2 0.4 -0.2
v 0.2 0.5 -0.1
v 0.2 0.5 -0.2
v -0.1 0 0.1
v -0.1 0.2 0.1
v 0 0.2 0.1
v 0 0.3 0.1
v 0.1 0.2 0.1
v 0.1 0.3 0.1
v 0.2 0 0.1
v 0.2 0.2 0.1
v -0.1 0.2 -0.1
v -0.1 0.3 -0.1
v -0.1 0.4 -0.1
v 0 0.2 -0.1
v 0 0.3 -0.1
v 0 0.4 -0.1
v 0.1 0.2 -0.1
v 0.1 0.3 -0.1
v 0.1 0.4 -0.1
v 0.1 0.5 -0.1
v 0.2 0.2 -0.1
v 0.2 0.4 -0.1
v 0.2 0.5 -0.1
v 0 0.2 -0.1
v 0 0.3 -0.1
v 0.1 0.2 -0.1
v 0.1 0.3 -0.1
v -0.1 0 -0.2
v -0.1 0.2 -0.2
v -0.1 0.3 -0.2
v -0.1 0.4 -0.2
v 0 0.2 -0.2
v 0 0.3 -0.2
v 0 0.4 -0.2
v 0.1 0.2 -0.2
v 0.1 0.4 -0.2
v 0.1 0.5 -0.2
v 0.2 0 -0.2
v 0.2 0.2 -0.2
v 0.2 0.4 -0.2
v 0.2 0.5 -0.2
v -0.1 0 0.1
v 0.2 0 0.1
v -0.1 0 -0.2
v 0.2 0 -0.2
v -0.1 0.2 0.1
v 0 0.2 0.1
v 0.1 0.2 0.1
v 0.2 0.2 0.1
v 0 0.2 0
v 0.1 0.2 0
v -0.1 0.2 -0.1
v 0 0.2 -0.1
v 0.1 0.2 -0.1
v 0.2 0.2 -0.1
v 0 0.2 -0.2
v 0.1 0.2 -0.2
v 0 0.3 0.1
v 0.1 0.3 0.1
v 0 0.3 0
v 0.1 0.3 0
v 0 0.3 -0.1
v 0.1 0.3 -0.1
v -0.1 0.4 -0.1
v 0 0.4 -0.1
v -0.1 0.4 -0.2
v 0 0.4 -0.2
v 0.1 0.5 -0.1
v 0.2 0.5 -0.1
v 0.1 0.5 -0.2
v 0.2 0.5 -0.2

# faces
f 3/2/1 2/2/1 1/2/1
f 4/2/1 2/2/1 3/2/1
f 5/2/1 2/2/1 4/2/1
f 6/3/1 5/3/1 4/3/1
f 7/3/1 5/3/1 6/3/1
f 8/1/1 7/1/1 6/1/1
f 9/1/1 7/1/1 8/1/1
f 13/1/1 11/1/1 10/1/1
f 14/3/1 12/3/1 11/3/1
f 14/1/1 11/1/1 13/1/1
f 15/3/1 12/3/1 14/3/1
f 18/3/1 17/3/1 16/3/1
f 19/3/1 17/3/1 18/3/1
f 20/3/1 17/3/1 19/3/1
f 21/1/1 20/1/1 19/1/1
f 22/1/1 20/1/1 21/1/1
f 23/3/2 24/3/2 25/3/2
f 25/3/2 24/3/2 26/3/2
f 25/1/2 26/1/2 27/1/2
f 27/1/2 26/1/2 28/1/2
f 29/1/2 30/1/2 32/1/2
f 30/3/2 31/3/2 33/3/2
f 32/1/2 30/1/2 33/1/2
f 33/3/2 31/3/2 34/3/2
f 35/2/2 36/2/2 37/2/2
f 37/2/2 36/2/2 38/2/2
f 38/2/2 36/2/2 39/2/2
f 38/3/2 39/3/2 40/3/2
f 40/3/2 39/3/2 41/3/2
f 40/1/2 41/1/2 42/1/2
f 42/1/2 41/1/2 43/1/2
f 46/2/3 45/2/3 44/2/3
f 48/2/3 46/2/3 44/2/3
f 48/1/3 47/1/3 46/1/3
f 49/1/3 47/1/3 48/1/3
f 50/2/3 48/2/3 44/2/3
f 51/2/3 48/2/3 50/2/3
f 55/3/3 53/3/3 52/3/3
f 56/1/3 54/1/3 53/1/3
f 56/3/3 53/3/3 55/3/3
f 57/1/3 54/1/3 56/1/3
f 62/3/3 60/3/3 59/3/3
f 62/3/3 59/3/3 58/3/3
f 63/1/3 61/1/3 60/1/3
f 63/3/3 60/3/3 62/3/3
f 64/1/3 61/1/3 63/1/3
f 65/3/4 66/3/4 67/3/4
f 67/3/4 66/3/4 68/3/4
f 69/2/4 70/2/4 73/2/4
f 70/3/4 71/3/4 73/3/4
f 71/1/4 72/1/4 74/1/4
f 73/3/4 71/3/4 74/3/4
f 74/1/4 72/1/4 75/1/4
f 69/2/4 73/2/4 76/2/4
f 69/2/4 76/2/4 79/2/4
f 76/3/4 77/3/4 80/3/4
f 79/2/4 76/2/4 80/2/4
f 77/1/4 78/1/4 81/1/4
f 80/3/4 77/3/4 81/3/4
f 81/1/4 78/1/4 82/1/4
f 85/2/5 84/2/5 83/2/5
f 86/2/5 84/2/5 85/2/5
f 87/2/6 88/2/6 91/2/6
f 89/2/6 90/2/6 92/2/6
f 87/2/6 91/2/6 93/2/6
f 93/2/6 91/2/6 94/2/6
f 92/2/6 90/2/6 95/2/6
f 95/2/6 90/2/6 96/2/6
f 94/2/6 95/2/6 97/2/6
f 97/2/6 95/2/6 98/2/6
f 99/1/6 100/1/6 101/1/6
f 101/1/6 100/1/6 102/1/6
f 101/3/6 102/3/6 103/3/6
f 103/3/6 102/3/6 104/3/6
f 105/1/6 106/1/6 107/1/6
f 107/1/6 106/1/6 108/1/6
f 109/1/6 110/1/6 111/1/6
f 111/1/6 110/1/6 112/1/6
