# MagicaVoxel @ Ephtracy

# group
g van_ice_cream_1_pink

# material
mtllib van_ice_cream_1_pink.mtl
usemtl palette

# normals
vn -1 0 0
vn 1 0 0
vn 0 0 1
vn 0 0 -1
vn 0 -1 0
vn 0 1 0

# texcoords
vt 0.0527344 0.5
vt 0.134766 0.5
vt 0.638672 0.5
vt 0.853516 0.5
vt 0.958984 0.5
vt 0.974609 0.5
vt 0.982422 0.5
vt 0.986328 0.5
vt 0.990234 0.5

# verts
v -6 0 13
v -6 0 9
v -6 0 -10
v -6 0 -14
v -6 1 14
v -6 1 13
v -6 1 9
v -6 1 8
v -6 1 -9
v -6 1 -10
v -6 1 -14
v -6 1 -15
v -6 2 12
v -6 2 10
v -6 2 -11
v -6 2 -13
v -6 3 18
v -6 3 14
v -6 3 8
v -6 3 -9
v -6 3 -15
v -6 3 -18
v -6 4 12
v -6 4 10
v -6 4 -11
v -6 4 -13
v -6 5 14
v -6 5 13
v -6 5 9
v -6 5 8
v -6 5 -9
v -6 5 -10
v -6 5 -14
v -6 5 -15
v -6 6 13
v -6 6 9
v -6 6 4
v -6 6 -0
v -6 6 -10
v -6 6 -14
v -6 6 -17
v -6 6 -18
v -6 7 8
v -6 7 4
v -6 7 -0
v -6 7 -1
v -6 7 -7
v -6 7 -10
v -6 8 18
v -6 8 17
v -6 8 10
v -6 8 8
v -6 8 -4
v -6 8 -7
v -6 8 -10
v -6 8 -11
v -6 8 -13
v -6 8 -17
v -6 9 11
v -6 9 10
v -6 9 -1
v -6 9 -4
v -6 9 -11
v -6 9 -13
v -6 10 12
v -6 10 11
v -6 11 17
v -6 11 14
v -6 11 12
v -6 11 -0
v -6 11 -4
v -6 11 -11
v -6 11 -13
v -6 11 -18
v -6 20 18
v -6 20 14
v -6 20 -0
v -6 20 -4
v -6 21 14
v -6 21 -0
v -6 21 -4
v -6 21 -11
v -6 22 18
v -6 22 -13
v -4 11 14
v -4 11 -0
v -4 21 14
v -4 21 -0
v 4 0 13
v 4 0 9
v 4 0 -10
v 4 0 -14
v 4 1 14
v 4 1 13
v 4 1 9
v 4 1 8
v 4 1 -9
v 4 1 -10
v 4 1 -14
v 4 1 -15
v 4 3 14
v 4 3 8
v 4 3 -9
v 4 3 -15
v -4 0 13
v -4 0 9
v -4 0 -10
v -4 0 -14
v -4 1 14
v -4 1 13
v -4 1 9
v -4 1 8
v -4 1 -9
v -4 1 -10
v -4 1 -14
v -4 1 -15
v -4 2 12
v -4 2 10
v -4 2 -11
v -4 2 -13
v -4 3 14
v -4 3 12
v -4 3 10
v -4 3 8
v -4 3 -9
v -4 3 -11
v -4 3 -13
v -4 3 -15
v 6 0 13
v 6 0 9
v 6 0 -10
v 6 0 -14
v 6 1 14
v 6 1 13
v 6 1 9
v 6 1 8
v 6 1 -9
v 6 1 -10
v 6 1 -14
v 6 1 -15
v 6 2 12
v 6 2 10
v 6 2 -11
v 6 2 -13
v 6 3 18
v 6 3 14
v 6 3 8
v 6 3 -9
v 6 3 -15
v 6 3 -18
v 6 4 12
v 6 4 10
v 6 4 -11
v 6 4 -13
v 6 5 14
v 6 5 13
v 6 5 9
v 6 5 8
v 6 5 -9
v 6 5 -10
v 6 5 -14
v 6 5 -15
v 6 6 13
v 6 6 9
v 6 6 -6
v 6 6 -8
v 6 6 -10
v 6 6 -14
v 6 6 -16
v 6 6 -18
v 6 7 -4
v 6 7 -6
v 6 7 -8
v 6 7 -10
v 6 7 -14
v 6 7 -16
v 6 8 18
v 6 8 15
v 6 8 8
v 6 8 4
v 6 8 -1
v 6 8 -4
v 6 8 -10
v 6 8 -14
v 6 9 15
v 6 9 13
v 6 9 9
v 6 9 8
v 6 9 4
v 6 9 -1
v 6 10 13
v 6 10 9
v 6 11 -4
v 6 11 -11
v 6 11 -13
v 6 11 -18
v 6 20 18
v 6 20 -4
v 6 21 -4
v 6 21 -11
v 6 22 18
v 6 22 -13
v -6 3 18
v -6 8 18
v -6 20 18
v -6 22 18
v 6 3 18
v 6 8 18
v 6 20 18
v 6 22 18
v -6 1 14
v -6 3 14
v -5 3 14
v -4 1 14
v -4 3 14
v 4 1 14
v 4 3 14
v 5 3 14
v 6 1 14
v 6 3 14
v -6 0 13
v -6 1 13
v -4 0 13
v -4 1 13
v 4 0 13
v 4 1 13
v 6 0 13
v 6 1 13
v -6 11 -0
v -6 20 -0
v -6 21 -0
v -5 11 -0
v -5 20 -0
v -5 21 -0
v -4 11 -0
v -4 21 -0
v -6 1 -9
v -6 3 -9
v -5 3 -9
v -4 1 -9
v -4 3 -9
v 4 1 -9
v 4 3 -9
v 5 3 -9
v 6 1 -9
v 6 3 -9
v -6 0 -10
v -6 1 -10
v -4 0 -10
v -4 1 -10
v 4 0 -10
v 4 1 -10
v 6 0 -10
v 6 1 -10
v -6 11 14
v -6 20 14
v -6 21 14
v -5 11 14
v -5 20 14
v -5 21 14
v -4 11 14
v -4 21 14
v -6 0 9
v -6 1 9
v -4 0 9
v -4 1 9
v 4 0 9
v 4 1 9
v 6 0 9
v 6 1 9
v -6 1 8
v -6 3 8
v -5 3 8
v -4 1 8
v -4 3 8
v 4 1 8
v 4 3 8
v 5 3 8
v 6 1 8
v 6 3 8
v -6 11 -13
v -6 22 -13
v -5 12 -13
v -5 21 -13
v 5 12 -13
v 5 21 -13
v 6 11 -13
v 6 22 -13
v -6 0 -14
v -6 1 -14
v -4 0 -14
v -4 1 -14
v 4 0 -14
v 4 1 -14
v 6 0 -14
v 6 1 -14
v -6 1 -15
v -6 3 -15
v -5 3 -15
v -4 1 -15
v -4 3 -15
v 4 1 -15
v 4 3 -15
v 5 3 -15
v 6 1 -15
v 6 3 -15
v -6 3 -18
v -6 6 -18
v -6 11 -18
v -5 7 -18
v -5 10 -18
v -2 7 -18
v -2 10 -18
v 2 7 -18
v 2 10 -18
v 5 7 -18
v 5 10 -18
v 6 3 -18
v 6 6 -18
v 6 11 -18
v -6 0 13
v -4 0 13
v 4 0 13
v 6 0 13
v -6 0 9
v -4 0 9
v 4 0 9
v 6 0 9
v -6 0 -10
v -4 0 -10
v 4 0 -10
v 6 0 -10
v -6 0 -14
v -4 0 -14
v 4 0 -14
v 6 0 -14
v -6 1 14
v -4 1 14
v 4 1 14
v 6 1 14
v -6 1 13
v -4 1 13
v 4 1 13
v 6 1 13
v -6 1 9
v -4 1 9
v 4 1 9
v 6 1 9
v -6 1 8
v -4 1 8
v 4 1 8
v 6 1 8
v -6 1 -9
v -4 1 -9
v 4 1 -9
v 6 1 -9
v -6 1 -10
v -4 1 -10
v 4 1 -10
v 6 1 -10
v -6 1 -14
v -4 1 -14
v 4 1 -14
v 6 1 -14
v -6 1 -15
v -4 1 -15
v 4 1 -15
v 6 1 -15
v -6 3 18
v 6 3 18
v -5 3 17
v 5 3 17
v -6 3 14
v -5 3 14
v -4 3 14
v 4 3 14
v 5 3 14
v 6 3 14
v -4 3 12
v -4 3 10
v -6 3 8
v -5 3 8
v -4 3 8
v 4 3 8
v 5 3 8
v 6 3 8
v -6 3 -9
v -5 3 -9
v -4 3 -9
v 4 3 -9
v 5 3 -9
v 6 3 -9
v -4 3 -11
v -4 3 -13
v -6 3 -15
v -5 3 -15
v -4 3 -15
v 4 3 -15
v 5 3 -15
v 6 3 -15
v -5 3 -17
v 5 3 -17
v -6 3 -18
v 6 3 -18
v -6 21 14
v -5 21 14
v -4 21 14
v -6 21 -0
v -5 21 -0
v -4 21 -0
v -6 11 14
v -5 11 14
v -4 11 14
v -6 11 12
v -5 11 12
v -6 11 -0
v -5 11 -0
v -4 11 -0
v -6 11 -13
v 6 11 -13
v -6 11 -18
v 6 11 -18
v -6 22 18
v 6 22 18
v -5 22 17
v 5 22 17
v -5 22 -12
v 5 22 -12
v -6 22 -13
v 6 22 -13

# faces
f 6/9/1 2/9/1 1/9/1
f 7/9/1 2/9/1 6/9/1
f 10/9/1 4/9/1 3/9/1
f 11/9/1 4/9/1 10/9/1
f 13/9/1 8/9/1 7/9/1
f 13/9/1 6/9/1 5/9/1
f 13/9/1 7/9/1 6/9/1
f 14/9/1 8/9/1 13/9/1
f 15/9/1 12/9/1 11/9/1
f 15/9/1 11/9/1 10/9/1
f 15/9/1 10/9/1 9/9/1
f 16/9/1 12/9/1 15/9/1
f 18/9/1 13/9/1 5/9/1
f 19/9/1 8/9/1 14/9/1
f 20/9/1 15/9/1 9/9/1
f 21/9/1 12/9/1 16/9/1
f 23/6/1 14/6/1 13/6/1
f 23/9/1 13/9/1 18/9/1
f 24/9/1 19/9/1 14/9/1
f 24/6/1 14/6/1 23/6/1
f 25/6/1 16/6/1 15/6/1
f 25/9/1 15/9/1 20/9/1
f 26/9/1 21/9/1 16/9/1
f 26/6/1 16/6/1 25/6/1
f 27/5/1 18/5/1 17/5/1
f 27/9/1 23/9/1 18/9/1
f 27/9/1 24/9/1 23/9/1
f 28/9/1 24/9/1 27/9/1
f 29/9/1 19/9/1 24/9/1
f 29/9/1 24/9/1 28/9/1
f 30/5/1 20/5/1 19/5/1
f 30/9/1 19/9/1 29/9/1
f 31/9/1 26/9/1 25/9/1
f 31/5/1 20/5/1 30/5/1
f 31/9/1 25/9/1 20/9/1
f 32/9/1 26/9/1 31/9/1
f 33/9/1 21/9/1 26/9/1
f 33/9/1 26/9/1 32/9/1
f 34/5/1 22/5/1 21/5/1
f 34/9/1 21/9/1 33/9/1
f 35/9/1 29/9/1 28/9/1
f 35/5/1 28/5/1 27/5/1
f 36/5/1 32/5/1 31/5/1
f 36/9/1 29/9/1 35/9/1
f 36/5/1 30/5/1 29/5/1
f 36/5/1 31/5/1 30/5/1
f 37/5/1 32/5/1 36/5/1
f 38/5/1 32/5/1 37/5/1
f 39/9/1 33/9/1 32/9/1
f 39/5/1 32/5/1 38/5/1
f 40/5/1 34/5/1 33/5/1
f 40/9/1 33/9/1 39/9/1
f 41/5/1 22/5/1 34/5/1
f 41/5/1 34/5/1 40/5/1
f 42/5/1 22/5/1 41/5/1
f 43/5/1 36/5/1 35/5/1
f 43/5/1 37/5/1 36/5/1
f 44/1/1 38/1/1 37/1/1
f 44/5/1 37/5/1 43/5/1
f 45/5/1 40/5/1 39/5/1
f 45/1/1 38/1/1 44/1/1
f 45/5/1 39/5/1 38/5/1
f 45/5/1 41/5/1 40/5/1
f 46/5/1 41/5/1 45/5/1
f 47/5/1 41/5/1 46/5/1
f 48/5/1 41/5/1 47/5/1
f 49/5/1 35/5/1 27/5/1
f 49/5/1 43/5/1 35/5/1
f 49/5/1 27/5/1 17/5/1
f 50/5/1 43/5/1 49/5/1
f 51/5/1 43/5/1 50/5/1
f 52/1/1 44/1/1 43/1/1
f 52/5/1 43/5/1 51/5/1
f 52/1/1 45/1/1 44/1/1
f 52/1/1 46/1/1 45/1/1
f 53/5/1 47/5/1 46/5/1
f 54/1/1 48/1/1 47/1/1
f 54/5/1 47/5/1 53/5/1
f 55/5/1 41/5/1 48/5/1
f 55/1/1 48/1/1 54/1/1
f 56/5/1 41/5/1 55/5/1
f 57/5/1 41/5/1 56/5/1
f 58/1/1 42/1/1 41/1/1
f 58/5/1 41/5/1 57/5/1
f 59/5/1 51/5/1 50/5/1
f 60/1/1 52/1/1 51/1/1
f 60/5/1 51/5/1 59/5/1
f 61/5/1 53/5/1 46/5/1
f 61/1/1 52/1/1 60/1/1
f 61/1/1 46/1/1 52/1/1
f 62/1/1 54/1/1 53/1/1
f 62/5/1 53/5/1 61/5/1
f 62/1/1 55/1/1 54/1/1
f 62/1/1 56/1/1 55/1/1
f 63/5/1 57/5/1 56/5/1
f 63/1/1 56/1/1 62/1/1
f 64/1/1 58/1/1 57/1/1
f 64/5/1 57/5/1 63/5/1
f 65/5/1 59/5/1 50/5/1
f 66/1/1 61/1/1 60/1/1
f 66/5/1 59/5/1 65/5/1
f 66/1/1 60/1/1 59/1/1
f 66/1/1 64/1/1 63/1/1
f 66/1/1 62/1/1 61/1/1
f 66/1/1 63/1/1 62/1/1
f 67/5/1 65/5/1 50/5/1
f 67/1/1 50/1/1 49/1/1
f 68/5/1 65/5/1 67/5/1
f 69/1/1 66/1/1 65/1/1
f 69/5/1 65/5/1 68/5/1
f 70/1/1 64/1/1 66/1/1
f 70/1/1 66/1/1 69/1/1
f 71/1/1 64/1/1 70/1/1
f 72/1/1 64/1/1 71/1/1
f 73/1/1 58/1/1 64/1/1
f 73/1/1 64/1/1 72/1/1
f 74/1/1 42/1/1 58/1/1
f 74/1/1 58/1/1 73/1/1
f 75/1/1 68/1/1 67/1/1
f 75/1/1 67/1/1 49/1/1
f 76/1/1 68/1/1 75/1/1
f 77/1/1 71/1/1 70/1/1
f 78/7/1 72/7/1 71/7/1
f 78/1/1 71/1/1 77/1/1
f 79/5/1 76/5/1 75/5/1
f 80/5/1 78/5/1 77/5/1
f 81/7/1 72/7/1 78/7/1
f 81/5/1 78/5/1 80/5/1
f 82/5/1 73/5/1 72/5/1
f 82/7/1 72/7/1 81/7/1
f 83/5/1 81/5/1 80/5/1
f 83/5/1 80/5/1 79/5/1
f 83/5/1 82/5/1 81/5/1
f 83/5/1 79/5/1 75/5/1
f 84/5/1 73/5/1 82/5/1
f 84/5/1 82/5/1 83/5/1
f 87/7/1 86/7/1 85/7/1
f 88/7/1 86/7/1 87/7/1
f 94/9/1 90/9/1 89/9/1
f 95/9/1 90/9/1 94/9/1
f 98/9/1 92/9/1 91/9/1
f 99/9/1 92/9/1 98/9/1
f 101/9/1 96/9/1 95/9/1
f 101/9/1 94/9/1 93/9/1
f 101/9/1 95/9/1 94/9/1
f 102/9/1 96/9/1 101/9/1
f 103/9/1 100/9/1 99/9/1
f 103/9/1 99/9/1 98/9/1
f 103/9/1 98/9/1 97/9/1
f 104/9/1 100/9/1 103/9/1
f 105/9/2 106/9/2 110/9/2
f 110/9/2 106/9/2 111/9/2
f 107/9/2 108/9/2 114/9/2
f 114/9/2 108/9/2 115/9/2
f 111/9/2 112/9/2 117/9/2
f 109/9/2 110/9/2 117/9/2
f 110/9/2 111/9/2 117/9/2
f 117/9/2 112/9/2 118/9/2
f 115/9/2 116/9/2 119/9/2
f 114/9/2 115/9/2 119/9/2
f 113/9/2 114/9/2 119/9/2
f 119/9/2 116/9/2 120/9/2
f 109/9/2 117/9/2 121/9/2
f 117/6/2 118/6/2 122/6/2
f 121/9/2 117/9/2 122/9/2
f 118/9/2 112/9/2 123/9/2
f 122/6/2 118/6/2 123/6/2
f 123/9/2 112/9/2 124/9/2
f 113/9/2 119/9/2 125/9/2
f 119/6/2 120/6/2 126/6/2
f 125/9/2 119/9/2 126/9/2
f 120/9/2 116/9/2 127/9/2
f 126/6/2 120/6/2 127/6/2
f 127/9/2 116/9/2 128/9/2
f 129/9/2 130/9/2 134/9/2
f 134/9/2 130/9/2 135/9/2
f 131/9/2 132/9/2 138/9/2
f 138/9/2 132/9/2 139/9/2
f 135/9/2 136/9/2 141/9/2
f 133/9/2 134/9/2 141/9/2
f 134/9/2 135/9/2 141/9/2
f 141/9/2 136/9/2 142/9/2
f 139/9/2 140/9/2 143/9/2
f 138/9/2 139/9/2 143/9/2
f 137/9/2 138/9/2 143/9/2
f 143/9/2 140/9/2 144/9/2
f 133/9/2 141/9/2 146/9/2
f 142/9/2 136/9/2 147/9/2
f 137/9/2 143/9/2 148/9/2
f 144/9/2 140/9/2 149/9/2
f 141/6/2 142/6/2 151/6/2
f 146/9/2 141/9/2 151/9/2
f 142/9/2 147/9/2 152/9/2
f 151/6/2 142/6/2 152/6/2
f 143/6/2 144/6/2 153/6/2
f 148/9/2 143/9/2 153/9/2
f 144/9/2 149/9/2 154/9/2
f 153/6/2 144/6/2 154/6/2
f 145/5/2 146/5/2 155/5/2
f 146/9/2 151/9/2 155/9/2
f 151/9/2 152/9/2 155/9/2
f 155/9/2 152/9/2 156/9/2
f 152/9/2 147/9/2 157/9/2
f 156/9/2 152/9/2 157/9/2
f 147/5/2 148/5/2 158/5/2
f 157/9/2 147/9/2 158/9/2
f 153/9/2 154/9/2 159/9/2
f 158/5/2 148/5/2 159/5/2
f 148/9/2 153/9/2 159/9/2
f 159/9/2 154/9/2 160/9/2
f 154/9/2 149/9/2 161/9/2
f 160/9/2 154/9/2 161/9/2
f 149/5/2 150/5/2 162/5/2
f 161/9/2 149/9/2 162/9/2
f 156/9/2 157/9/2 163/9/2
f 155/5/2 156/5/2 163/5/2
f 159/5/2 160/5/2 164/5/2
f 163/9/2 157/9/2 164/9/2
f 157/5/2 158/5/2 164/5/2
f 158/5/2 159/5/2 164/5/2
f 164/5/2 160/5/2 165/5/2
f 165/5/2 160/5/2 166/5/2
f 160/9/2 161/9/2 167/9/2
f 166/5/2 160/5/2 167/5/2
f 161/5/2 162/5/2 168/5/2
f 167/9/2 161/9/2 168/9/2
f 162/5/2 150/5/2 169/5/2
f 168/5/2 162/5/2 169/5/2
f 169/5/2 150/5/2 170/5/2
f 163/5/2 164/5/2 171/5/2
f 164/5/2 165/5/2 171/5/2
f 165/1/2 166/1/2 172/1/2
f 171/5/2 165/5/2 172/5/2
f 167/5/2 168/5/2 173/5/2
f 172/1/2 166/1/2 173/1/2
f 166/5/2 167/5/2 173/5/2
f 168/5/2 169/5/2 173/5/2
f 173/5/2 169/5/2 174/5/2
f 174/5/2 169/5/2 175/5/2
f 169/1/2 170/1/2 176/1/2
f 175/5/2 169/5/2 176/5/2
f 155/5/2 163/5/2 177/5/2
f 163/5/2 171/5/2 177/5/2
f 145/5/2 155/5/2 177/5/2
f 177/5/2 171/5/2 178/5/2
f 178/5/2 171/5/2 179/5/2
f 179/5/2 171/5/2 180/5/2
f 180/5/2 171/5/2 181/5/2
f 171/1/2 172/1/2 182/1/2
f 181/5/2 171/5/2 182/5/2
f 173/1/2 174/1/2 182/1/2
f 172/1/2 173/1/2 182/1/2
f 174/5/2 175/5/2 183/5/2
f 182/1/2 174/1/2 183/1/2
f 175/1/2 176/1/2 184/1/2
f 183/5/2 175/5/2 184/5/2
f 178/5/2 179/5/2 185/5/2
f 177/1/2 178/1/2 185/1/2
f 185/5/2 179/5/2 186/5/2
f 186/5/2 179/5/2 187/5/2
f 179/1/2 180/1/2 188/1/2
f 187/5/2 179/5/2 188/5/2
f 180/5/2 181/5/2 189/5/2
f 188/1/2 180/1/2 189/1/2
f 182/1/2 183/1/2 190/1/2
f 189/5/2 181/5/2 190/5/2
f 181/1/2 182/1/2 190/1/2
f 183/1/2 184/1/2 190/1/2
f 185/1/2 186/1/2 191/1/2
f 186/5/2 187/5/2 191/5/2
f 188/1/2 189/1/2 192/1/2
f 191/5/2 187/5/2 192/5/2
f 187/1/2 188/1/2 192/1/2
f 189/1/2 190/1/2 192/1/2
f 190/1/2 184/1/2 193/1/2
f 192/1/2 190/1/2 193/1/2
f 191/1/2 192/1/2 193/1/2
f 193/1/2 184/1/2 194/1/2
f 194/1/2 184/1/2 195/1/2
f 176/1/2 170/1/2 196/1/2
f 195/1/2 184/1/2 196/1/2
f 184/1/2 176/1/2 196/1/2
f 185/1/2 191/1/2 197/1/2
f 177/1/2 185/1/2 197/1/2
f 191/1/2 193/1/2 197/1/2
f 193/7/2 194/7/2 198/7/2
f 197/1/2 193/1/2 198/1/2
f 197/5/2 198/5/2 199/5/2
f 198/7/2 194/7/2 199/7/2
f 194/5/2 195/5/2 200/5/2
f 199/7/2 194/7/2 200/7/2
f 197/5/2 199/5/2 201/5/2
f 199/5/2 200/5/2 201/5/2
f 200/5/2 195/5/2 202/5/2
f 201/5/2 200/5/2 202/5/2
f 207/5/3 204/5/3 203/5/3
f 208/1/3 205/1/3 204/1/3
f 208/5/3 204/5/3 207/5/3
f 209/5/3 206/5/3 205/5/3
f 209/1/3 205/1/3 208/1/3
f 210/5/3 206/5/3 209/5/3
f 213/9/3 212/9/3 211/9/3
f 214/9/3 213/9/3 211/9/3
f 215/9/3 213/9/3 214/9/3
f 218/9/3 217/9/3 216/9/3
f 219/9/3 218/9/3 216/9/3
f 220/9/3 218/9/3 219/9/3
f 223/9/3 222/9/3 221/9/3
f 224/9/3 222/9/3 223/9/3
f 227/9/3 226/9/3 225/9/3
f 228/9/3 226/9/3 227/9/3
f 232/1/3 230/1/3 229/1/3
f 233/5/3 231/5/3 230/5/3
f 233/1/3 230/1/3 232/1/3
f 234/5/3 231/5/3 233/5/3
f 235/7/3 233/7/3 232/7/3
f 235/7/3 234/7/3 233/7/3
f 236/7/3 234/7/3 235/7/3
f 239/9/3 238/9/3 237/9/3
f 240/9/3 239/9/3 237/9/3
f 241/9/3 239/9/3 240/9/3
f 244/9/3 243/9/3 242/9/3
f 245/9/3 244/9/3 242/9/3
f 246/9/3 244/9/3 245/9/3
f 249/9/3 248/9/3 247/9/3
f 250/9/3 248/9/3 249/9/3
f 253/9/3 252/9/3 251/9/3
f 254/9/3 252/9/3 253/9/3
f 255/1/4 256/1/4 258/1/4
f 256/5/4 257/5/4 259/5/4
f 258/1/4 256/1/4 259/1/4
f 259/5/4 257/5/4 260/5/4
f 258/7/4 259/7/4 261/7/4
f 259/7/4 260/7/4 261/7/4
f 261/7/4 260/7/4 262/7/4
f 263/9/4 264/9/4 265/9/4
f 265/9/4 264/9/4 266/9/4
f 267/9/4 268/9/4 269/9/4
f 269/9/4 268/9/4 270/9/4
f 271/9/4 272/9/4 273/9/4
f 271/9/4 273/9/4 274/9/4
f 274/9/4 273/9/4 275/9/4
f 276/9/4 277/9/4 278/9/4
f 276/9/4 278/9/4 279/9/4
f 279/9/4 278/9/4 280/9/4
f 281/5/4 282/5/4 283/5/4
f 283/5/4 282/5/4 284/5/4
f 281/5/4 283/5/4 285/5/4
f 283/7/4 284/7/4 285/7/4
f 284/5/4 282/5/4 286/5/4
f 285/7/4 284/7/4 286/7/4
f 281/5/4 285/5/4 287/5/4
f 285/5/4 286/5/4 287/5/4
f 286/5/4 282/5/4 288/5/4
f 287/5/4 286/5/4 288/5/4
f 289/9/4 290/9/4 291/9/4
f 291/9/4 290/9/4 292/9/4
f 293/9/4 294/9/4 295/9/4
f 295/9/4 294/9/4 296/9/4
f 297/9/4 298/9/4 299/9/4
f 297/9/4 299/9/4 300/9/4
f 300/9/4 299/9/4 301/9/4
f 302/9/4 303/9/4 304/9/4
f 302/9/4 304/9/4 305/9/4
f 305/9/4 304/9/4 306/9/4
f 308/1/4 309/1/4 310/1/4
f 310/1/4 309/1/4 311/1/4
f 308/1/4 310/1/4 312/1/4
f 310/5/4 311/5/4 312/5/4
f 311/1/4 309/1/4 313/1/4
f 312/5/4 311/5/4 313/5/4
f 308/1/4 312/1/4 314/1/4
f 312/1/4 313/1/4 314/1/4
f 313/1/4 309/1/4 315/1/4
f 314/1/4 313/1/4 315/1/4
f 308/1/4 314/1/4 316/1/4
f 314/5/4 315/5/4 316/5/4
f 315/1/4 309/1/4 317/1/4
f 316/5/4 315/5/4 317/5/4
f 307/5/4 308/5/4 318/5/4
f 308/1/4 316/1/4 319/1/4
f 318/5/4 308/5/4 319/5/4
f 316/1/4 317/1/4 319/1/4
f 317/1/4 309/1/4 320/1/4
f 319/1/4 317/1/4 320/1/4
f 325/9/5 322/9/5 321/9/5
f 326/9/5 322/9/5 325/9/5
f 327/9/5 324/9/5 323/9/5
f 328/9/5 324/9/5 327/9/5
f 333/9/5 330/9/5 329/9/5
f 334/9/5 330/9/5 333/9/5
f 335/9/5 332/9/5 331/9/5
f 336/9/5 332/9/5 335/9/5
f 341/9/5 338/9/5 337/9/5
f 342/9/5 338/9/5 341/9/5
f 343/9/5 340/9/5 339/9/5
f 344/9/5 340/9/5 343/9/5
f 349/9/5 346/9/5 345/9/5
f 350/9/5 346/9/5 349/9/5
f 351/9/5 348/9/5 347/9/5
f 352/9/5 348/9/5 351/9/5
f 357/9/5 354/9/5 353/9/5
f 358/9/5 354/9/5 357/9/5
f 359/9/5 356/9/5 355/9/5
f 360/9/5 356/9/5 359/9/5
f 365/9/5 362/9/5 361/9/5
f 366/9/5 362/9/5 365/9/5
f 367/9/5 364/9/5 363/9/5
f 368/9/5 364/9/5 367/9/5
f 371/5/5 370/5/5 369/5/5
f 372/5/5 370/5/5 371/5/5
f 373/5/5 371/5/5 369/5/5
f 374/1/5 372/1/5 371/1/5
f 374/5/5 371/5/5 373/5/5
f 375/1/5 372/1/5 374/1/5
f 376/1/5 372/1/5 375/1/5
f 377/5/5 370/5/5 372/5/5
f 377/1/5 372/1/5 376/1/5
f 378/5/5 370/5/5 377/5/5
f 379/1/5 376/1/5 375/1/5
f 380/1/5 376/1/5 379/1/5
f 383/1/5 376/1/5 380/1/5
f 384/1/5 376/1/5 383/1/5
f 387/5/5 382/5/5 381/5/5
f 388/1/5 383/1/5 382/1/5
f 388/5/5 382/5/5 387/5/5
f 388/1/5 384/1/5 383/1/5
f 388/1/5 385/1/5 384/1/5
f 389/1/5 385/1/5 388/1/5
f 390/1/5 385/1/5 389/1/5
f 391/5/5 386/5/5 385/5/5
f 391/1/5 385/1/5 390/1/5
f 392/5/5 386/5/5 391/5/5
f 393/1/5 390/1/5 389/1/5
f 394/1/5 390/1/5 393/1/5
f 397/1/5 390/1/5 394/1/5
f 398/1/5 390/1/5 397/1/5
f 401/5/5 396/5/5 395/5/5
f 401/1/5 397/1/5 396/1/5
f 401/1/5 399/1/5 398/1/5
f 401/1/5 398/1/5 397/1/5
f 402/5/5 400/5/5 399/5/5
f 402/1/5 399/1/5 401/1/5
f 403/5/5 401/5/5 395/5/5
f 403/5/5 402/5/5 401/5/5
f 404/5/5 400/5/5 402/5/5
f 404/5/5 402/5/5 403/5/5
f 408/5/5 406/5/5 405/5/5
f 409/1/5 407/1/5 406/1/5
f 409/5/5 406/5/5 408/5/5
f 410/1/5 407/1/5 409/1/5
f 411/5/6 412/5/6 414/5/6
f 412/7/6 413/7/6 415/7/6
f 414/5/6 412/5/6 415/5/6
f 414/1/6 415/1/6 416/1/6
f 415/7/6 413/7/6 417/7/6
f 416/1/6 415/1/6 417/1/6
f 417/7/6 413/7/6 418/7/6
f 419/1/6 420/1/6 421/1/6
f 421/1/6 420/1/6 422/1/6
f 423/5/6 424/5/6 425/5/6
f 425/5/6 424/5/6 426/5/6
f 423/5/6 425/5/6 427/5/6
f 425/1/6 426/1/6 427/1/6
f 426/5/6 424/5/6 428/5/6
f 427/1/6 426/1/6 428/1/6
f 423/5/6 427/5/6 429/5/6
f 427/5/6 428/5/6 429/5/6
f 428/5/6 424/5/6 430/5/6
f 429/5/6 428/5/6 430/5/6
