# MagicaVoxel @ Ephtracy

# group
g van_ice_cream_2_grey

# material
mtllib van_ice_cream_2_grey.mtl
usemtl palette

# normals
vn -1 0 0
vn 1 0 0
vn 0 0 1
vn 0 0 -1
vn 0 -1 0
vn 0 1 0

# texcoords
vt 0.134766 0.5
vt 0.638672 0.5
vt 0.853516 0.5
vt 0.958984 0.5
vt 0.970703 0.5
vt 0.974609 0.5
vt 0.982422 0.5
vt 0.990234 0.5

# verts
v -6 0 13
v -6 0 9
v -6 0 -10
v -6 0 -14
v -6 1 14
v -6 1 13
v -6 1 9
v -6 1 8
v -6 1 -9
v -6 1 -10
v -6 1 -14
v -6 1 -15
v -6 2 12
v -6 2 10
v -6 2 -11
v -6 2 -13
v -6 3 18
v -6 3 14
v -6 3 8
v -6 3 -9
v -6 3 -15
v -6 3 -18
v -6 4 12
v -6 4 10
v -6 4 -11
v -6 4 -13
v -6 5 14
v -6 5 13
v -6 5 9
v -6 5 8
v -6 5 -9
v -6 5 -10
v -6 5 -14
v -6 5 -15
v -6 6 13
v -6 6 9
v -6 6 -10
v -6 6 -14
v -6 8 18
v -6 8 -18
v -6 11 14
v -6 11 -0
v -6 11 -4
v -6 11 -11
v -6 11 -13
v -6 11 -18
v -6 20 18
v -6 20 14
v -6 20 -0
v -6 20 -4
v -6 21 14
v -6 21 -0
v -6 21 -4
v -6 21 -11
v -6 22 18
v -6 22 -13
v -4 11 14
v -4 11 -0
v -4 21 14
v -4 21 -0
v 4 0 13
v 4 0 9
v 4 0 -10
v 4 0 -14
v 4 1 14
v 4 1 13
v 4 1 9
v 4 1 8
v 4 1 -9
v 4 1 -10
v 4 1 -14
v 4 1 -15
v 4 3 14
v 4 3 8
v 4 3 -9
v 4 3 -15
v -4 0 13
v -4 0 9
v -4 0 -10
v -4 0 -14
v -4 1 14
v -4 1 13
v -4 1 9
v -4 1 8
v -4 1 -9
v -4 1 -10
v -4 1 -14
v -4 1 -15
v -4 2 12
v -4 2 10
v -4 2 -11
v -4 2 -13
v -4 3 14
v -4 3 12
v -4 3 10
v -4 3 8
v -4 3 -9
v -4 3 -11
v -4 3 -13
v -4 3 -15
v 6 0 13
v 6 0 9
v 6 0 -10
v 6 0 -14
v 6 1 14
v 6 1 13
v 6 1 9
v 6 1 8
v 6 1 -9
v 6 1 -10
v 6 1 -14
v 6 1 -15
v 6 2 12
v 6 2 10
v 6 2 -11
v 6 2 -13
v 6 3 18
v 6 3 14
v 6 3 8
v 6 3 -9
v 6 3 -15
v 6 3 -18
v 6 4 12
v 6 4 10
v 6 4 -11
v 6 4 -13
v 6 5 14
v 6 5 13
v 6 5 9
v 6 5 8
v 6 5 -9
v 6 5 -10
v 6 5 -14
v 6 5 -15
v 6 6 13
v 6 6 9
v 6 6 -10
v 6 6 -14
v 6 8 18
v 6 8 -18
v 6 11 -4
v 6 11 -11
v 6 11 -13
v 6 11 -18
v 6 20 18
v 6 20 -4
v 6 21 -4
v 6 21 -11
v 6 22 18
v 6 22 -13
v -6 3 18
v -6 8 18
v -6 20 18
v -6 22 18
v 6 3 18
v 6 8 18
v 6 20 18
v 6 22 18
v -6 1 14
v -6 3 14
v -5 3 14
v -4 1 14
v -4 3 14
v 4 1 14
v 4 3 14
v 5 3 14
v 6 1 14
v 6 3 14
v -6 0 13
v -6 1 13
v -4 0 13
v -4 1 13
v 4 0 13
v 4 1 13
v 6 0 13
v 6 1 13
v -6 11 -0
v -6 20 -0
v -6 21 -0
v -5 20 -0
v -5 21 -0
v -4 11 -0
v -4 21 -0
v -6 1 -9
v -6 3 -9
v -5 3 -9
v -4 1 -9
v -4 3 -9
v 4 1 -9
v 4 3 -9
v 5 3 -9
v 6 1 -9
v 6 3 -9
v -6 0 -10
v -6 1 -10
v -4 0 -10
v -4 1 -10
v 4 0 -10
v 4 1 -10
v 6 0 -10
v 6 1 -10
v -6 11 14
v -6 20 14
v -6 21 14
v -5 20 14
v -5 21 14
v -4 11 14
v -4 21 14
v -6 0 9
v -6 1 9
v -4 0 9
v -4 1 9
v 4 0 9
v 4 1 9
v 6 0 9
v 6 1 9
v -6 1 8
v -6 3 8
v -5 3 8
v -4 1 8
v -4 3 8
v 4 1 8
v 4 3 8
v 5 3 8
v 6 1 8
v 6 3 8
v -6 11 -13
v -6 22 -13
v -5 12 -13
v -5 21 -13
v 5 12 -13
v 5 21 -13
v 6 11 -13
v 6 22 -13
v -6 0 -14
v -6 1 -14
v -4 0 -14
v -4 1 -14
v 4 0 -14
v 4 1 -14
v 6 0 -14
v 6 1 -14
v -6 1 -15
v -6 3 -15
v -5 3 -15
v -4 1 -15
v -4 3 -15
v 4 1 -15
v 4 3 -15
v 5 3 -15
v 6 1 -15
v 6 3 -15
v -6 3 -18
v -6 8 -18
v -6 11 -18
v 6 3 -18
v 6 8 -18
v 6 11 -18
v -6 0 13
v -4 0 13
v 4 0 13
v 6 0 13
v -6 0 9
v -4 0 9
v 4 0 9
v 6 0 9
v -6 0 -10
v -4 0 -10
v 4 0 -10
v 6 0 -10
v -6 0 -14
v -4 0 -14
v 4 0 -14
v 6 0 -14
v -6 1 14
v -4 1 14
v 4 1 14
v 6 1 14
v -6 1 13
v -4 1 13
v 4 1 13
v 6 1 13
v -6 1 9
v -4 1 9
v 4 1 9
v 6 1 9
v -6 1 8
v -4 1 8
v 4 1 8
v 6 1 8
v -6 1 -9
v -4 1 -9
v 4 1 -9
v 6 1 -9
v -6 1 -10
v -4 1 -10
v 4 1 -10
v 6 1 -10
v -6 1 -14
v -4 1 -14
v 4 1 -14
v 6 1 -14
v -6 1 -15
v -4 1 -15
v 4 1 -15
v 6 1 -15
v -6 3 18
v 6 3 18
v -5 3 17
v 5 3 17
v -6 3 14
v -5 3 14
v -4 3 14
v 4 3 14
v 5 3 14
v 6 3 14
v -4 3 12
v -4 3 10
v -6 3 8
v -5 3 8
v -4 3 8
v 4 3 8
v 5 3 8
v 6 3 8
v -6 3 -9
v -5 3 -9
v -4 3 -9
v 4 3 -9
v 5 3 -9
v 6 3 -9
v -4 3 -11
v -4 3 -13
v -6 3 -15
v -5 3 -15
v -4 3 -15
v 4 3 -15
v 5 3 -15
v 6 3 -15
v -5 3 -17
v 5 3 -17
v -6 3 -18
v 6 3 -18
v -6 21 14
v -5 21 14
v -4 21 14
v -6 21 -0
v -5 21 -0
v -4 21 -0
v -6 11 14
v -4 11 14
v -6 11 -0
v -4 11 -0
v -6 11 -13
v 6 11 -13
v -6 11 -18
v 6 11 -18
v -6 22 18
v 6 22 18
v -5 22 17
v 5 22 17
v -5 22 -12
v 5 22 -12
v -6 22 -13
v 6 22 -13

# faces
f 6/8/1 2/8/1 1/8/1
f 7/8/1 2/8/1 6/8/1
f 10/8/1 4/8/1 3/8/1
f 11/8/1 4/8/1 10/8/1
f 13/8/1 8/8/1 7/8/1
f 13/8/1 6/8/1 5/8/1
f 13/8/1 7/8/1 6/8/1
f 14/8/1 8/8/1 13/8/1
f 15/8/1 12/8/1 11/8/1
f 15/8/1 11/8/1 10/8/1
f 15/8/1 10/8/1 9/8/1
f 16/8/1 12/8/1 15/8/1
f 18/8/1 13/8/1 5/8/1
f 19/8/1 8/8/1 14/8/1
f 20/8/1 15/8/1 9/8/1
f 21/8/1 12/8/1 16/8/1
f 23/6/1 14/6/1 13/6/1
f 23/8/1 13/8/1 18/8/1
f 24/8/1 19/8/1 14/8/1
f 24/6/1 14/6/1 23/6/1
f 25/6/1 16/6/1 15/6/1
f 25/8/1 15/8/1 20/8/1
f 26/8/1 21/8/1 16/8/1
f 26/6/1 16/6/1 25/6/1
f 27/4/1 18/4/1 17/4/1
f 27/8/1 23/8/1 18/8/1
f 27/8/1 24/8/1 23/8/1
f 28/8/1 24/8/1 27/8/1
f 29/8/1 19/8/1 24/8/1
f 29/8/1 24/8/1 28/8/1
f 30/4/1 20/4/1 19/4/1
f 30/8/1 19/8/1 29/8/1
f 31/8/1 26/8/1 25/8/1
f 31/4/1 20/4/1 30/4/1
f 31/8/1 25/8/1 20/8/1
f 32/8/1 26/8/1 31/8/1
f 33/8/1 21/8/1 26/8/1
f 33/8/1 26/8/1 32/8/1
f 34/4/1 22/4/1 21/4/1
f 34/8/1 21/8/1 33/8/1
f 35/8/1 29/8/1 28/8/1
f 35/4/1 28/4/1 27/4/1
f 36/4/1 32/4/1 31/4/1
f 36/8/1 29/8/1 35/8/1
f 36/4/1 30/4/1 29/4/1
f 36/4/1 31/4/1 30/4/1
f 37/8/1 33/8/1 32/8/1
f 37/4/1 32/4/1 36/4/1
f 38/4/1 34/4/1 33/4/1
f 38/8/1 33/8/1 37/8/1
f 39/4/1 35/4/1 27/4/1
f 39/4/1 36/4/1 35/4/1
f 39/4/1 38/4/1 37/4/1
f 39/4/1 27/4/1 17/4/1
f 39/4/1 37/4/1 36/4/1
f 40/4/1 34/4/1 38/4/1
f 40/4/1 38/4/1 39/4/1
f 40/4/1 22/4/1 34/4/1
f 41/5/1 40/5/1 39/5/1
f 42/5/1 40/5/1 41/5/1
f 43/5/1 40/5/1 42/5/1
f 44/5/1 40/5/1 43/5/1
f 45/5/1 40/5/1 44/5/1
f 46/5/1 40/5/1 45/5/1
f 47/5/1 41/5/1 39/5/1
f 48/5/1 41/5/1 47/5/1
f 49/5/1 43/5/1 42/5/1
f 50/7/1 44/7/1 43/7/1
f 50/5/1 43/5/1 49/5/1
f 51/4/1 48/4/1 47/4/1
f 52/4/1 50/4/1 49/4/1
f 53/7/1 44/7/1 50/7/1
f 53/4/1 50/4/1 52/4/1
f 54/4/1 45/4/1 44/4/1
f 54/7/1 44/7/1 53/7/1
f 55/4/1 53/4/1 52/4/1
f 55/4/1 52/4/1 51/4/1
f 55/4/1 54/4/1 53/4/1
f 55/4/1 51/4/1 47/4/1
f 56/4/1 45/4/1 54/4/1
f 56/4/1 54/4/1 55/4/1
f 59/5/1 58/5/1 57/5/1
f 60/5/1 58/5/1 59/5/1
f 66/8/1 62/8/1 61/8/1
f 67/8/1 62/8/1 66/8/1
f 70/8/1 64/8/1 63/8/1
f 71/8/1 64/8/1 70/8/1
f 73/8/1 68/8/1 67/8/1
f 73/8/1 66/8/1 65/8/1
f 73/8/1 67/8/1 66/8/1
f 74/8/1 68/8/1 73/8/1
f 75/8/1 72/8/1 71/8/1
f 75/8/1 71/8/1 70/8/1
f 75/8/1 70/8/1 69/8/1
f 76/8/1 72/8/1 75/8/1
f 77/8/2 78/8/2 82/8/2
f 82/8/2 78/8/2 83/8/2
f 79/8/2 80/8/2 86/8/2
f 86/8/2 80/8/2 87/8/2
f 83/8/2 84/8/2 89/8/2
f 81/8/2 82/8/2 89/8/2
f 82/8/2 83/8/2 89/8/2
f 89/8/2 84/8/2 90/8/2
f 87/8/2 88/8/2 91/8/2
f 86/8/2 87/8/2 91/8/2
f 85/8/2 86/8/2 91/8/2
f 91/8/2 88/8/2 92/8/2
f 81/8/2 89/8/2 93/8/2
f 89/6/2 90/6/2 94/6/2
f 93/8/2 89/8/2 94/8/2
f 90/8/2 84/8/2 95/8/2
f 94/6/2 90/6/2 95/6/2
f 95/8/2 84/8/2 96/8/2
f 85/8/2 91/8/2 97/8/2
f 91/6/2 92/6/2 98/6/2
f 97/8/2 91/8/2 98/8/2
f 92/8/2 88/8/2 99/8/2
f 98/6/2 92/6/2 99/6/2
f 99/8/2 88/8/2 100/8/2
f 101/8/2 102/8/2 106/8/2
f 106/8/2 102/8/2 107/8/2
f 103/8/2 104/8/2 110/8/2
f 110/8/2 104/8/2 111/8/2
f 107/8/2 108/8/2 113/8/2
f 105/8/2 106/8/2 113/8/2
f 106/8/2 107/8/2 113/8/2
f 113/8/2 108/8/2 114/8/2
f 111/8/2 112/8/2 115/8/2
f 110/8/2 111/8/2 115/8/2
f 109/8/2 110/8/2 115/8/2
f 115/8/2 112/8/2 116/8/2
f 105/8/2 113/8/2 118/8/2
f 114/8/2 108/8/2 119/8/2
f 109/8/2 115/8/2 120/8/2
f 116/8/2 112/8/2 121/8/2
f 113/6/2 114/6/2 123/6/2
f 118/8/2 113/8/2 123/8/2
f 114/8/2 119/8/2 124/8/2
f 123/6/2 114/6/2 124/6/2
f 115/6/2 116/6/2 125/6/2
f 120/8/2 115/8/2 125/8/2
f 116/8/2 121/8/2 126/8/2
f 125/6/2 116/6/2 126/6/2
f 117/4/2 118/4/2 127/4/2
f 118/8/2 123/8/2 127/8/2
f 123/8/2 124/8/2 127/8/2
f 127/8/2 124/8/2 128/8/2
f 124/8/2 119/8/2 129/8/2
f 128/8/2 124/8/2 129/8/2
f 119/4/2 120/4/2 130/4/2
f 129/8/2 119/8/2 130/8/2
f 125/8/2 126/8/2 131/8/2
f 130/4/2 120/4/2 131/4/2
f 120/8/2 125/8/2 131/8/2
f 131/8/2 126/8/2 132/8/2
f 126/8/2 121/8/2 133/8/2
f 132/8/2 126/8/2 133/8/2
f 121/4/2 122/4/2 134/4/2
f 133/8/2 121/8/2 134/8/2
f 128/8/2 129/8/2 135/8/2
f 127/4/2 128/4/2 135/4/2
f 131/4/2 132/4/2 136/4/2
f 135/8/2 129/8/2 136/8/2
f 129/4/2 130/4/2 136/4/2
f 130/4/2 131/4/2 136/4/2
f 132/8/2 133/8/2 137/8/2
f 136/4/2 132/4/2 137/4/2
f 133/4/2 134/4/2 138/4/2
f 137/8/2 133/8/2 138/8/2
f 127/4/2 135/4/2 139/4/2
f 135/4/2 136/4/2 139/4/2
f 137/4/2 138/4/2 139/4/2
f 117/4/2 127/4/2 139/4/2
f 136/4/2 137/4/2 139/4/2
f 138/4/2 134/4/2 140/4/2
f 139/4/2 138/4/2 140/4/2
f 134/4/2 122/4/2 140/4/2
f 139/5/2 140/5/2 141/5/2
f 141/5/2 140/5/2 142/5/2
f 142/5/2 140/5/2 143/5/2
f 143/5/2 140/5/2 144/5/2
f 139/5/2 141/5/2 145/5/2
f 141/7/2 142/7/2 146/7/2
f 145/5/2 141/5/2 146/5/2
f 145/4/2 146/4/2 147/4/2
f 146/7/2 142/7/2 147/7/2
f 142/4/2 143/4/2 148/4/2
f 147/7/2 142/7/2 148/7/2
f 145/4/2 147/4/2 149/4/2
f 147/4/2 148/4/2 149/4/2
f 148/4/2 143/4/2 150/4/2
f 149/4/2 148/4/2 150/4/2
f 155/4/3 152/4/3 151/4/3
f 156/5/3 153/5/3 152/5/3
f 156/4/3 152/4/3 155/4/3
f 157/4/3 154/4/3 153/4/3
f 157/5/3 153/5/3 156/5/3
f 158/4/3 154/4/3 157/4/3
f 161/8/3 160/8/3 159/8/3
f 162/8/3 161/8/3 159/8/3
f 163/8/3 161/8/3 162/8/3
f 166/8/3 165/8/3 164/8/3
f 167/8/3 166/8/3 164/8/3
f 168/8/3 166/8/3 167/8/3
f 171/8/3 170/8/3 169/8/3
f 172/8/3 170/8/3 171/8/3
f 175/8/3 174/8/3 173/8/3
f 176/8/3 174/8/3 175/8/3
f 180/5/3 178/5/3 177/5/3
f 180/4/3 179/4/3 178/4/3
f 181/4/3 179/4/3 180/4/3
f 182/5/3 180/5/3 177/5/3
f 182/5/3 181/5/3 180/5/3
f 183/5/3 181/5/3 182/5/3
f 186/8/3 185/8/3 184/8/3
f 187/8/3 186/8/3 184/8/3
f 188/8/3 186/8/3 187/8/3
f 191/8/3 190/8/3 189/8/3
f 192/8/3 191/8/3 189/8/3
f 193/8/3 191/8/3 192/8/3
f 196/8/3 195/8/3 194/8/3
f 197/8/3 195/8/3 196/8/3
f 200/8/3 199/8/3 198/8/3
f 201/8/3 199/8/3 200/8/3
f 202/5/4 203/5/4 205/5/4
f 203/4/4 204/4/4 205/4/4
f 205/4/4 204/4/4 206/4/4
f 202/5/4 205/5/4 207/5/4
f 205/5/4 206/5/4 207/5/4
f 207/5/4 206/5/4 208/5/4
f 209/8/4 210/8/4 211/8/4
f 211/8/4 210/8/4 212/8/4
f 213/8/4 214/8/4 215/8/4
f 215/8/4 214/8/4 216/8/4
f 217/8/4 218/8/4 219/8/4
f 217/8/4 219/8/4 220/8/4
f 220/8/4 219/8/4 221/8/4
f 222/8/4 223/8/4 224/8/4
f 222/8/4 224/8/4 225/8/4
f 225/8/4 224/8/4 226/8/4
f 227/4/4 228/4/4 229/4/4
f 229/4/4 228/4/4 230/4/4
f 227/4/4 229/4/4 231/4/4
f 229/7/4 230/7/4 231/7/4
f 230/4/4 228/4/4 232/4/4
f 231/7/4 230/7/4 232/7/4
f 227/4/4 231/4/4 233/4/4
f 231/4/4 232/4/4 233/4/4
f 232/4/4 228/4/4 234/4/4
f 233/4/4 232/4/4 234/4/4
f 235/8/4 236/8/4 237/8/4
f 237/8/4 236/8/4 238/8/4
f 239/8/4 240/8/4 241/8/4
f 241/8/4 240/8/4 242/8/4
f 243/8/4 244/8/4 245/8/4
f 243/8/4 245/8/4 246/8/4
f 246/8/4 245/8/4 247/8/4
f 248/8/4 249/8/4 250/8/4
f 248/8/4 250/8/4 251/8/4
f 251/8/4 250/8/4 252/8/4
f 253/4/4 254/4/4 256/4/4
f 254/5/4 255/5/4 257/5/4
f 256/4/4 254/4/4 257/4/4
f 257/5/4 255/5/4 258/5/4
f 263/8/5 260/8/5 259/8/5
f 264/8/5 260/8/5 263/8/5
f 265/8/5 262/8/5 261/8/5
f 266/8/5 262/8/5 265/8/5
f 271/8/5 268/8/5 267/8/5
f 272/8/5 268/8/5 271/8/5
f 273/8/5 270/8/5 269/8/5
f 274/8/5 270/8/5 273/8/5
f 279/8/5 276/8/5 275/8/5
f 280/8/5 276/8/5 279/8/5
f 281/8/5 278/8/5 277/8/5
f 282/8/5 278/8/5 281/8/5
f 287/8/5 284/8/5 283/8/5
f 288/8/5 284/8/5 287/8/5
f 289/8/5 286/8/5 285/8/5
f 290/8/5 286/8/5 289/8/5
f 295/8/5 292/8/5 291/8/5
f 296/8/5 292/8/5 295/8/5
f 297/8/5 294/8/5 293/8/5
f 298/8/5 294/8/5 297/8/5
f 303/8/5 300/8/5 299/8/5
f 304/8/5 300/8/5 303/8/5
f 305/8/5 302/8/5 301/8/5
f 306/8/5 302/8/5 305/8/5
f 309/4/5 308/4/5 307/4/5
f 310/4/5 308/4/5 309/4/5
f 311/4/5 309/4/5 307/4/5
f 312/5/5 310/5/5 309/5/5
f 312/4/5 309/4/5 311/4/5
f 313/5/5 310/5/5 312/5/5
f 314/5/5 310/5/5 313/5/5
f 315/4/5 308/4/5 310/4/5
f 315/5/5 310/5/5 314/5/5
f 316/4/5 308/4/5 315/4/5
f 317/5/5 314/5/5 313/5/5
f 318/5/5 314/5/5 317/5/5
f 321/5/5 314/5/5 318/5/5
f 322/5/5 314/5/5 321/5/5
f 325/4/5 320/4/5 319/4/5
f 326/5/5 321/5/5 320/5/5
f 326/4/5 320/4/5 325/4/5
f 326/5/5 322/5/5 321/5/5
f 326/5/5 323/5/5 322/5/5
f 327/5/5 323/5/5 326/5/5
f 328/5/5 323/5/5 327/5/5
f 329/4/5 324/4/5 323/4/5
f 329/5/5 323/5/5 328/5/5
f 330/4/5 324/4/5 329/4/5
f 331/5/5 328/5/5 327/5/5
f 332/5/5 328/5/5 331/5/5
f 335/5/5 328/5/5 332/5/5
f 336/5/5 328/5/5 335/5/5
f 339/4/5 334/4/5 333/4/5
f 339/5/5 335/5/5 334/5/5
f 339/5/5 337/5/5 336/5/5
f 339/5/5 336/5/5 335/5/5
f 340/4/5 338/4/5 337/4/5
f 340/5/5 337/5/5 339/5/5
f 341/4/5 339/4/5 333/4/5
f 341/4/5 340/4/5 339/4/5
f 342/4/5 338/4/5 340/4/5
f 342/4/5 340/4/5 341/4/5
f 346/4/5 344/4/5 343/4/5
f 347/5/5 345/5/5 344/5/5
f 347/4/5 344/4/5 346/4/5
f 348/5/5 345/5/5 347/5/5
f 349/5/6 350/5/6 351/5/6
f 351/5/6 350/5/6 352/5/6
f 353/5/6 354/5/6 355/5/6
f 355/5/6 354/5/6 356/5/6
f 357/4/6 358/4/6 359/4/6
f 359/4/6 358/4/6 360/4/6
f 357/4/6 359/4/6 361/4/6
f 359/5/6 360/5/6 361/5/6
f 360/4/6 358/4/6 362/4/6
f 361/5/6 360/5/6 362/5/6
f 357/4/6 361/4/6 363/4/6
f 361/4/6 362/4/6 363/4/6
f 362/4/6 358/4/6 364/4/6
f 363/4/6 362/4/6 364/4/6
